<ttFont>
    <TTGlyph name=".notdef" xMin="0" yMin="0" xMax="500" yMax="700">
      <contour>
        <pt x="500" y="0" on="1"/>
        <pt x="0" y="0" on="1"/>
        <pt x="0" y="700" on="1"/>
        <pt x="500" y="700" on="1"/>
      </contour>
      <contour>
        <pt x="250" y="395" on="1"/>
        <pt x="420" y="650" on="1"/>
        <pt x="80" y="650" on="1"/>
      </contour>
      <contour>
        <pt x="50" y="605" on="1"/>
        <pt x="50" y="95" on="1"/>
        <pt x="220" y="350" on="1"/>
      </contour>
      <contour>
        <pt x="280" y="350" on="1"/>
        <pt x="450" y="95" on="1"/>
        <pt x="450" y="605" on="1"/>
      </contour>
      <contour>
        <pt x="80" y="50" on="1"/>
        <pt x="420" y="50" on="1"/>
        <pt x="250" y="305" on="1"/>
      </contour>
    </TTGlyph>
    <TTGlyph name=".ttfautohint" xMin="0" yMin="0" xMax="0" yMax="0">
      <contour>
        <pt x="0" y="0" on="1"/>
      </contour>
    </TTGlyph>
    <TTGlyph name="A" xMin="10" yMin="0" xMax="769" yMax="688">
      <contour>
        <pt x="535" y="0" on="1"/>
        <pt x="506" y="97" on="1"/>
        <pt x="265" y="97" on="1"/>
        <pt x="236" y="0" on="1"/>
        <pt x="10" y="0" on="1"/>
        <pt x="261" y="688" on="1"/>
        <pt x="518" y="688" on="1"/>
        <pt x="769" y="0" on="1"/>
      </contour>
      <contour>
        <pt x="311" y="251" on="1"/>
        <pt x="460" y="251" on="1"/>
        <pt x="388" y="496" on="1"/>
        <pt x="384" y="496" on="1"/>
      </contour>
    </TTGlyph>
    <TTGlyph name="AE" xMin="-15" yMin="0" xMax="962" yMax="688">
      <contour>
        <pt x="245" y="97" on="1"/>
        <pt x="211" y="0" on="1"/>
        <pt x="-15" y="0" on="1"/>
        <pt x="276" y="688" on="1"/>
        <pt x="955" y="688" on="1"/>
        <pt x="955" y="523" on="1"/>
        <pt x="590" y="523" on="1"/>
        <pt x="612" y="428" on="1"/>
        <pt x="899" y="428" on="1"/>
        <pt x="899" y="270" on="1"/>
        <pt x="649" y="270" on="1"/>
        <pt x="673" y="165" on="1"/>
        <pt x="962" y="165" on="1"/>
        <pt x="962" y="0" on="1"/>
        <pt x="501" y="0" on="1"/>
        <pt x="479" y="97" on="1"/>
      </contour>
      <contour>
        <pt x="445" y="251" on="1"/>
        <pt x="391" y="496" on="1"/>
        <pt x="387" y="496" on="1"/>
        <pt x="300" y="251" on="1"/>
      </contour>
    </TTGlyph>
    <TTGlyph name="AEacute" xMin="-15" yMin="0" xMax="962" yMax="885">
      <contour>
        <pt x="471" y="752" on="1"/>
        <pt x="563" y="885" on="1"/>
        <pt x="756" y="885" on="1"/>
        <pt x="758" y="881" on="1"/>
        <pt x="598" y="752" on="1"/>
      </contour>
      <contour>
        <pt x="245" y="97" on="1"/>
        <pt x="211" y="0" on="1"/>
        <pt x="-15" y="0" on="1"/>
        <pt x="276" y="688" on="1"/>
        <pt x="955" y="688" on="1"/>
        <pt x="955" y="523" on="1"/>
        <pt x="590" y="523" on="1"/>
        <pt x="612" y="428" on="1"/>
        <pt x="899" y="428" on="1"/>
        <pt x="899" y="270" on="1"/>
        <pt x="649" y="270" on="1"/>
        <pt x="673" y="165" on="1"/>
        <pt x="962" y="165" on="1"/>
        <pt x="962" y="0" on="1"/>
        <pt x="501" y="0" on="1"/>
        <pt x="479" y="97" on="1"/>
      </contour>
      <contour>
        <pt x="445" y="251" on="1"/>
        <pt x="391" y="496" on="1"/>
        <pt x="387" y="496" on="1"/>
        <pt x="300" y="251" on="1"/>
      </contour>
    </TTGlyph>
    <TTGlyph name="Aacute" xMin="10" yMin="0" xMax="769" yMax="885">
      <contour>
        <pt x="293" y="752" on="1"/>
        <pt x="385" y="885" on="1"/>
        <pt x="578" y="885" on="1"/>
        <pt x="580" y="881" on="1"/>
        <pt x="420" y="752" on="1"/>
      </contour>
      <contour>
        <pt x="506" y="97" on="1"/>
        <pt x="265" y="97" on="1"/>
        <pt x="236" y="0" on="1"/>
        <pt x="10" y="0" on="1"/>
        <pt x="261" y="688" on="1"/>
        <pt x="518" y="688" on="1"/>
        <pt x="769" y="0" on="1"/>
        <pt x="535" y="0" on="1"/>
      </contour>
      <contour>
        <pt x="460" y="251" on="1"/>
        <pt x="388" y="496" on="1"/>
        <pt x="384" y="496" on="1"/>
        <pt x="311" y="251" on="1"/>
      </contour>
    </TTGlyph>
    <TTGlyph name="Abreve" xMin="10" yMin="0" xMax="769" yMax="885">
      <contour>
        <pt x="574" y="851" on="0"/>
        <pt x="527" y="784" on="0"/>
        <pt x="443" y="741" on="0"/>
        <pt x="389" y="741" on="1"/>
        <pt x="334" y="741" on="0"/>
        <pt x="250" y="784" on="0"/>
        <pt x="205" y="850" on="0"/>
        <pt x="205" y="885" on="1"/>
        <pt x="301" y="885" on="1"/>
        <pt x="304" y="867" on="0"/>
        <pt x="355" y="835" on="0"/>
        <pt x="389" y="835" on="1"/>
        <pt x="423" y="835" on="0"/>
        <pt x="476" y="868" on="0"/>
        <pt x="479" y="885" on="1"/>
        <pt x="574" y="885" on="1"/>
      </contour>
      <contour>
        <pt x="535" y="0" on="1"/>
        <pt x="506" y="97" on="1"/>
        <pt x="265" y="97" on="1"/>
        <pt x="236" y="0" on="1"/>
        <pt x="10" y="0" on="1"/>
        <pt x="261" y="688" on="1"/>
        <pt x="518" y="688" on="1"/>
        <pt x="769" y="0" on="1"/>
      </contour>
      <contour>
        <pt x="311" y="251" on="1"/>
        <pt x="460" y="251" on="1"/>
        <pt x="388" y="496" on="1"/>
        <pt x="384" y="496" on="1"/>
      </contour>
    </TTGlyph>
    <TTGlyph name="Acircumflex" xMin="10" yMin="0" xMax="769" yMax="885">
      <contour>
        <pt x="462" y="740" on="1"/>
        <pt x="388" y="817" on="1"/>
        <pt x="314" y="740" on="1"/>
        <pt x="186" y="740" on="1"/>
        <pt x="325" y="885" on="1"/>
        <pt x="453" y="885" on="1"/>
        <pt x="592" y="740" on="1"/>
      </contour>
      <contour>
        <pt x="535" y="0" on="1"/>
        <pt x="506" y="97" on="1"/>
        <pt x="265" y="97" on="1"/>
        <pt x="236" y="0" on="1"/>
        <pt x="10" y="0" on="1"/>
        <pt x="261" y="688" on="1"/>
        <pt x="518" y="688" on="1"/>
        <pt x="769" y="0" on="1"/>
      </contour>
      <contour>
        <pt x="311" y="251" on="1"/>
        <pt x="460" y="251" on="1"/>
        <pt x="388" y="496" on="1"/>
        <pt x="384" y="496" on="1"/>
      </contour>
    </TTGlyph>
    <TTGlyph name="Adieresis" xMin="10" yMin="0" xMax="769" yMax="885">
      <contour>
        <pt x="203" y="746" on="1"/>
        <pt x="203" y="885" on="1"/>
        <pt x="355" y="885" on="1"/>
        <pt x="355" y="746" on="1"/>
      </contour>
      <contour>
        <pt x="423" y="746" on="1"/>
        <pt x="423" y="885" on="1"/>
        <pt x="575" y="885" on="1"/>
        <pt x="575" y="746" on="1"/>
      </contour>
      <contour>
        <pt x="535" y="0" on="1"/>
        <pt x="506" y="97" on="1"/>
        <pt x="265" y="97" on="1"/>
        <pt x="236" y="0" on="1"/>
        <pt x="10" y="0" on="1"/>
        <pt x="261" y="688" on="1"/>
        <pt x="518" y="688" on="1"/>
        <pt x="769" y="0" on="1"/>
      </contour>
      <contour>
        <pt x="311" y="251" on="1"/>
        <pt x="460" y="251" on="1"/>
        <pt x="388" y="496" on="1"/>
        <pt x="384" y="496" on="1"/>
      </contour>
    </TTGlyph>
    <TTGlyph name="Agrave" xMin="10" yMin="0" xMax="769" yMax="885">
      <contour>
        <pt x="198" y="881" on="1"/>
        <pt x="200" y="885" on="1"/>
        <pt x="393" y="885" on="1"/>
        <pt x="485" y="752" on="1"/>
        <pt x="358" y="752" on="1"/>
      </contour>
      <contour>
        <pt x="506" y="97" on="1"/>
        <pt x="265" y="97" on="1"/>
        <pt x="236" y="0" on="1"/>
        <pt x="10" y="0" on="1"/>
        <pt x="261" y="688" on="1"/>
        <pt x="518" y="688" on="1"/>
        <pt x="769" y="0" on="1"/>
        <pt x="535" y="0" on="1"/>
      </contour>
      <contour>
        <pt x="460" y="251" on="1"/>
        <pt x="388" y="496" on="1"/>
        <pt x="384" y="496" on="1"/>
        <pt x="311" y="251" on="1"/>
      </contour>
    </TTGlyph>
    <TTGlyph name="Amacron" xMin="10" yMin="0" xMax="769" yMax="865">
      <contour>
        <pt x="231" y="765" on="1"/>
        <pt x="231" y="865" on="1"/>
        <pt x="547" y="865" on="1"/>
        <pt x="547" y="765" on="1"/>
      </contour>
      <contour>
        <pt x="535" y="0" on="1"/>
        <pt x="506" y="97" on="1"/>
        <pt x="265" y="97" on="1"/>
        <pt x="236" y="0" on="1"/>
        <pt x="10" y="0" on="1"/>
        <pt x="261" y="688" on="1"/>
        <pt x="518" y="688" on="1"/>
        <pt x="769" y="0" on="1"/>
      </contour>
      <contour>
        <pt x="311" y="251" on="1"/>
        <pt x="460" y="251" on="1"/>
        <pt x="388" y="496" on="1"/>
        <pt x="384" y="496" on="1"/>
      </contour>
    </TTGlyph>
    <TTGlyph name="Aogonek" xMin="10" yMin="-211" xMax="769" yMax="688">
      <contour>
        <pt x="639" y="0" on="1"/>
        <pt x="632" y="-13" on="0"/>
        <pt x="623" y="-51" on="0"/>
        <pt x="623" y="-69" on="1"/>
        <pt x="623" y="-91" on="0"/>
        <pt x="652" y="-120" on="0"/>
        <pt x="683" y="-120" on="1"/>
        <pt x="725" y="-120" on="1"/>
        <pt x="725" y="-196" on="1"/>
        <pt x="679" y="-211" on="0"/>
        <pt x="629" y="-211" on="1"/>
        <pt x="575" y="-211" on="0"/>
        <pt x="502" y="-155" on="0"/>
        <pt x="502" y="-97" on="1"/>
        <pt x="502" y="-69" on="0"/>
        <pt x="523" y="-23" on="0"/>
        <pt x="542" y="0" on="1"/>
        <pt x="535" y="0" on="1"/>
        <pt x="506" y="97" on="1"/>
        <pt x="265" y="97" on="1"/>
        <pt x="236" y="0" on="1"/>
        <pt x="10" y="0" on="1"/>
        <pt x="261" y="688" on="1"/>
        <pt x="518" y="688" on="1"/>
        <pt x="769" y="0" on="1"/>
      </contour>
      <contour>
        <pt x="311" y="251" on="1"/>
        <pt x="460" y="251" on="1"/>
        <pt x="388" y="496" on="1"/>
        <pt x="384" y="496" on="1"/>
      </contour>
    </TTGlyph>
    <TTGlyph name="Aring" xMin="10" yMin="0" xMax="769" yMax="954">
      <contour>
        <pt x="434" y="954" on="0"/>
        <pt x="498" y="890" on="0"/>
        <pt x="498" y="845" on="1"/>
        <pt x="498" y="801" on="0"/>
        <pt x="434" y="737" on="0"/>
        <pt x="389" y="737" on="1"/>
        <pt x="344" y="737" on="0"/>
        <pt x="280" y="800" on="0"/>
        <pt x="280" y="845" on="1"/>
        <pt x="280" y="890" on="0"/>
        <pt x="344" y="954" on="0"/>
        <pt x="389" y="954" on="1"/>
      </contour>
      <contour>
        <pt x="371" y="885" on="0"/>
        <pt x="349" y="862" on="0"/>
        <pt x="349" y="844" on="1"/>
        <pt x="349" y="827" on="0"/>
        <pt x="372" y="805" on="0"/>
        <pt x="389" y="805" on="1"/>
        <pt x="407" y="805" on="0"/>
        <pt x="429" y="828" on="0"/>
        <pt x="429" y="846" on="1"/>
        <pt x="429" y="863" on="0"/>
        <pt x="406" y="885" on="0"/>
        <pt x="389" y="885" on="1"/>
      </contour>
      <contour>
        <pt x="535" y="0" on="1"/>
        <pt x="506" y="97" on="1"/>
        <pt x="265" y="97" on="1"/>
        <pt x="236" y="0" on="1"/>
        <pt x="10" y="0" on="1"/>
        <pt x="261" y="688" on="1"/>
        <pt x="518" y="688" on="1"/>
        <pt x="769" y="0" on="1"/>
      </contour>
      <contour>
        <pt x="311" y="251" on="1"/>
        <pt x="460" y="251" on="1"/>
        <pt x="388" y="496" on="1"/>
        <pt x="384" y="496" on="1"/>
      </contour>
    </TTGlyph>
    <TTGlyph name="Aringacute" xMin="10" yMin="0" xMax="769" yMax="957">
      <contour>
        <pt x="448" y="852" on="1"/>
        <pt x="321" y="852" on="1"/>
        <pt x="398" y="957" on="1"/>
        <pt x="580" y="957" on="1"/>
        <pt x="582" y="953" on="1"/>
      </contour>
      <contour>
        <pt x="535" y="0" on="1"/>
        <pt x="506" y="97" on="1"/>
        <pt x="265" y="97" on="1"/>
        <pt x="236" y="0" on="1"/>
        <pt x="10" y="0" on="1"/>
        <pt x="261" y="688" on="1"/>
        <pt x="288" y="688" on="1"/>
        <pt x="281" y="705" on="0"/>
        <pt x="281" y="728" on="1"/>
        <pt x="281" y="775" on="0"/>
        <pt x="343" y="827" on="0"/>
        <pt x="390" y="827" on="1"/>
        <pt x="437" y="827" on="0"/>
        <pt x="499" y="775" on="0"/>
        <pt x="499" y="728" on="1"/>
        <pt x="499" y="707" on="0"/>
        <pt x="491" y="688" on="1"/>
        <pt x="518" y="688" on="1"/>
        <pt x="769" y="0" on="1"/>
      </contour>
      <contour>
        <pt x="372" y="768" on="0"/>
        <pt x="350" y="745" on="0"/>
        <pt x="350" y="727" on="1"/>
        <pt x="350" y="710" on="0"/>
        <pt x="373" y="688" on="0"/>
        <pt x="390" y="688" on="1"/>
        <pt x="408" y="688" on="0"/>
        <pt x="430" y="711" on="0"/>
        <pt x="430" y="729" on="1"/>
        <pt x="430" y="746" on="0"/>
        <pt x="407" y="768" on="0"/>
        <pt x="390" y="768" on="1"/>
      </contour>
      <contour>
        <pt x="311" y="251" on="1"/>
        <pt x="460" y="251" on="1"/>
        <pt x="388" y="496" on="1"/>
        <pt x="384" y="496" on="1"/>
      </contour>
    </TTGlyph>
    <TTGlyph name="Atilde" xMin="10" yMin="0" xMax="769" yMax="885">
      <contour>
        <pt x="611" y="849" on="0"/>
        <pt x="575" y="783" on="0"/>
        <pt x="511" y="742" on="0"/>
        <pt x="471" y="742" on="1"/>
        <pt x="449" y="742" on="0"/>
        <pt x="409" y="752" on="0"/>
        <pt x="377" y="763" on="1"/>
        <pt x="352" y="772" on="0"/>
        <pt x="316" y="782" on="0"/>
        <pt x="298" y="782" on="1"/>
        <pt x="280" y="782" on="0"/>
        <pt x="253" y="760" on="0"/>
        <pt x="248" y="742" on="1"/>
        <pt x="167" y="742" on="1"/>
        <pt x="167" y="778" on="0"/>
        <pt x="203" y="844" on="0"/>
        <pt x="267" y="885" on="0"/>
        <pt x="307" y="885" on="1"/>
        <pt x="329" y="885" on="0"/>
        <pt x="369" y="875" on="0"/>
        <pt x="401" y="864" on="1"/>
        <pt x="426" y="855" on="0"/>
        <pt x="462" y="845" on="0"/>
        <pt x="480" y="845" on="1"/>
        <pt x="498" y="845" on="0"/>
        <pt x="525" y="867" on="0"/>
        <pt x="530" y="885" on="1"/>
        <pt x="611" y="885" on="1"/>
      </contour>
      <contour>
        <pt x="535" y="0" on="1"/>
        <pt x="506" y="97" on="1"/>
        <pt x="265" y="97" on="1"/>
        <pt x="236" y="0" on="1"/>
        <pt x="10" y="0" on="1"/>
        <pt x="261" y="688" on="1"/>
        <pt x="518" y="688" on="1"/>
        <pt x="769" y="0" on="1"/>
      </contour>
      <contour>
        <pt x="311" y="251" on="1"/>
        <pt x="460" y="251" on="1"/>
        <pt x="388" y="496" on="1"/>
        <pt x="384" y="496" on="1"/>
      </contour>
    </TTGlyph>
    <TTGlyph name="B" xMin="74" yMin="0" xMax="738" yMax="688">
      <contour>
        <pt x="584" y="688" on="0"/>
        <pt x="671" y="645" on="0"/>
        <pt x="722" y="567" on="0"/>
        <pt x="722" y="519" on="1"/>
        <pt x="722" y="392" on="0"/>
        <pt x="607" y="359" on="1"/>
        <pt x="607" y="355" on="1"/>
        <pt x="738" y="325" on="0"/>
        <pt x="738" y="183" on="1"/>
        <pt x="738" y="129" on="0"/>
        <pt x="685" y="46" on="0"/>
        <pt x="593" y="0" on="0"/>
        <pt x="538" y="0" on="1"/>
        <pt x="74" y="0" on="1"/>
        <pt x="74" y="688" on="1"/>
        <pt x="532" y="688" on="1"/>
      </contour>
      <contour>
        <pt x="295" y="420" on="1"/>
        <pt x="447" y="420" on="1"/>
        <pt x="469" y="420" on="0"/>
        <pt x="498" y="451" on="0"/>
        <pt x="498" y="474" on="1"/>
        <pt x="498" y="484" on="1"/>
        <pt x="498" y="506" on="0"/>
        <pt x="468" y="537" on="0"/>
        <pt x="447" y="537" on="1"/>
        <pt x="295" y="537" on="1"/>
      </contour>
      <contour>
        <pt x="295" y="160" on="1"/>
        <pt x="463" y="160" on="1"/>
        <pt x="485" y="160" on="0"/>
        <pt x="514" y="191" on="0"/>
        <pt x="514" y="214" on="1"/>
        <pt x="514" y="224" on="1"/>
        <pt x="514" y="247" on="0"/>
        <pt x="485" y="278" on="0"/>
        <pt x="463" y="278" on="1"/>
        <pt x="295" y="278" on="1"/>
      </contour>
    </TTGlyph>
    <TTGlyph name="C" xMin="45" yMin="-12" xMax="733" yMax="700">
      <contour>
        <pt x="555" y="700" on="0"/>
        <pt x="733" y="547" on="0"/>
        <pt x="733" y="405" on="1"/>
        <pt x="522" y="405" on="1"/>
        <pt x="522" y="465" on="0"/>
        <pt x="459" y="535" on="0"/>
        <pt x="401" y="535" on="1"/>
        <pt x="334" y="535" on="0"/>
        <pt x="271" y="451" on="0"/>
        <pt x="271" y="376" on="1"/>
        <pt x="271" y="312" on="1"/>
        <pt x="271" y="238" on="0"/>
        <pt x="334" y="153" on="0"/>
        <pt x="399" y="153" on="1"/>
        <pt x="463" y="153" on="0"/>
        <pt x="529" y="219" on="0"/>
        <pt x="529" y="279" on="1"/>
        <pt x="733" y="279" on="1"/>
        <pt x="733" y="138" on="0"/>
        <pt x="560" y="-12" on="0"/>
        <pt x="402" y="-12" on="1"/>
        <pt x="226" y="-12" on="0"/>
        <pt x="45" y="168" on="0"/>
        <pt x="45" y="344" on="1"/>
        <pt x="45" y="520" on="0"/>
        <pt x="226" y="700" on="0"/>
        <pt x="402" y="700" on="1"/>
      </contour>
    </TTGlyph>
    <TTGlyph name="Cacute" xMin="45" yMin="-12" xMax="733" yMax="885">
      <contour>
        <pt x="303" y="752" on="1"/>
        <pt x="396" y="885" on="1"/>
        <pt x="588" y="885" on="1"/>
        <pt x="590" y="881" on="1"/>
        <pt x="431" y="752" on="1"/>
      </contour>
      <contour>
        <pt x="555" y="700" on="0"/>
        <pt x="733" y="547" on="0"/>
        <pt x="733" y="405" on="1"/>
        <pt x="522" y="405" on="1"/>
        <pt x="522" y="465" on="0"/>
        <pt x="459" y="535" on="0"/>
        <pt x="401" y="535" on="1"/>
        <pt x="334" y="535" on="0"/>
        <pt x="271" y="451" on="0"/>
        <pt x="271" y="376" on="1"/>
        <pt x="271" y="312" on="1"/>
        <pt x="271" y="238" on="0"/>
        <pt x="334" y="153" on="0"/>
        <pt x="399" y="153" on="1"/>
        <pt x="463" y="153" on="0"/>
        <pt x="529" y="219" on="0"/>
        <pt x="529" y="279" on="1"/>
        <pt x="733" y="279" on="1"/>
        <pt x="733" y="138" on="0"/>
        <pt x="560" y="-12" on="0"/>
        <pt x="402" y="-12" on="1"/>
        <pt x="226" y="-12" on="0"/>
        <pt x="45" y="168" on="0"/>
        <pt x="45" y="344" on="1"/>
        <pt x="45" y="520" on="0"/>
        <pt x="226" y="700" on="0"/>
        <pt x="402" y="700" on="1"/>
      </contour>
    </TTGlyph>
    <TTGlyph name="Ccaron" xMin="45" yMin="-12" xMax="733" yMax="885">
      <contour>
        <pt x="325" y="740" on="1"/>
        <pt x="186" y="885" on="1"/>
        <pt x="314" y="885" on="1"/>
        <pt x="388" y="808" on="1"/>
        <pt x="462" y="885" on="1"/>
        <pt x="592" y="885" on="1"/>
        <pt x="453" y="740" on="1"/>
      </contour>
      <contour>
        <pt x="555" y="700" on="0"/>
        <pt x="733" y="547" on="0"/>
        <pt x="733" y="405" on="1"/>
        <pt x="522" y="405" on="1"/>
        <pt x="522" y="465" on="0"/>
        <pt x="459" y="535" on="0"/>
        <pt x="401" y="535" on="1"/>
        <pt x="334" y="535" on="0"/>
        <pt x="271" y="451" on="0"/>
        <pt x="271" y="376" on="1"/>
        <pt x="271" y="312" on="1"/>
        <pt x="271" y="238" on="0"/>
        <pt x="334" y="153" on="0"/>
        <pt x="399" y="153" on="1"/>
        <pt x="463" y="153" on="0"/>
        <pt x="529" y="219" on="0"/>
        <pt x="529" y="279" on="1"/>
        <pt x="733" y="279" on="1"/>
        <pt x="733" y="138" on="0"/>
        <pt x="560" y="-12" on="0"/>
        <pt x="402" y="-12" on="1"/>
        <pt x="226" y="-12" on="0"/>
        <pt x="45" y="168" on="0"/>
        <pt x="45" y="344" on="1"/>
        <pt x="45" y="520" on="0"/>
        <pt x="226" y="700" on="0"/>
        <pt x="402" y="700" on="1"/>
      </contour>
    </TTGlyph>
    <TTGlyph name="Ccedilla" xMin="45" yMin="-211" xMax="733" yMax="700">
      <contour>
        <pt x="555" y="700" on="0"/>
        <pt x="733" y="547" on="0"/>
        <pt x="733" y="405" on="1"/>
        <pt x="522" y="405" on="1"/>
        <pt x="522" y="465" on="0"/>
        <pt x="459" y="535" on="0"/>
        <pt x="401" y="535" on="1"/>
        <pt x="334" y="535" on="0"/>
        <pt x="271" y="451" on="0"/>
        <pt x="271" y="376" on="1"/>
        <pt x="271" y="312" on="1"/>
        <pt x="271" y="238" on="0"/>
        <pt x="334" y="153" on="0"/>
        <pt x="399" y="153" on="1"/>
        <pt x="463" y="153" on="0"/>
        <pt x="529" y="219" on="0"/>
        <pt x="529" y="279" on="1"/>
        <pt x="733" y="279" on="1"/>
        <pt x="733" y="143" on="0"/>
        <pt x="570" y="-7" on="0"/>
        <pt x="421" y="-12" on="1"/>
        <pt x="418" y="-29" on="1"/>
        <pt x="511" y="-38" on="0"/>
        <pt x="511" y="-118" on="1"/>
        <pt x="511" y="-169" on="0"/>
        <pt x="438" y="-211" on="0"/>
        <pt x="393" y="-211" on="1"/>
        <pt x="358" y="-211" on="0"/>
        <pt x="288" y="-202" on="0"/>
        <pt x="267" y="-195" on="1"/>
        <pt x="267" y="-141" on="1"/>
        <pt x="278" y="-142" on="0"/>
        <pt x="352" y="-149" on="0"/>
        <pt x="384" y="-149" on="1"/>
        <pt x="424" y="-149" on="0"/>
        <pt x="424" y="-118" on="1"/>
        <pt x="424" y="-102" on="0"/>
        <pt x="407" y="-86" on="0"/>
        <pt x="386" y="-86" on="1"/>
        <pt x="348" y="-86" on="1"/>
        <pt x="359" y="-11" on="1"/>
        <pt x="204" y="-1" on="0"/>
        <pt x="45" y="179" on="0"/>
        <pt x="45" y="344" on="1"/>
        <pt x="45" y="520" on="0"/>
        <pt x="226" y="700" on="0"/>
        <pt x="402" y="700" on="1"/>
      </contour>
    </TTGlyph>
    <TTGlyph name="Ccircumflex" xMin="45" yMin="-12" xMax="733" yMax="885">
      <contour>
        <pt x="462" y="740" on="1"/>
        <pt x="388" y="817" on="1"/>
        <pt x="314" y="740" on="1"/>
        <pt x="186" y="740" on="1"/>
        <pt x="325" y="885" on="1"/>
        <pt x="453" y="885" on="1"/>
        <pt x="592" y="740" on="1"/>
      </contour>
      <contour>
        <pt x="555" y="700" on="0"/>
        <pt x="733" y="547" on="0"/>
        <pt x="733" y="405" on="1"/>
        <pt x="522" y="405" on="1"/>
        <pt x="522" y="465" on="0"/>
        <pt x="459" y="535" on="0"/>
        <pt x="401" y="535" on="1"/>
        <pt x="334" y="535" on="0"/>
        <pt x="271" y="451" on="0"/>
        <pt x="271" y="376" on="1"/>
        <pt x="271" y="312" on="1"/>
        <pt x="271" y="238" on="0"/>
        <pt x="334" y="153" on="0"/>
        <pt x="399" y="153" on="1"/>
        <pt x="463" y="153" on="0"/>
        <pt x="529" y="219" on="0"/>
        <pt x="529" y="279" on="1"/>
        <pt x="733" y="279" on="1"/>
        <pt x="733" y="138" on="0"/>
        <pt x="560" y="-12" on="0"/>
        <pt x="402" y="-12" on="1"/>
        <pt x="226" y="-12" on="0"/>
        <pt x="45" y="168" on="0"/>
        <pt x="45" y="344" on="1"/>
        <pt x="45" y="520" on="0"/>
        <pt x="226" y="700" on="0"/>
        <pt x="402" y="700" on="1"/>
      </contour>
    </TTGlyph>
    <TTGlyph name="Cdotaccent" xMin="45" yMin="-12" xMax="733" yMax="885">
      <contour>
        <pt x="313" y="746" on="1"/>
        <pt x="313" y="885" on="1"/>
        <pt x="465" y="885" on="1"/>
        <pt x="465" y="746" on="1"/>
      </contour>
      <contour>
        <pt x="555" y="700" on="0"/>
        <pt x="733" y="547" on="0"/>
        <pt x="733" y="405" on="1"/>
        <pt x="522" y="405" on="1"/>
        <pt x="522" y="465" on="0"/>
        <pt x="459" y="535" on="0"/>
        <pt x="401" y="535" on="1"/>
        <pt x="334" y="535" on="0"/>
        <pt x="271" y="451" on="0"/>
        <pt x="271" y="376" on="1"/>
        <pt x="271" y="312" on="1"/>
        <pt x="271" y="238" on="0"/>
        <pt x="334" y="153" on="0"/>
        <pt x="399" y="153" on="1"/>
        <pt x="463" y="153" on="0"/>
        <pt x="529" y="219" on="0"/>
        <pt x="529" y="279" on="1"/>
        <pt x="733" y="279" on="1"/>
        <pt x="733" y="138" on="0"/>
        <pt x="560" y="-12" on="0"/>
        <pt x="402" y="-12" on="1"/>
        <pt x="226" y="-12" on="0"/>
        <pt x="45" y="168" on="0"/>
        <pt x="45" y="344" on="1"/>
        <pt x="45" y="520" on="0"/>
        <pt x="226" y="700" on="0"/>
        <pt x="402" y="700" on="1"/>
      </contour>
    </TTGlyph>
    <TTGlyph name="D" xMin="74" yMin="0" xMax="733" yMax="688">
      <contour>
        <pt x="733" y="688" on="0"/>
        <pt x="733" y="344" on="1"/>
        <pt x="733" y="0" on="0"/>
        <pt x="372" y="0" on="1"/>
        <pt x="74" y="0" on="1"/>
        <pt x="74" y="688" on="1"/>
        <pt x="372" y="688" on="1"/>
      </contour>
      <contour>
        <pt x="295" y="165" on="1"/>
        <pt x="368" y="165" on="1"/>
        <pt x="507" y="165" on="0"/>
        <pt x="507" y="314" on="1"/>
        <pt x="507" y="374" on="1"/>
        <pt x="507" y="523" on="0"/>
        <pt x="368" y="523" on="1"/>
        <pt x="295" y="523" on="1"/>
      </contour>
    </TTGlyph>
    <TTGlyph name="Dcaron" xMin="74" yMin="0" xMax="733" yMax="885">
      <contour>
        <pt x="289" y="740" on="1"/>
        <pt x="149" y="885" on="1"/>
        <pt x="277" y="885" on="1"/>
        <pt x="352" y="808" on="1"/>
        <pt x="426" y="885" on="1"/>
        <pt x="556" y="885" on="1"/>
        <pt x="417" y="740" on="1"/>
      </contour>
      <contour>
        <pt x="733" y="688" on="0"/>
        <pt x="733" y="344" on="1"/>
        <pt x="733" y="0" on="0"/>
        <pt x="372" y="0" on="1"/>
        <pt x="74" y="0" on="1"/>
        <pt x="74" y="688" on="1"/>
        <pt x="372" y="688" on="1"/>
      </contour>
      <contour>
        <pt x="295" y="165" on="1"/>
        <pt x="368" y="165" on="1"/>
        <pt x="507" y="165" on="0"/>
        <pt x="507" y="314" on="1"/>
        <pt x="507" y="374" on="1"/>
        <pt x="507" y="523" on="0"/>
        <pt x="368" y="523" on="1"/>
        <pt x="295" y="523" on="1"/>
      </contour>
    </TTGlyph>
    <TTGlyph name="Dcroat" xMin="1" yMin="0" xMax="733" yMax="688">
      <contour>
        <pt x="74" y="402" on="1"/>
        <pt x="74" y="688" on="1"/>
        <pt x="372" y="688" on="1"/>
        <pt x="733" y="688" on="0"/>
        <pt x="733" y="344" on="1"/>
        <pt x="733" y="0" on="0"/>
        <pt x="372" y="0" on="1"/>
        <pt x="74" y="0" on="1"/>
        <pt x="74" y="304" on="1"/>
        <pt x="1" y="304" on="1"/>
        <pt x="1" y="402" on="1"/>
      </contour>
      <contour>
        <pt x="295" y="165" on="1"/>
        <pt x="368" y="165" on="1"/>
        <pt x="507" y="165" on="0"/>
        <pt x="507" y="314" on="1"/>
        <pt x="507" y="374" on="1"/>
        <pt x="507" y="523" on="0"/>
        <pt x="368" y="523" on="1"/>
        <pt x="295" y="523" on="1"/>
        <pt x="295" y="402" on="1"/>
        <pt x="392" y="402" on="1"/>
        <pt x="392" y="304" on="1"/>
        <pt x="295" y="304" on="1"/>
      </contour>
    </TTGlyph>
    <TTGlyph name="E" xMin="74" yMin="0" xMax="676" yMax="688">
      <contour>
        <pt x="74" y="688" on="1"/>
        <pt x="669" y="688" on="1"/>
        <pt x="669" y="523" on="1"/>
        <pt x="295" y="523" on="1"/>
        <pt x="295" y="428" on="1"/>
        <pt x="615" y="428" on="1"/>
        <pt x="615" y="270" on="1"/>
        <pt x="295" y="270" on="1"/>
        <pt x="295" y="165" on="1"/>
        <pt x="676" y="165" on="1"/>
        <pt x="676" y="0" on="1"/>
        <pt x="74" y="0" on="1"/>
      </contour>
    </TTGlyph>
    <TTGlyph name="Eacute" xMin="74" yMin="0" xMax="676" yMax="885">
      <contour>
        <pt x="290" y="752" on="1"/>
        <pt x="382" y="885" on="1"/>
        <pt x="575" y="885" on="1"/>
        <pt x="577" y="881" on="1"/>
        <pt x="417" y="752" on="1"/>
      </contour>
      <contour>
        <pt x="74" y="688" on="1"/>
        <pt x="669" y="688" on="1"/>
        <pt x="669" y="523" on="1"/>
        <pt x="295" y="523" on="1"/>
        <pt x="295" y="428" on="1"/>
        <pt x="615" y="428" on="1"/>
        <pt x="615" y="270" on="1"/>
        <pt x="295" y="270" on="1"/>
        <pt x="295" y="165" on="1"/>
        <pt x="676" y="165" on="1"/>
        <pt x="676" y="0" on="1"/>
        <pt x="74" y="0" on="1"/>
      </contour>
    </TTGlyph>
    <TTGlyph name="Ebreve" xMin="74" yMin="0" xMax="676" yMax="885">
      <contour>
        <pt x="570" y="851" on="0"/>
        <pt x="524" y="784" on="0"/>
        <pt x="439" y="741" on="0"/>
        <pt x="385" y="741" on="1"/>
        <pt x="330" y="741" on="0"/>
        <pt x="246" y="784" on="0"/>
        <pt x="201" y="851" on="0"/>
        <pt x="201" y="885" on="1"/>
        <pt x="297" y="885" on="1"/>
        <pt x="300" y="867" on="0"/>
        <pt x="351" y="835" on="0"/>
        <pt x="385" y="835" on="1"/>
        <pt x="420" y="835" on="0"/>
        <pt x="472" y="867" on="0"/>
        <pt x="475" y="885" on="1"/>
        <pt x="570" y="885" on="1"/>
      </contour>
      <contour>
        <pt x="74" y="688" on="1"/>
        <pt x="669" y="688" on="1"/>
        <pt x="669" y="523" on="1"/>
        <pt x="295" y="523" on="1"/>
        <pt x="295" y="428" on="1"/>
        <pt x="615" y="428" on="1"/>
        <pt x="615" y="270" on="1"/>
        <pt x="295" y="270" on="1"/>
        <pt x="295" y="165" on="1"/>
        <pt x="676" y="165" on="1"/>
        <pt x="676" y="0" on="1"/>
        <pt x="74" y="0" on="1"/>
      </contour>
    </TTGlyph>
    <TTGlyph name="Ecaron" xMin="74" yMin="0" xMax="676" yMax="885">
      <contour>
        <pt x="322" y="740" on="1"/>
        <pt x="183" y="885" on="1"/>
        <pt x="311" y="885" on="1"/>
        <pt x="385" y="808" on="1"/>
        <pt x="459" y="885" on="1"/>
        <pt x="589" y="885" on="1"/>
        <pt x="450" y="740" on="1"/>
      </contour>
      <contour>
        <pt x="74" y="688" on="1"/>
        <pt x="669" y="688" on="1"/>
        <pt x="669" y="523" on="1"/>
        <pt x="295" y="523" on="1"/>
        <pt x="295" y="428" on="1"/>
        <pt x="615" y="428" on="1"/>
        <pt x="615" y="270" on="1"/>
        <pt x="295" y="270" on="1"/>
        <pt x="295" y="165" on="1"/>
        <pt x="676" y="165" on="1"/>
        <pt x="676" y="0" on="1"/>
        <pt x="74" y="0" on="1"/>
      </contour>
    </TTGlyph>
    <TTGlyph name="Ecircumflex" xMin="74" yMin="0" xMax="676" yMax="885">
      <contour>
        <pt x="459" y="740" on="1"/>
        <pt x="385" y="817" on="1"/>
        <pt x="311" y="740" on="1"/>
        <pt x="183" y="740" on="1"/>
        <pt x="322" y="885" on="1"/>
        <pt x="450" y="885" on="1"/>
        <pt x="589" y="740" on="1"/>
      </contour>
      <contour>
        <pt x="74" y="688" on="1"/>
        <pt x="669" y="688" on="1"/>
        <pt x="669" y="523" on="1"/>
        <pt x="295" y="523" on="1"/>
        <pt x="295" y="428" on="1"/>
        <pt x="615" y="428" on="1"/>
        <pt x="615" y="270" on="1"/>
        <pt x="295" y="270" on="1"/>
        <pt x="295" y="165" on="1"/>
        <pt x="676" y="165" on="1"/>
        <pt x="676" y="0" on="1"/>
        <pt x="74" y="0" on="1"/>
      </contour>
    </TTGlyph>
    <TTGlyph name="Edieresis" xMin="74" yMin="0" xMax="676" yMax="885">
      <contour>
        <pt x="200" y="746" on="1"/>
        <pt x="200" y="885" on="1"/>
        <pt x="352" y="885" on="1"/>
        <pt x="352" y="746" on="1"/>
      </contour>
      <contour>
        <pt x="420" y="746" on="1"/>
        <pt x="420" y="885" on="1"/>
        <pt x="572" y="885" on="1"/>
        <pt x="572" y="746" on="1"/>
      </contour>
      <contour>
        <pt x="74" y="688" on="1"/>
        <pt x="669" y="688" on="1"/>
        <pt x="669" y="523" on="1"/>
        <pt x="295" y="523" on="1"/>
        <pt x="295" y="428" on="1"/>
        <pt x="615" y="428" on="1"/>
        <pt x="615" y="270" on="1"/>
        <pt x="295" y="270" on="1"/>
        <pt x="295" y="165" on="1"/>
        <pt x="676" y="165" on="1"/>
        <pt x="676" y="0" on="1"/>
        <pt x="74" y="0" on="1"/>
      </contour>
    </TTGlyph>
    <TTGlyph name="Edotaccent" xMin="74" yMin="0" xMax="676" yMax="885">
      <contour>
        <pt x="310" y="746" on="1"/>
        <pt x="310" y="885" on="1"/>
        <pt x="462" y="885" on="1"/>
        <pt x="462" y="746" on="1"/>
      </contour>
      <contour>
        <pt x="74" y="688" on="1"/>
        <pt x="669" y="688" on="1"/>
        <pt x="669" y="523" on="1"/>
        <pt x="295" y="523" on="1"/>
        <pt x="295" y="428" on="1"/>
        <pt x="615" y="428" on="1"/>
        <pt x="615" y="270" on="1"/>
        <pt x="295" y="270" on="1"/>
        <pt x="295" y="165" on="1"/>
        <pt x="676" y="165" on="1"/>
        <pt x="676" y="0" on="1"/>
        <pt x="74" y="0" on="1"/>
      </contour>
    </TTGlyph>
    <TTGlyph name="Egrave" xMin="74" yMin="0" xMax="676" yMax="885">
      <contour>
        <pt x="195" y="881" on="1"/>
        <pt x="197" y="885" on="1"/>
        <pt x="390" y="885" on="1"/>
        <pt x="482" y="752" on="1"/>
        <pt x="355" y="752" on="1"/>
      </contour>
      <contour>
        <pt x="74" y="688" on="1"/>
        <pt x="669" y="688" on="1"/>
        <pt x="669" y="523" on="1"/>
        <pt x="295" y="523" on="1"/>
        <pt x="295" y="428" on="1"/>
        <pt x="615" y="428" on="1"/>
        <pt x="615" y="270" on="1"/>
        <pt x="295" y="270" on="1"/>
        <pt x="295" y="165" on="1"/>
        <pt x="676" y="165" on="1"/>
        <pt x="676" y="0" on="1"/>
        <pt x="74" y="0" on="1"/>
      </contour>
    </TTGlyph>
    <TTGlyph name="Emacron" xMin="74" yMin="0" xMax="676" yMax="865">
      <contour>
        <pt x="228" y="765" on="1"/>
        <pt x="228" y="865" on="1"/>
        <pt x="544" y="865" on="1"/>
        <pt x="544" y="765" on="1"/>
      </contour>
      <contour>
        <pt x="74" y="688" on="1"/>
        <pt x="669" y="688" on="1"/>
        <pt x="669" y="523" on="1"/>
        <pt x="295" y="523" on="1"/>
        <pt x="295" y="428" on="1"/>
        <pt x="615" y="428" on="1"/>
        <pt x="615" y="270" on="1"/>
        <pt x="295" y="270" on="1"/>
        <pt x="295" y="165" on="1"/>
        <pt x="676" y="165" on="1"/>
        <pt x="676" y="0" on="1"/>
        <pt x="74" y="0" on="1"/>
      </contour>
    </TTGlyph>
    <TTGlyph name="Eng" xMin="74" yMin="-210" xMax="759" yMax="688">
      <contour>
        <pt x="759" y="-125" on="0"/>
        <pt x="672" y="-210" on="0"/>
        <pt x="576" y="-210" on="1"/>
        <pt x="550" y="-210" on="0"/>
        <pt x="474" y="-200" on="0"/>
        <pt x="452" y="-192" on="1"/>
        <pt x="452" y="-73" on="1"/>
        <pt x="501" y="-73" on="1"/>
        <pt x="557" y="-73" on="0"/>
        <pt x="557" y="-9" on="1"/>
        <pt x="557" y="10" on="1"/>
        <pt x="277" y="334" on="1"/>
        <pt x="277" y="0" on="1"/>
        <pt x="74" y="0" on="1"/>
        <pt x="74" y="688" on="1"/>
        <pt x="267" y="688" on="1"/>
        <pt x="556" y="349" on="1"/>
        <pt x="556" y="688" on="1"/>
        <pt x="759" y="688" on="1"/>
        <pt x="759" y="-29" on="1"/>
      </contour>
    </TTGlyph>
    <TTGlyph name="Eogonek" xMin="74" yMin="-211" xMax="713" yMax="688">
      <contour>
        <pt x="295" y="523" on="1"/>
        <pt x="295" y="428" on="1"/>
        <pt x="615" y="428" on="1"/>
        <pt x="615" y="270" on="1"/>
        <pt x="295" y="270" on="1"/>
        <pt x="295" y="165" on="1"/>
        <pt x="676" y="165" on="1"/>
        <pt x="676" y="0" on="1"/>
        <pt x="627" y="0" on="1"/>
        <pt x="611" y="-37" on="0"/>
        <pt x="611" y="-69" on="1"/>
        <pt x="611" y="-91" on="0"/>
        <pt x="640" y="-120" on="0"/>
        <pt x="671" y="-120" on="1"/>
        <pt x="713" y="-120" on="1"/>
        <pt x="713" y="-196" on="1"/>
        <pt x="667" y="-211" on="0"/>
        <pt x="617" y="-211" on="1"/>
        <pt x="564" y="-211" on="0"/>
        <pt x="491" y="-154" on="0"/>
        <pt x="491" y="-97" on="1"/>
        <pt x="491" y="-69" on="0"/>
        <pt x="512" y="-23" on="0"/>
        <pt x="531" y="0" on="1"/>
        <pt x="74" y="0" on="1"/>
        <pt x="74" y="688" on="1"/>
        <pt x="669" y="688" on="1"/>
        <pt x="669" y="523" on="1"/>
      </contour>
    </TTGlyph>
    <TTGlyph name="Eth" xMin="1" yMin="0" xMax="733" yMax="688">
      <contour>
        <pt x="74" y="402" on="1"/>
        <pt x="74" y="688" on="1"/>
        <pt x="372" y="688" on="1"/>
        <pt x="733" y="688" on="0"/>
        <pt x="733" y="344" on="1"/>
        <pt x="733" y="0" on="0"/>
        <pt x="372" y="0" on="1"/>
        <pt x="74" y="0" on="1"/>
        <pt x="74" y="304" on="1"/>
        <pt x="1" y="304" on="1"/>
        <pt x="1" y="402" on="1"/>
      </contour>
      <contour>
        <pt x="295" y="165" on="1"/>
        <pt x="368" y="165" on="1"/>
        <pt x="507" y="165" on="0"/>
        <pt x="507" y="314" on="1"/>
        <pt x="507" y="374" on="1"/>
        <pt x="507" y="523" on="0"/>
        <pt x="368" y="523" on="1"/>
        <pt x="295" y="523" on="1"/>
        <pt x="295" y="402" on="1"/>
        <pt x="392" y="402" on="1"/>
        <pt x="392" y="304" on="1"/>
        <pt x="295" y="304" on="1"/>
      </contour>
    </TTGlyph>
    <TTGlyph name="Euro" xMin="23" yMin="-12" xMax="628" yMax="700">
      <contour>
        <pt x="562" y="700" on="0"/>
        <pt x="628" y="681" on="1"/>
        <pt x="628" y="536" on="1"/>
        <pt x="624" y="538" on="0"/>
        <pt x="592" y="550" on="0"/>
        <pt x="537" y="561" on="0"/>
        <pt x="505" y="561" on="1"/>
        <pt x="441" y="561" on="0"/>
        <pt x="353" y="509" on="0"/>
        <pt x="331" y="461" on="1"/>
        <pt x="540" y="461" on="1"/>
        <pt x="540" y="368" on="1"/>
        <pt x="309" y="368" on="1"/>
        <pt x="309" y="346" on="1"/>
        <pt x="309" y="328" on="0"/>
        <pt x="310" y="320" on="1"/>
        <pt x="540" y="320" on="1"/>
        <pt x="540" y="227" on="1"/>
        <pt x="332" y="227" on="1"/>
        <pt x="355" y="179" on="0"/>
        <pt x="442" y="127" on="0"/>
        <pt x="505" y="127" on="1"/>
        <pt x="537" y="127" on="0"/>
        <pt x="592" y="139" on="0"/>
        <pt x="624" y="152" on="0"/>
        <pt x="628" y="154" on="1"/>
        <pt x="628" y="13" on="1"/>
        <pt x="547" y="-12" on="0"/>
        <pt x="471" y="-12" on="1"/>
        <pt x="401" y="-12" on="0"/>
        <pt x="262" y="33" on="0"/>
        <pt x="150" y="140" on="0"/>
        <pt x="126" y="227" on="1"/>
        <pt x="23" y="227" on="1"/>
        <pt x="23" y="320" on="1"/>
        <pt x="113" y="320" on="1"/>
        <pt x="113" y="368" on="1"/>
        <pt x="23" y="368" on="1"/>
        <pt x="23" y="461" on="1"/>
        <pt x="126" y="461" on="1"/>
        <pt x="161" y="588" on="0"/>
        <pt x="356" y="700" on="0"/>
        <pt x="474" y="700" on="1"/>
      </contour>
    </TTGlyph>
    <TTGlyph name="F" xMin="74" yMin="0" xMax="630" yMax="688">
      <contour>
        <pt x="74" y="688" on="1"/>
        <pt x="630" y="688" on="1"/>
        <pt x="630" y="523" on="1"/>
        <pt x="295" y="523" on="1"/>
        <pt x="295" y="405" on="1"/>
        <pt x="583" y="405" on="1"/>
        <pt x="583" y="247" on="1"/>
        <pt x="295" y="247" on="1"/>
        <pt x="295" y="0" on="1"/>
        <pt x="74" y="0" on="1"/>
      </contour>
    </TTGlyph>
    <TTGlyph name="G" xMin="45" yMin="-12" xMax="770" yMax="700">
      <contour>
        <pt x="519" y="700" on="0"/>
        <pt x="677" y="640" on="0"/>
        <pt x="770" y="523" on="0"/>
        <pt x="770" y="439" on="1"/>
        <pt x="559" y="439" on="1"/>
        <pt x="559" y="482" on="0"/>
        <pt x="483" y="535" on="0"/>
        <pt x="429" y="535" on="1"/>
        <pt x="351" y="535" on="0"/>
        <pt x="271" y="452" on="0"/>
        <pt x="271" y="376" on="1"/>
        <pt x="271" y="312" on="1"/>
        <pt x="271" y="236" on="0"/>
        <pt x="351" y="153" on="0"/>
        <pt x="429" y="153" on="1"/>
        <pt x="483" y="153" on="0"/>
        <pt x="559" y="204" on="0"/>
        <pt x="559" y="244" on="1"/>
        <pt x="403" y="244" on="1"/>
        <pt x="403" y="384" on="1"/>
        <pt x="770" y="384" on="1"/>
        <pt x="770" y="0" on="1"/>
        <pt x="656" y="0" on="1"/>
        <pt x="634" y="68" on="1"/>
        <pt x="540" y="-12" on="0"/>
        <pt x="388" y="-12" on="1"/>
        <pt x="217" y="-12" on="0"/>
        <pt x="45" y="167" on="0"/>
        <pt x="45" y="344" on="1"/>
        <pt x="45" y="519" on="0"/>
        <pt x="240" y="700" on="0"/>
        <pt x="420" y="700" on="1"/>
      </contour>
    </TTGlyph>
    <TTGlyph name="Gbreve" xMin="45" yMin="-12" xMax="770" yMax="885">
      <contour>
        <pt x="601" y="851" on="0"/>
        <pt x="555" y="784" on="0"/>
        <pt x="470" y="741" on="0"/>
        <pt x="416" y="741" on="1"/>
        <pt x="361" y="741" on="0"/>
        <pt x="277" y="784" on="0"/>
        <pt x="232" y="851" on="0"/>
        <pt x="232" y="885" on="1"/>
        <pt x="328" y="885" on="1"/>
        <pt x="331" y="867" on="0"/>
        <pt x="382" y="835" on="0"/>
        <pt x="416" y="835" on="1"/>
        <pt x="451" y="835" on="0"/>
        <pt x="503" y="867" on="0"/>
        <pt x="506" y="885" on="1"/>
        <pt x="601" y="885" on="1"/>
      </contour>
      <contour>
        <pt x="519" y="700" on="0"/>
        <pt x="677" y="640" on="0"/>
        <pt x="770" y="523" on="0"/>
        <pt x="770" y="439" on="1"/>
        <pt x="559" y="439" on="1"/>
        <pt x="559" y="482" on="0"/>
        <pt x="483" y="535" on="0"/>
        <pt x="429" y="535" on="1"/>
        <pt x="351" y="535" on="0"/>
        <pt x="271" y="452" on="0"/>
        <pt x="271" y="376" on="1"/>
        <pt x="271" y="312" on="1"/>
        <pt x="271" y="236" on="0"/>
        <pt x="351" y="153" on="0"/>
        <pt x="429" y="153" on="1"/>
        <pt x="483" y="153" on="0"/>
        <pt x="559" y="204" on="0"/>
        <pt x="559" y="244" on="1"/>
        <pt x="403" y="244" on="1"/>
        <pt x="403" y="384" on="1"/>
        <pt x="770" y="384" on="1"/>
        <pt x="770" y="0" on="1"/>
        <pt x="656" y="0" on="1"/>
        <pt x="634" y="68" on="1"/>
        <pt x="540" y="-12" on="0"/>
        <pt x="388" y="-12" on="1"/>
        <pt x="217" y="-12" on="0"/>
        <pt x="45" y="167" on="0"/>
        <pt x="45" y="344" on="1"/>
        <pt x="45" y="519" on="0"/>
        <pt x="240" y="700" on="0"/>
        <pt x="420" y="700" on="1"/>
      </contour>
    </TTGlyph>
    <TTGlyph name="Gcircumflex" xMin="45" yMin="-12" xMax="770" yMax="885">
      <contour>
        <pt x="490" y="740" on="1"/>
        <pt x="416" y="817" on="1"/>
        <pt x="341" y="740" on="1"/>
        <pt x="213" y="740" on="1"/>
        <pt x="353" y="885" on="1"/>
        <pt x="480" y="885" on="1"/>
        <pt x="620" y="740" on="1"/>
      </contour>
      <contour>
        <pt x="519" y="700" on="0"/>
        <pt x="677" y="640" on="0"/>
        <pt x="770" y="523" on="0"/>
        <pt x="770" y="439" on="1"/>
        <pt x="559" y="439" on="1"/>
        <pt x="559" y="482" on="0"/>
        <pt x="483" y="535" on="0"/>
        <pt x="429" y="535" on="1"/>
        <pt x="351" y="535" on="0"/>
        <pt x="271" y="452" on="0"/>
        <pt x="271" y="376" on="1"/>
        <pt x="271" y="312" on="1"/>
        <pt x="271" y="236" on="0"/>
        <pt x="351" y="153" on="0"/>
        <pt x="429" y="153" on="1"/>
        <pt x="483" y="153" on="0"/>
        <pt x="559" y="204" on="0"/>
        <pt x="559" y="244" on="1"/>
        <pt x="403" y="244" on="1"/>
        <pt x="403" y="384" on="1"/>
        <pt x="770" y="384" on="1"/>
        <pt x="770" y="0" on="1"/>
        <pt x="656" y="0" on="1"/>
        <pt x="634" y="68" on="1"/>
        <pt x="540" y="-12" on="0"/>
        <pt x="388" y="-12" on="1"/>
        <pt x="217" y="-12" on="0"/>
        <pt x="45" y="167" on="0"/>
        <pt x="45" y="344" on="1"/>
        <pt x="45" y="519" on="0"/>
        <pt x="240" y="700" on="0"/>
        <pt x="420" y="700" on="1"/>
      </contour>
    </TTGlyph>
    <TTGlyph name="Gcommaaccent" xMin="45" yMin="-267" xMax="770" yMax="700">
      <contour>
        <pt x="519" y="700" on="0"/>
        <pt x="677" y="640" on="0"/>
        <pt x="770" y="523" on="0"/>
        <pt x="770" y="439" on="1"/>
        <pt x="559" y="439" on="1"/>
        <pt x="559" y="482" on="0"/>
        <pt x="483" y="535" on="0"/>
        <pt x="429" y="535" on="1"/>
        <pt x="351" y="535" on="0"/>
        <pt x="271" y="452" on="0"/>
        <pt x="271" y="376" on="1"/>
        <pt x="271" y="312" on="1"/>
        <pt x="271" y="236" on="0"/>
        <pt x="351" y="153" on="0"/>
        <pt x="429" y="153" on="1"/>
        <pt x="483" y="153" on="0"/>
        <pt x="559" y="204" on="0"/>
        <pt x="559" y="244" on="1"/>
        <pt x="403" y="244" on="1"/>
        <pt x="403" y="384" on="1"/>
        <pt x="770" y="384" on="1"/>
        <pt x="770" y="0" on="1"/>
        <pt x="656" y="0" on="1"/>
        <pt x="634" y="68" on="1"/>
        <pt x="540" y="-12" on="0"/>
        <pt x="388" y="-12" on="1"/>
        <pt x="217" y="-12" on="0"/>
        <pt x="45" y="167" on="0"/>
        <pt x="45" y="344" on="1"/>
        <pt x="45" y="519" on="0"/>
        <pt x="240" y="700" on="0"/>
        <pt x="420" y="700" on="1"/>
      </contour>
      <contour>
        <pt x="427" y="-267" on="1"/>
        <pt x="360" y="-267" on="1"/>
        <pt x="401" y="-175" on="1"/>
        <pt x="352" y="-175" on="1"/>
        <pt x="352" y="-59" on="1"/>
        <pt x="481" y="-59" on="1"/>
        <pt x="481" y="-168" on="1"/>
      </contour>
    </TTGlyph>
    <TTGlyph name="Gdotaccent" xMin="45" yMin="-12" xMax="770" yMax="885">
      <contour>
        <pt x="340" y="746" on="1"/>
        <pt x="340" y="885" on="1"/>
        <pt x="493" y="885" on="1"/>
        <pt x="493" y="746" on="1"/>
      </contour>
      <contour>
        <pt x="519" y="700" on="0"/>
        <pt x="677" y="640" on="0"/>
        <pt x="770" y="523" on="0"/>
        <pt x="770" y="439" on="1"/>
        <pt x="559" y="439" on="1"/>
        <pt x="559" y="482" on="0"/>
        <pt x="483" y="535" on="0"/>
        <pt x="429" y="535" on="1"/>
        <pt x="351" y="535" on="0"/>
        <pt x="271" y="452" on="0"/>
        <pt x="271" y="376" on="1"/>
        <pt x="271" y="312" on="1"/>
        <pt x="271" y="236" on="0"/>
        <pt x="351" y="153" on="0"/>
        <pt x="429" y="153" on="1"/>
        <pt x="483" y="153" on="0"/>
        <pt x="559" y="204" on="0"/>
        <pt x="559" y="244" on="1"/>
        <pt x="403" y="244" on="1"/>
        <pt x="403" y="384" on="1"/>
        <pt x="770" y="384" on="1"/>
        <pt x="770" y="0" on="1"/>
        <pt x="656" y="0" on="1"/>
        <pt x="634" y="68" on="1"/>
        <pt x="540" y="-12" on="0"/>
        <pt x="388" y="-12" on="1"/>
        <pt x="217" y="-12" on="0"/>
        <pt x="45" y="167" on="0"/>
        <pt x="45" y="344" on="1"/>
        <pt x="45" y="519" on="0"/>
        <pt x="240" y="700" on="0"/>
        <pt x="420" y="700" on="1"/>
      </contour>
    </TTGlyph>
    <TTGlyph name="H" xMin="74" yMin="0" xMax="759" yMax="688">
      <contour>
        <pt x="538" y="0" on="1"/>
        <pt x="538" y="261" on="1"/>
        <pt x="295" y="261" on="1"/>
        <pt x="295" y="0" on="1"/>
        <pt x="74" y="0" on="1"/>
        <pt x="74" y="688" on="1"/>
        <pt x="295" y="688" on="1"/>
        <pt x="295" y="437" on="1"/>
        <pt x="538" y="437" on="1"/>
        <pt x="538" y="688" on="1"/>
        <pt x="759" y="688" on="1"/>
        <pt x="759" y="0" on="1"/>
      </contour>
    </TTGlyph>
    <TTGlyph name="Hbar" xMin="1" yMin="0" xMax="831" yMax="688">
      <contour>
        <pt x="759" y="0" on="1"/>
        <pt x="538" y="0" on="1"/>
        <pt x="538" y="251" on="1"/>
        <pt x="295" y="251" on="1"/>
        <pt x="295" y="0" on="1"/>
        <pt x="74" y="0" on="1"/>
        <pt x="74" y="502" on="1"/>
        <pt x="1" y="502" on="1"/>
        <pt x="1" y="600" on="1"/>
        <pt x="74" y="600" on="1"/>
        <pt x="74" y="688" on="1"/>
        <pt x="295" y="688" on="1"/>
        <pt x="295" y="600" on="1"/>
        <pt x="538" y="600" on="1"/>
        <pt x="538" y="688" on="1"/>
        <pt x="759" y="688" on="1"/>
        <pt x="759" y="600" on="1"/>
        <pt x="831" y="600" on="1"/>
        <pt x="831" y="502" on="1"/>
        <pt x="759" y="502" on="1"/>
      </contour>
      <contour>
        <pt x="538" y="502" on="1"/>
        <pt x="295" y="502" on="1"/>
        <pt x="295" y="427" on="1"/>
        <pt x="538" y="427" on="1"/>
      </contour>
    </TTGlyph>
    <TTGlyph name="Hcircumflex" xMin="74" yMin="0" xMax="759" yMax="885">
      <contour>
        <pt x="490" y="740" on="1"/>
        <pt x="416" y="817" on="1"/>
        <pt x="341" y="740" on="1"/>
        <pt x="213" y="740" on="1"/>
        <pt x="353" y="885" on="1"/>
        <pt x="480" y="885" on="1"/>
        <pt x="620" y="740" on="1"/>
      </contour>
      <contour>
        <pt x="538" y="0" on="1"/>
        <pt x="538" y="261" on="1"/>
        <pt x="295" y="261" on="1"/>
        <pt x="295" y="0" on="1"/>
        <pt x="74" y="0" on="1"/>
        <pt x="74" y="688" on="1"/>
        <pt x="295" y="688" on="1"/>
        <pt x="295" y="437" on="1"/>
        <pt x="538" y="437" on="1"/>
        <pt x="538" y="688" on="1"/>
        <pt x="759" y="688" on="1"/>
        <pt x="759" y="0" on="1"/>
      </contour>
    </TTGlyph>
    <TTGlyph name="I" xMin="84" yMin="0" xMax="305" yMax="688">
      <contour>
        <pt x="84" y="0" on="1"/>
        <pt x="84" y="688" on="1"/>
        <pt x="305" y="688" on="1"/>
        <pt x="305" y="0" on="1"/>
      </contour>
    </TTGlyph>
    <TTGlyph name="IJ" xMin="84" yMin="-12" xMax="954" yMax="688">
      <contour>
        <pt x="84" y="0" on="1"/>
        <pt x="84" y="688" on="1"/>
        <pt x="305" y="688" on="1"/>
        <pt x="305" y="0" on="1"/>
      </contour>
      <contour>
        <pt x="954" y="110" on="0"/>
        <pt x="807" y="-12" on="0"/>
        <pt x="669" y="-12" on="1"/>
        <pt x="531" y="-12" on="0"/>
        <pt x="384" y="110" on="0"/>
        <pt x="384" y="239" on="1"/>
        <pt x="384" y="248" on="1"/>
        <pt x="591" y="248" on="1"/>
        <pt x="591" y="240" on="1"/>
        <pt x="591" y="193" on="0"/>
        <pt x="626" y="153" on="0"/>
        <pt x="662" y="153" on="1"/>
        <pt x="698" y="153" on="0"/>
        <pt x="733" y="193" on="0"/>
        <pt x="733" y="240" on="1"/>
        <pt x="733" y="688" on="1"/>
        <pt x="954" y="688" on="1"/>
        <pt x="954" y="239" on="1"/>
      </contour>
    </TTGlyph>
    <TTGlyph name="Iacute" xMin="84" yMin="0" xMax="386" yMax="885">
      <contour>
        <pt x="99" y="752" on="1"/>
        <pt x="191" y="885" on="1"/>
        <pt x="384" y="885" on="1"/>
        <pt x="386" y="881" on="1"/>
        <pt x="226" y="752" on="1"/>
      </contour>
      <contour>
        <pt x="84" y="688" on="1"/>
        <pt x="305" y="688" on="1"/>
        <pt x="305" y="0" on="1"/>
        <pt x="84" y="0" on="1"/>
      </contour>
    </TTGlyph>
    <TTGlyph name="Ibreve" xMin="10" yMin="0" xMax="379" yMax="885">
      <contour>
        <pt x="379" y="851" on="0"/>
        <pt x="333" y="784" on="0"/>
        <pt x="248" y="741" on="0"/>
        <pt x="194" y="741" on="1"/>
        <pt x="139" y="741" on="0"/>
        <pt x="55" y="784" on="0"/>
        <pt x="10" y="851" on="0"/>
        <pt x="10" y="885" on="1"/>
        <pt x="106" y="885" on="1"/>
        <pt x="109" y="868" on="0"/>
        <pt x="160" y="835" on="0"/>
        <pt x="194" y="835" on="1"/>
        <pt x="229" y="835" on="0"/>
        <pt x="281" y="867" on="0"/>
        <pt x="284" y="885" on="1"/>
        <pt x="379" y="885" on="1"/>
      </contour>
      <contour>
        <pt x="84" y="0" on="1"/>
        <pt x="84" y="688" on="1"/>
        <pt x="305" y="688" on="1"/>
        <pt x="305" y="0" on="1"/>
      </contour>
    </TTGlyph>
    <TTGlyph name="Icircumflex" xMin="-8" yMin="0" xMax="398" yMax="885">
      <contour>
        <pt x="268" y="740" on="1"/>
        <pt x="194" y="817" on="1"/>
        <pt x="120" y="740" on="1"/>
        <pt x="-8" y="740" on="1"/>
        <pt x="131" y="885" on="1"/>
        <pt x="259" y="885" on="1"/>
        <pt x="398" y="740" on="1"/>
      </contour>
      <contour>
        <pt x="84" y="0" on="1"/>
        <pt x="84" y="688" on="1"/>
        <pt x="305" y="688" on="1"/>
        <pt x="305" y="0" on="1"/>
      </contour>
    </TTGlyph>
    <TTGlyph name="Idieresis" xMin="9" yMin="0" xMax="381" yMax="885">
      <contour>
        <pt x="9" y="746" on="1"/>
        <pt x="9" y="885" on="1"/>
        <pt x="161" y="885" on="1"/>
        <pt x="161" y="746" on="1"/>
      </contour>
      <contour>
        <pt x="229" y="746" on="1"/>
        <pt x="229" y="885" on="1"/>
        <pt x="381" y="885" on="1"/>
        <pt x="381" y="746" on="1"/>
      </contour>
      <contour>
        <pt x="84" y="0" on="1"/>
        <pt x="84" y="688" on="1"/>
        <pt x="305" y="688" on="1"/>
        <pt x="305" y="0" on="1"/>
      </contour>
    </TTGlyph>
    <TTGlyph name="Idotaccent" xMin="84" yMin="0" xMax="305" yMax="885">
      <contour>
        <pt x="119" y="746" on="1"/>
        <pt x="119" y="885" on="1"/>
        <pt x="271" y="885" on="1"/>
        <pt x="271" y="746" on="1"/>
      </contour>
      <contour>
        <pt x="84" y="0" on="1"/>
        <pt x="84" y="688" on="1"/>
        <pt x="305" y="688" on="1"/>
        <pt x="305" y="0" on="1"/>
      </contour>
    </TTGlyph>
    <TTGlyph name="Igrave" xMin="4" yMin="0" xMax="305" yMax="885">
      <contour>
        <pt x="4" y="881" on="1"/>
        <pt x="6" y="885" on="1"/>
        <pt x="199" y="885" on="1"/>
        <pt x="291" y="752" on="1"/>
        <pt x="164" y="752" on="1"/>
      </contour>
      <contour>
        <pt x="84" y="688" on="1"/>
        <pt x="305" y="688" on="1"/>
        <pt x="305" y="0" on="1"/>
        <pt x="84" y="0" on="1"/>
      </contour>
    </TTGlyph>
    <TTGlyph name="Imacron" xMin="37" yMin="0" xMax="353" yMax="865">
      <contour>
        <pt x="37" y="765" on="1"/>
        <pt x="37" y="865" on="1"/>
        <pt x="353" y="865" on="1"/>
        <pt x="353" y="765" on="1"/>
      </contour>
      <contour>
        <pt x="84" y="0" on="1"/>
        <pt x="84" y="688" on="1"/>
        <pt x="305" y="688" on="1"/>
        <pt x="305" y="0" on="1"/>
      </contour>
    </TTGlyph>
    <TTGlyph name="Iogonek" xMin="84" yMin="-211" xMax="385" yMax="688">
      <contour>
        <pt x="299" y="0" on="1"/>
        <pt x="283" y="-37" on="0"/>
        <pt x="283" y="-69" on="1"/>
        <pt x="283" y="-91" on="0"/>
        <pt x="312" y="-120" on="0"/>
        <pt x="343" y="-120" on="1"/>
        <pt x="385" y="-120" on="1"/>
        <pt x="385" y="-196" on="1"/>
        <pt x="339" y="-211" on="0"/>
        <pt x="289" y="-211" on="1"/>
        <pt x="236" y="-211" on="0"/>
        <pt x="163" y="-154" on="0"/>
        <pt x="163" y="-97" on="1"/>
        <pt x="163" y="-69" on="0"/>
        <pt x="184" y="-23" on="0"/>
        <pt x="203" y="0" on="1"/>
        <pt x="84" y="0" on="1"/>
        <pt x="84" y="688" on="1"/>
        <pt x="305" y="688" on="1"/>
        <pt x="305" y="0" on="1"/>
      </contour>
    </TTGlyph>
    <TTGlyph name="Itilde" xMin="-27" yMin="0" xMax="417" yMax="885">
      <contour>
        <pt x="417" y="849" on="0"/>
        <pt x="381" y="783" on="0"/>
        <pt x="317" y="742" on="0"/>
        <pt x="277" y="742" on="1"/>
        <pt x="255" y="742" on="0"/>
        <pt x="215" y="752" on="0"/>
        <pt x="183" y="763" on="1"/>
        <pt x="158" y="772" on="0"/>
        <pt x="122" y="782" on="0"/>
        <pt x="104" y="782" on="1"/>
        <pt x="86" y="782" on="0"/>
        <pt x="59" y="760" on="0"/>
        <pt x="54" y="742" on="1"/>
        <pt x="-27" y="742" on="1"/>
        <pt x="-27" y="778" on="0"/>
        <pt x="9" y="844" on="0"/>
        <pt x="73" y="885" on="0"/>
        <pt x="113" y="885" on="1"/>
        <pt x="135" y="885" on="0"/>
        <pt x="175" y="875" on="0"/>
        <pt x="207" y="864" on="1"/>
        <pt x="232" y="855" on="0"/>
        <pt x="268" y="845" on="0"/>
        <pt x="286" y="845" on="1"/>
        <pt x="304" y="845" on="0"/>
        <pt x="331" y="867" on="0"/>
        <pt x="336" y="885" on="1"/>
        <pt x="417" y="885" on="1"/>
      </contour>
      <contour>
        <pt x="84" y="0" on="1"/>
        <pt x="84" y="688" on="1"/>
        <pt x="305" y="688" on="1"/>
        <pt x="305" y="0" on="1"/>
      </contour>
    </TTGlyph>
    <TTGlyph name="J" xMin="23" yMin="-12" xMax="593" yMax="688">
      <contour>
        <pt x="593" y="110" on="0"/>
        <pt x="446" y="-12" on="0"/>
        <pt x="308" y="-12" on="1"/>
        <pt x="170" y="-12" on="0"/>
        <pt x="23" y="110" on="0"/>
        <pt x="23" y="239" on="1"/>
        <pt x="23" y="248" on="1"/>
        <pt x="230" y="248" on="1"/>
        <pt x="230" y="240" on="1"/>
        <pt x="230" y="193" on="0"/>
        <pt x="265" y="153" on="0"/>
        <pt x="301" y="153" on="1"/>
        <pt x="337" y="153" on="0"/>
        <pt x="372" y="193" on="0"/>
        <pt x="372" y="240" on="1"/>
        <pt x="372" y="688" on="1"/>
        <pt x="593" y="688" on="1"/>
        <pt x="593" y="239" on="1"/>
      </contour>
    </TTGlyph>
    <TTGlyph name="Jcircumflex" xMin="23" yMin="-12" xMax="675" yMax="885">
      <contour>
        <pt x="545" y="740" on="1"/>
        <pt x="471" y="817" on="1"/>
        <pt x="396" y="740" on="1"/>
        <pt x="269" y="740" on="1"/>
        <pt x="408" y="885" on="1"/>
        <pt x="536" y="885" on="1"/>
        <pt x="675" y="740" on="1"/>
      </contour>
      <contour>
        <pt x="593" y="110" on="0"/>
        <pt x="446" y="-12" on="0"/>
        <pt x="308" y="-12" on="1"/>
        <pt x="170" y="-12" on="0"/>
        <pt x="23" y="110" on="0"/>
        <pt x="23" y="239" on="1"/>
        <pt x="23" y="248" on="1"/>
        <pt x="230" y="248" on="1"/>
        <pt x="230" y="240" on="1"/>
        <pt x="230" y="193" on="0"/>
        <pt x="265" y="153" on="0"/>
        <pt x="301" y="153" on="1"/>
        <pt x="337" y="153" on="0"/>
        <pt x="372" y="193" on="0"/>
        <pt x="372" y="240" on="1"/>
        <pt x="372" y="688" on="1"/>
        <pt x="593" y="688" on="1"/>
        <pt x="593" y="239" on="1"/>
      </contour>
    </TTGlyph>
    <TTGlyph name="K" xMin="74" yMin="0" xMax="819" yMax="688">
      <contour>
        <pt x="540" y="688" on="1"/>
        <pt x="814" y="688" on="1"/>
        <pt x="567" y="405" on="1"/>
        <pt x="819" y="0" on="1"/>
        <pt x="558" y="0" on="1"/>
        <pt x="415" y="252" on="1"/>
        <pt x="295" y="154" on="1"/>
        <pt x="295" y="0" on="1"/>
        <pt x="74" y="0" on="1"/>
        <pt x="74" y="688" on="1"/>
        <pt x="295" y="688" on="1"/>
        <pt x="295" y="394" on="1"/>
      </contour>
    </TTGlyph>
    <TTGlyph name="Kcommaaccent" xMin="74" yMin="-267" xMax="819" yMax="688">
      <contour>
        <pt x="540" y="688" on="1"/>
        <pt x="814" y="688" on="1"/>
        <pt x="567" y="405" on="1"/>
        <pt x="819" y="0" on="1"/>
        <pt x="558" y="0" on="1"/>
        <pt x="415" y="252" on="1"/>
        <pt x="295" y="154" on="1"/>
        <pt x="295" y="0" on="1"/>
        <pt x="74" y="0" on="1"/>
        <pt x="74" y="688" on="1"/>
        <pt x="295" y="688" on="1"/>
        <pt x="295" y="394" on="1"/>
      </contour>
      <contour>
        <pt x="427" y="-267" on="1"/>
        <pt x="360" y="-267" on="1"/>
        <pt x="401" y="-175" on="1"/>
        <pt x="352" y="-175" on="1"/>
        <pt x="352" y="-59" on="1"/>
        <pt x="481" y="-59" on="1"/>
        <pt x="481" y="-168" on="1"/>
      </contour>
    </TTGlyph>
    <TTGlyph name="L" xMin="74" yMin="0" xMax="648" yMax="688">
      <contour>
        <pt x="74" y="688" on="1"/>
        <pt x="295" y="688" on="1"/>
        <pt x="295" y="176" on="1"/>
        <pt x="648" y="176" on="1"/>
        <pt x="648" y="0" on="1"/>
        <pt x="74" y="0" on="1"/>
      </contour>
    </TTGlyph>
    <TTGlyph name="Lacute" xMin="74" yMin="0" xMax="648" yMax="885">
      <contour>
        <pt x="88" y="752" on="1"/>
        <pt x="180" y="885" on="1"/>
        <pt x="373" y="885" on="1"/>
        <pt x="375" y="881" on="1"/>
        <pt x="215" y="752" on="1"/>
      </contour>
      <contour>
        <pt x="74" y="688" on="1"/>
        <pt x="295" y="688" on="1"/>
        <pt x="295" y="176" on="1"/>
        <pt x="648" y="176" on="1"/>
        <pt x="648" y="0" on="1"/>
        <pt x="74" y="0" on="1"/>
      </contour>
    </TTGlyph>
    <TTGlyph name="Lcaron" xMin="74" yMin="0" xMax="648" yMax="688">
      <contour>
        <pt x="74" y="688" on="1"/>
        <pt x="295" y="688" on="1"/>
        <pt x="295" y="176" on="1"/>
        <pt x="648" y="176" on="1"/>
        <pt x="648" y="0" on="1"/>
        <pt x="74" y="0" on="1"/>
      </contour>
      <contour>
        <pt x="571" y="480" on="1"/>
        <pt x="504" y="480" on="1"/>
        <pt x="545" y="572" on="1"/>
        <pt x="496" y="572" on="1"/>
        <pt x="496" y="688" on="1"/>
        <pt x="625" y="688" on="1"/>
        <pt x="625" y="579" on="1"/>
      </contour>
    </TTGlyph>
    <TTGlyph name="Lcommaaccent" xMin="74" yMin="-267" xMax="648" yMax="688">
      <contour>
        <pt x="74" y="688" on="1"/>
        <pt x="295" y="688" on="1"/>
        <pt x="295" y="176" on="1"/>
        <pt x="648" y="176" on="1"/>
        <pt x="648" y="0" on="1"/>
        <pt x="74" y="0" on="1"/>
      </contour>
      <contour>
        <pt x="344" y="-267" on="1"/>
        <pt x="277" y="-267" on="1"/>
        <pt x="318" y="-175" on="1"/>
        <pt x="269" y="-175" on="1"/>
        <pt x="269" y="-59" on="1"/>
        <pt x="398" y="-59" on="1"/>
        <pt x="398" y="-168" on="1"/>
      </contour>
    </TTGlyph>
    <TTGlyph name="Ldot" xMin="74" yMin="0" xMax="648" yMax="688">
      <contour>
        <pt x="74" y="688" on="1"/>
        <pt x="295" y="688" on="1"/>
        <pt x="295" y="176" on="1"/>
        <pt x="648" y="176" on="1"/>
        <pt x="648" y="0" on="1"/>
        <pt x="74" y="0" on="1"/>
      </contour>
      <contour>
        <pt x="388" y="343" on="1"/>
        <pt x="388" y="526" on="1"/>
        <pt x="580" y="526" on="1"/>
        <pt x="580" y="343" on="1"/>
      </contour>
    </TTGlyph>
    <TTGlyph name="Lslash" xMin="0" yMin="0" xMax="648" yMax="688">
      <contour>
        <pt x="444" y="556" on="1"/>
        <pt x="444" y="456" on="1"/>
        <pt x="295" y="364" on="1"/>
        <pt x="295" y="176" on="1"/>
        <pt x="648" y="176" on="1"/>
        <pt x="648" y="0" on="1"/>
        <pt x="74" y="0" on="1"/>
        <pt x="74" y="229" on="1"/>
        <pt x="0" y="184" on="1"/>
        <pt x="0" y="282" on="1"/>
        <pt x="74" y="328" on="1"/>
        <pt x="74" y="688" on="1"/>
        <pt x="295" y="688" on="1"/>
        <pt x="295" y="463" on="1"/>
      </contour>
    </TTGlyph>
    <TTGlyph name="M" xMin="60" yMin="0" xMax="884" yMax="688">
      <contour>
        <pt x="665" y="0" on="1"/>
        <pt x="665" y="248" on="1"/>
        <pt x="665" y="294" on="0"/>
        <pt x="672" y="391" on="0"/>
        <pt x="680" y="457" on="0"/>
        <pt x="681" y="466" on="1"/>
        <pt x="677" y="466" on="1"/>
        <pt x="550" y="0" on="1"/>
        <pt x="377" y="0" on="1"/>
        <pt x="249" y="465" on="1"/>
        <pt x="245" y="465" on="1"/>
        <pt x="246" y="456" on="0"/>
        <pt x="255" y="391" on="0"/>
        <pt x="263" y="294" on="0"/>
        <pt x="263" y="248" on="1"/>
        <pt x="263" y="0" on="1"/>
        <pt x="60" y="0" on="1"/>
        <pt x="60" y="688" on="1"/>
        <pt x="372" y="688" on="1"/>
        <pt x="476" y="291" on="1"/>
        <pt x="480" y="291" on="1"/>
        <pt x="583" y="688" on="1"/>
        <pt x="884" y="688" on="1"/>
        <pt x="884" y="0" on="1"/>
      </contour>
    </TTGlyph>
    <TTGlyph name="N" xMin="74" yMin="0" xMax="759" yMax="688">
      <contour>
        <pt x="566" y="0" on="1"/>
        <pt x="277" y="334" on="1"/>
        <pt x="277" y="0" on="1"/>
        <pt x="74" y="0" on="1"/>
        <pt x="74" y="688" on="1"/>
        <pt x="267" y="688" on="1"/>
        <pt x="556" y="349" on="1"/>
        <pt x="556" y="688" on="1"/>
        <pt x="759" y="688" on="1"/>
        <pt x="759" y="0" on="1"/>
      </contour>
    </TTGlyph>
    <TTGlyph name="Nacute" xMin="74" yMin="0" xMax="759" yMax="885">
      <contour>
        <pt x="320" y="752" on="1"/>
        <pt x="413" y="885" on="1"/>
        <pt x="605" y="885" on="1"/>
        <pt x="607" y="881" on="1"/>
        <pt x="448" y="752" on="1"/>
      </contour>
      <contour>
        <pt x="277" y="334" on="1"/>
        <pt x="277" y="0" on="1"/>
        <pt x="74" y="0" on="1"/>
        <pt x="74" y="688" on="1"/>
        <pt x="267" y="688" on="1"/>
        <pt x="556" y="349" on="1"/>
        <pt x="556" y="688" on="1"/>
        <pt x="759" y="688" on="1"/>
        <pt x="759" y="0" on="1"/>
        <pt x="566" y="0" on="1"/>
      </contour>
    </TTGlyph>
    <TTGlyph name="Ncaron" xMin="74" yMin="0" xMax="759" yMax="885">
      <contour>
        <pt x="353" y="740" on="1"/>
        <pt x="213" y="885" on="1"/>
        <pt x="341" y="885" on="1"/>
        <pt x="416" y="808" on="1"/>
        <pt x="490" y="885" on="1"/>
        <pt x="620" y="885" on="1"/>
        <pt x="480" y="740" on="1"/>
      </contour>
      <contour>
        <pt x="566" y="0" on="1"/>
        <pt x="277" y="334" on="1"/>
        <pt x="277" y="0" on="1"/>
        <pt x="74" y="0" on="1"/>
        <pt x="74" y="688" on="1"/>
        <pt x="267" y="688" on="1"/>
        <pt x="556" y="349" on="1"/>
        <pt x="556" y="688" on="1"/>
        <pt x="759" y="688" on="1"/>
        <pt x="759" y="0" on="1"/>
      </contour>
    </TTGlyph>
    <TTGlyph name="Ncommaaccent" xMin="74" yMin="-267" xMax="759" yMax="688">
      <contour>
        <pt x="566" y="0" on="1"/>
        <pt x="277" y="334" on="1"/>
        <pt x="277" y="0" on="1"/>
        <pt x="74" y="0" on="1"/>
        <pt x="74" y="688" on="1"/>
        <pt x="267" y="688" on="1"/>
        <pt x="556" y="349" on="1"/>
        <pt x="556" y="688" on="1"/>
        <pt x="759" y="688" on="1"/>
        <pt x="759" y="0" on="1"/>
      </contour>
      <contour>
        <pt x="427" y="-267" on="1"/>
        <pt x="360" y="-267" on="1"/>
        <pt x="401" y="-175" on="1"/>
        <pt x="352" y="-175" on="1"/>
        <pt x="352" y="-59" on="1"/>
        <pt x="481" y="-59" on="1"/>
        <pt x="481" y="-168" on="1"/>
      </contour>
    </TTGlyph>
    <TTGlyph name="Ntilde" xMin="74" yMin="0" xMax="759" yMax="885">
      <contour>
        <pt x="639" y="849" on="0"/>
        <pt x="603" y="783" on="0"/>
        <pt x="539" y="742" on="0"/>
        <pt x="499" y="742" on="1"/>
        <pt x="477" y="742" on="0"/>
        <pt x="436" y="752" on="0"/>
        <pt x="404" y="763" on="1"/>
        <pt x="379" y="772" on="0"/>
        <pt x="343" y="782" on="0"/>
        <pt x="326" y="782" on="1"/>
        <pt x="307" y="782" on="0"/>
        <pt x="281" y="760" on="0"/>
        <pt x="275" y="742" on="1"/>
        <pt x="194" y="742" on="1"/>
        <pt x="194" y="778" on="0"/>
        <pt x="230" y="844" on="0"/>
        <pt x="294" y="885" on="0"/>
        <pt x="334" y="885" on="1"/>
        <pt x="356" y="885" on="0"/>
        <pt x="397" y="875" on="0"/>
        <pt x="429" y="864" on="1"/>
        <pt x="454" y="855" on="0"/>
        <pt x="490" y="845" on="0"/>
        <pt x="507" y="845" on="1"/>
        <pt x="526" y="845" on="0"/>
        <pt x="552" y="867" on="0"/>
        <pt x="558" y="885" on="1"/>
        <pt x="639" y="885" on="1"/>
      </contour>
      <contour>
        <pt x="566" y="0" on="1"/>
        <pt x="277" y="334" on="1"/>
        <pt x="277" y="0" on="1"/>
        <pt x="74" y="0" on="1"/>
        <pt x="74" y="688" on="1"/>
        <pt x="267" y="688" on="1"/>
        <pt x="556" y="349" on="1"/>
        <pt x="556" y="688" on="1"/>
        <pt x="759" y="688" on="1"/>
        <pt x="759" y="0" on="1"/>
      </contour>
    </TTGlyph>
    <TTGlyph name="O" xMin="45" yMin="-12" xMax="788" yMax="700">
      <contour>
        <pt x="594" y="700" on="0"/>
        <pt x="788" y="518" on="0"/>
        <pt x="788" y="344" on="1"/>
        <pt x="788" y="170" on="0"/>
        <pt x="594" y="-12" on="0"/>
        <pt x="416" y="-12" on="1"/>
        <pt x="238" y="-12" on="0"/>
        <pt x="45" y="169" on="0"/>
        <pt x="45" y="344" on="1"/>
        <pt x="45" y="519" on="0"/>
        <pt x="238" y="700" on="0"/>
        <pt x="416" y="700" on="1"/>
      </contour>
      <contour>
        <pt x="345" y="535" on="0"/>
        <pt x="271" y="449" on="0"/>
        <pt x="271" y="376" on="1"/>
        <pt x="271" y="312" on="1"/>
        <pt x="271" y="239" on="0"/>
        <pt x="345" y="153" on="0"/>
        <pt x="416" y="153" on="1"/>
        <pt x="487" y="153" on="0"/>
        <pt x="562" y="239" on="0"/>
        <pt x="562" y="312" on="1"/>
        <pt x="562" y="376" on="1"/>
        <pt x="562" y="449" on="0"/>
        <pt x="487" y="535" on="0"/>
        <pt x="416" y="535" on="1"/>
      </contour>
    </TTGlyph>
    <TTGlyph name="OE" xMin="35" yMin="-12" xMax="973" yMax="700">
      <contour>
        <pt x="495" y="62" on="1"/>
        <pt x="424" y="-12" on="0"/>
        <pt x="309" y="-12" on="1"/>
        <pt x="178" y="-12" on="0"/>
        <pt x="35" y="175" on="0"/>
        <pt x="35" y="344" on="1"/>
        <pt x="35" y="513" on="0"/>
        <pt x="178" y="700" on="0"/>
        <pt x="309" y="700" on="1"/>
        <pt x="425" y="700" on="0"/>
        <pt x="495" y="625" on="1"/>
        <pt x="495" y="688" on="1"/>
        <pt x="966" y="688" on="1"/>
        <pt x="966" y="523" on="1"/>
        <pt x="689" y="523" on="1"/>
        <pt x="689" y="428" on="1"/>
        <pt x="912" y="428" on="1"/>
        <pt x="912" y="270" on="1"/>
        <pt x="689" y="270" on="1"/>
        <pt x="689" y="165" on="1"/>
        <pt x="973" y="165" on="1"/>
        <pt x="973" y="0" on="1"/>
        <pt x="495" y="0" on="1"/>
      </contour>
      <contour>
        <pt x="496" y="449" on="0"/>
        <pt x="432" y="535" on="0"/>
        <pt x="370" y="535" on="1"/>
        <pt x="308" y="535" on="0"/>
        <pt x="244" y="449" on="0"/>
        <pt x="244" y="376" on="1"/>
        <pt x="244" y="312" on="1"/>
        <pt x="244" y="239" on="0"/>
        <pt x="308" y="153" on="0"/>
        <pt x="370" y="153" on="1"/>
        <pt x="432" y="153" on="0"/>
        <pt x="496" y="239" on="0"/>
        <pt x="496" y="312" on="1"/>
        <pt x="496" y="376" on="1"/>
      </contour>
    </TTGlyph>
    <TTGlyph name="Oacute" xMin="45" yMin="-12" xMax="788" yMax="885">
      <contour>
        <pt x="320" y="752" on="1"/>
        <pt x="413" y="885" on="1"/>
        <pt x="605" y="885" on="1"/>
        <pt x="607" y="881" on="1"/>
        <pt x="448" y="752" on="1"/>
      </contour>
      <contour>
        <pt x="594" y="700" on="0"/>
        <pt x="788" y="518" on="0"/>
        <pt x="788" y="344" on="1"/>
        <pt x="788" y="170" on="0"/>
        <pt x="594" y="-12" on="0"/>
        <pt x="416" y="-12" on="1"/>
        <pt x="238" y="-12" on="0"/>
        <pt x="45" y="169" on="0"/>
        <pt x="45" y="344" on="1"/>
        <pt x="45" y="519" on="0"/>
        <pt x="238" y="700" on="0"/>
        <pt x="416" y="700" on="1"/>
      </contour>
      <contour>
        <pt x="345" y="535" on="0"/>
        <pt x="271" y="449" on="0"/>
        <pt x="271" y="376" on="1"/>
        <pt x="271" y="312" on="1"/>
        <pt x="271" y="239" on="0"/>
        <pt x="345" y="153" on="0"/>
        <pt x="416" y="153" on="1"/>
        <pt x="487" y="153" on="0"/>
        <pt x="562" y="239" on="0"/>
        <pt x="562" y="312" on="1"/>
        <pt x="562" y="376" on="1"/>
        <pt x="562" y="449" on="0"/>
        <pt x="487" y="535" on="0"/>
        <pt x="416" y="535" on="1"/>
      </contour>
    </TTGlyph>
    <TTGlyph name="Obreve" xMin="45" yMin="-12" xMax="788" yMax="885">
      <contour>
        <pt x="601" y="851" on="0"/>
        <pt x="555" y="784" on="0"/>
        <pt x="470" y="741" on="0"/>
        <pt x="416" y="741" on="1"/>
        <pt x="361" y="741" on="0"/>
        <pt x="277" y="784" on="0"/>
        <pt x="232" y="851" on="0"/>
        <pt x="232" y="885" on="1"/>
        <pt x="328" y="885" on="1"/>
        <pt x="331" y="867" on="0"/>
        <pt x="382" y="835" on="0"/>
        <pt x="416" y="835" on="1"/>
        <pt x="451" y="835" on="0"/>
        <pt x="503" y="867" on="0"/>
        <pt x="506" y="885" on="1"/>
        <pt x="601" y="885" on="1"/>
      </contour>
      <contour>
        <pt x="594" y="700" on="0"/>
        <pt x="788" y="518" on="0"/>
        <pt x="788" y="344" on="1"/>
        <pt x="788" y="170" on="0"/>
        <pt x="594" y="-12" on="0"/>
        <pt x="416" y="-12" on="1"/>
        <pt x="238" y="-12" on="0"/>
        <pt x="45" y="169" on="0"/>
        <pt x="45" y="344" on="1"/>
        <pt x="45" y="519" on="0"/>
        <pt x="238" y="700" on="0"/>
        <pt x="416" y="700" on="1"/>
      </contour>
      <contour>
        <pt x="345" y="535" on="0"/>
        <pt x="271" y="449" on="0"/>
        <pt x="271" y="376" on="1"/>
        <pt x="271" y="312" on="1"/>
        <pt x="271" y="239" on="0"/>
        <pt x="345" y="153" on="0"/>
        <pt x="416" y="153" on="1"/>
        <pt x="487" y="153" on="0"/>
        <pt x="562" y="239" on="0"/>
        <pt x="562" y="312" on="1"/>
        <pt x="562" y="376" on="1"/>
        <pt x="562" y="449" on="0"/>
        <pt x="487" y="535" on="0"/>
        <pt x="416" y="535" on="1"/>
      </contour>
    </TTGlyph>
    <TTGlyph name="Ocircumflex" xMin="45" yMin="-12" xMax="788" yMax="885">
      <contour>
        <pt x="490" y="740" on="1"/>
        <pt x="416" y="817" on="1"/>
        <pt x="341" y="740" on="1"/>
        <pt x="213" y="740" on="1"/>
        <pt x="353" y="885" on="1"/>
        <pt x="480" y="885" on="1"/>
        <pt x="620" y="740" on="1"/>
      </contour>
      <contour>
        <pt x="594" y="700" on="0"/>
        <pt x="788" y="518" on="0"/>
        <pt x="788" y="344" on="1"/>
        <pt x="788" y="170" on="0"/>
        <pt x="594" y="-12" on="0"/>
        <pt x="416" y="-12" on="1"/>
        <pt x="238" y="-12" on="0"/>
        <pt x="45" y="169" on="0"/>
        <pt x="45" y="344" on="1"/>
        <pt x="45" y="519" on="0"/>
        <pt x="238" y="700" on="0"/>
        <pt x="416" y="700" on="1"/>
      </contour>
      <contour>
        <pt x="345" y="535" on="0"/>
        <pt x="271" y="449" on="0"/>
        <pt x="271" y="376" on="1"/>
        <pt x="271" y="312" on="1"/>
        <pt x="271" y="239" on="0"/>
        <pt x="345" y="153" on="0"/>
        <pt x="416" y="153" on="1"/>
        <pt x="487" y="153" on="0"/>
        <pt x="562" y="239" on="0"/>
        <pt x="562" y="312" on="1"/>
        <pt x="562" y="376" on="1"/>
        <pt x="562" y="449" on="0"/>
        <pt x="487" y="535" on="0"/>
        <pt x="416" y="535" on="1"/>
      </contour>
    </TTGlyph>
    <TTGlyph name="Odieresis" xMin="45" yMin="-12" xMax="788" yMax="885">
      <contour>
        <pt x="230" y="746" on="1"/>
        <pt x="230" y="885" on="1"/>
        <pt x="382" y="885" on="1"/>
        <pt x="382" y="746" on="1"/>
      </contour>
      <contour>
        <pt x="451" y="746" on="1"/>
        <pt x="451" y="885" on="1"/>
        <pt x="603" y="885" on="1"/>
        <pt x="603" y="746" on="1"/>
      </contour>
      <contour>
        <pt x="594" y="700" on="0"/>
        <pt x="788" y="518" on="0"/>
        <pt x="788" y="344" on="1"/>
        <pt x="788" y="170" on="0"/>
        <pt x="594" y="-12" on="0"/>
        <pt x="416" y="-12" on="1"/>
        <pt x="238" y="-12" on="0"/>
        <pt x="45" y="169" on="0"/>
        <pt x="45" y="344" on="1"/>
        <pt x="45" y="519" on="0"/>
        <pt x="238" y="700" on="0"/>
        <pt x="416" y="700" on="1"/>
      </contour>
      <contour>
        <pt x="345" y="535" on="0"/>
        <pt x="271" y="449" on="0"/>
        <pt x="271" y="376" on="1"/>
        <pt x="271" y="312" on="1"/>
        <pt x="271" y="239" on="0"/>
        <pt x="345" y="153" on="0"/>
        <pt x="416" y="153" on="1"/>
        <pt x="487" y="153" on="0"/>
        <pt x="562" y="239" on="0"/>
        <pt x="562" y="312" on="1"/>
        <pt x="562" y="376" on="1"/>
        <pt x="562" y="449" on="0"/>
        <pt x="487" y="535" on="0"/>
        <pt x="416" y="535" on="1"/>
      </contour>
    </TTGlyph>
    <TTGlyph name="Ograve" xMin="45" yMin="-12" xMax="788" yMax="885">
      <contour>
        <pt x="226" y="881" on="1"/>
        <pt x="228" y="885" on="1"/>
        <pt x="420" y="885" on="1"/>
        <pt x="513" y="752" on="1"/>
        <pt x="386" y="752" on="1"/>
      </contour>
      <contour>
        <pt x="594" y="700" on="0"/>
        <pt x="788" y="518" on="0"/>
        <pt x="788" y="344" on="1"/>
        <pt x="788" y="170" on="0"/>
        <pt x="594" y="-12" on="0"/>
        <pt x="416" y="-12" on="1"/>
        <pt x="238" y="-12" on="0"/>
        <pt x="45" y="169" on="0"/>
        <pt x="45" y="344" on="1"/>
        <pt x="45" y="519" on="0"/>
        <pt x="238" y="700" on="0"/>
        <pt x="416" y="700" on="1"/>
      </contour>
      <contour>
        <pt x="345" y="535" on="0"/>
        <pt x="271" y="449" on="0"/>
        <pt x="271" y="376" on="1"/>
        <pt x="271" y="312" on="1"/>
        <pt x="271" y="239" on="0"/>
        <pt x="345" y="153" on="0"/>
        <pt x="416" y="153" on="1"/>
        <pt x="487" y="153" on="0"/>
        <pt x="562" y="239" on="0"/>
        <pt x="562" y="312" on="1"/>
        <pt x="562" y="376" on="1"/>
        <pt x="562" y="449" on="0"/>
        <pt x="487" y="535" on="0"/>
        <pt x="416" y="535" on="1"/>
      </contour>
    </TTGlyph>
    <TTGlyph name="Ohungarumlaut" xMin="45" yMin="-12" xMax="788" yMax="886">
      <contour>
        <pt x="363" y="752" on="1"/>
        <pt x="246" y="752" on="1"/>
        <pt x="322" y="886" on="1"/>
        <pt x="500" y="886" on="1"/>
        <pt x="502" y="882" on="1"/>
      </contour>
      <contour>
        <pt x="574" y="752" on="1"/>
        <pt x="457" y="752" on="1"/>
        <pt x="533" y="886" on="1"/>
        <pt x="711" y="886" on="1"/>
        <pt x="713" y="882" on="1"/>
      </contour>
      <contour>
        <pt x="594" y="700" on="0"/>
        <pt x="788" y="518" on="0"/>
        <pt x="788" y="344" on="1"/>
        <pt x="788" y="170" on="0"/>
        <pt x="594" y="-12" on="0"/>
        <pt x="416" y="-12" on="1"/>
        <pt x="238" y="-12" on="0"/>
        <pt x="45" y="169" on="0"/>
        <pt x="45" y="344" on="1"/>
        <pt x="45" y="519" on="0"/>
        <pt x="238" y="700" on="0"/>
        <pt x="416" y="700" on="1"/>
      </contour>
      <contour>
        <pt x="345" y="535" on="0"/>
        <pt x="271" y="449" on="0"/>
        <pt x="271" y="376" on="1"/>
        <pt x="271" y="312" on="1"/>
        <pt x="271" y="239" on="0"/>
        <pt x="345" y="153" on="0"/>
        <pt x="416" y="153" on="1"/>
        <pt x="487" y="153" on="0"/>
        <pt x="562" y="239" on="0"/>
        <pt x="562" y="312" on="1"/>
        <pt x="562" y="376" on="1"/>
        <pt x="562" y="449" on="0"/>
        <pt x="487" y="535" on="0"/>
        <pt x="416" y="535" on="1"/>
      </contour>
    </TTGlyph>
    <TTGlyph name="Omacron" xMin="45" yMin="-12" xMax="788" yMax="865">
      <contour>
        <pt x="258" y="765" on="1"/>
        <pt x="258" y="865" on="1"/>
        <pt x="575" y="865" on="1"/>
        <pt x="575" y="765" on="1"/>
      </contour>
      <contour>
        <pt x="594" y="700" on="0"/>
        <pt x="788" y="518" on="0"/>
        <pt x="788" y="344" on="1"/>
        <pt x="788" y="170" on="0"/>
        <pt x="594" y="-12" on="0"/>
        <pt x="416" y="-12" on="1"/>
        <pt x="238" y="-12" on="0"/>
        <pt x="45" y="169" on="0"/>
        <pt x="45" y="344" on="1"/>
        <pt x="45" y="519" on="0"/>
        <pt x="238" y="700" on="0"/>
        <pt x="416" y="700" on="1"/>
      </contour>
      <contour>
        <pt x="345" y="535" on="0"/>
        <pt x="271" y="449" on="0"/>
        <pt x="271" y="376" on="1"/>
        <pt x="271" y="312" on="1"/>
        <pt x="271" y="239" on="0"/>
        <pt x="345" y="153" on="0"/>
        <pt x="416" y="153" on="1"/>
        <pt x="487" y="153" on="0"/>
        <pt x="562" y="239" on="0"/>
        <pt x="562" y="312" on="1"/>
        <pt x="562" y="376" on="1"/>
        <pt x="562" y="449" on="0"/>
        <pt x="487" y="535" on="0"/>
        <pt x="416" y="535" on="1"/>
      </contour>
    </TTGlyph>
    <TTGlyph name="Oslash" xMin="45" yMin="-36" xMax="788" yMax="725">
      <contour>
        <pt x="788" y="522" on="0"/>
        <pt x="788" y="344" on="1"/>
        <pt x="788" y="170" on="0"/>
        <pt x="594" y="-12" on="0"/>
        <pt x="416" y="-12" on="1"/>
        <pt x="295" y="-12" on="0"/>
        <pt x="214" y="28" on="1"/>
        <pt x="162" y="-36" on="1"/>
        <pt x="54" y="-36" on="1"/>
        <pt x="144" y="76" on="1"/>
        <pt x="45" y="167" on="0"/>
        <pt x="45" y="344" on="1"/>
        <pt x="45" y="519" on="0"/>
        <pt x="238" y="700" on="0"/>
        <pt x="416" y="700" on="1"/>
        <pt x="533" y="700" on="0"/>
        <pt x="618" y="659" on="1"/>
        <pt x="671" y="725" on="1"/>
        <pt x="779" y="725" on="1"/>
        <pt x="687" y="612" on="1"/>
      </contour>
      <contour>
        <pt x="345" y="535" on="0"/>
        <pt x="271" y="449" on="0"/>
        <pt x="271" y="376" on="1"/>
        <pt x="271" y="312" on="1"/>
        <pt x="271" y="273" on="0"/>
        <pt x="281" y="244" on="1"/>
        <pt x="499" y="513" on="1"/>
        <pt x="464" y="535" on="0"/>
        <pt x="416" y="535" on="1"/>
      </contour>
      <contour>
        <pt x="368" y="153" on="0"/>
        <pt x="416" y="153" on="1"/>
        <pt x="487" y="153" on="0"/>
        <pt x="562" y="239" on="0"/>
        <pt x="562" y="312" on="1"/>
        <pt x="562" y="376" on="1"/>
        <pt x="562" y="413" on="0"/>
        <pt x="551" y="444" on="1"/>
        <pt x="333" y="175" on="1"/>
      </contour>
    </TTGlyph>
    <TTGlyph name="Oslashacute" xMin="45" yMin="-36" xMax="788" yMax="885">
      <contour>
        <pt x="320" y="752" on="1"/>
        <pt x="413" y="885" on="1"/>
        <pt x="605" y="885" on="1"/>
        <pt x="607" y="881" on="1"/>
        <pt x="448" y="752" on="1"/>
      </contour>
      <contour>
        <pt x="788" y="522" on="0"/>
        <pt x="788" y="344" on="1"/>
        <pt x="788" y="170" on="0"/>
        <pt x="594" y="-12" on="0"/>
        <pt x="416" y="-12" on="1"/>
        <pt x="295" y="-12" on="0"/>
        <pt x="214" y="28" on="1"/>
        <pt x="162" y="-36" on="1"/>
        <pt x="54" y="-36" on="1"/>
        <pt x="144" y="76" on="1"/>
        <pt x="45" y="167" on="0"/>
        <pt x="45" y="344" on="1"/>
        <pt x="45" y="519" on="0"/>
        <pt x="238" y="700" on="0"/>
        <pt x="416" y="700" on="1"/>
        <pt x="533" y="700" on="0"/>
        <pt x="618" y="659" on="1"/>
        <pt x="671" y="725" on="1"/>
        <pt x="779" y="725" on="1"/>
        <pt x="687" y="612" on="1"/>
      </contour>
      <contour>
        <pt x="345" y="535" on="0"/>
        <pt x="271" y="449" on="0"/>
        <pt x="271" y="376" on="1"/>
        <pt x="271" y="312" on="1"/>
        <pt x="271" y="273" on="0"/>
        <pt x="281" y="244" on="1"/>
        <pt x="499" y="513" on="1"/>
        <pt x="464" y="535" on="0"/>
        <pt x="416" y="535" on="1"/>
      </contour>
      <contour>
        <pt x="368" y="153" on="0"/>
        <pt x="416" y="153" on="1"/>
        <pt x="487" y="153" on="0"/>
        <pt x="562" y="239" on="0"/>
        <pt x="562" y="312" on="1"/>
        <pt x="562" y="376" on="1"/>
        <pt x="562" y="413" on="0"/>
        <pt x="551" y="444" on="1"/>
        <pt x="333" y="175" on="1"/>
      </contour>
    </TTGlyph>
    <TTGlyph name="Otilde" xMin="45" yMin="-12" xMax="788" yMax="885">
      <contour>
        <pt x="639" y="849" on="0"/>
        <pt x="603" y="783" on="0"/>
        <pt x="539" y="742" on="0"/>
        <pt x="499" y="742" on="1"/>
        <pt x="477" y="742" on="0"/>
        <pt x="436" y="752" on="0"/>
        <pt x="404" y="763" on="1"/>
        <pt x="379" y="772" on="0"/>
        <pt x="343" y="782" on="0"/>
        <pt x="326" y="782" on="1"/>
        <pt x="307" y="782" on="0"/>
        <pt x="281" y="760" on="0"/>
        <pt x="275" y="742" on="1"/>
        <pt x="194" y="742" on="1"/>
        <pt x="194" y="778" on="0"/>
        <pt x="230" y="844" on="0"/>
        <pt x="294" y="885" on="0"/>
        <pt x="334" y="885" on="1"/>
        <pt x="356" y="885" on="0"/>
        <pt x="397" y="875" on="0"/>
        <pt x="429" y="864" on="1"/>
        <pt x="454" y="855" on="0"/>
        <pt x="490" y="845" on="0"/>
        <pt x="507" y="845" on="1"/>
        <pt x="526" y="845" on="0"/>
        <pt x="552" y="867" on="0"/>
        <pt x="558" y="885" on="1"/>
        <pt x="639" y="885" on="1"/>
      </contour>
      <contour>
        <pt x="594" y="700" on="0"/>
        <pt x="788" y="518" on="0"/>
        <pt x="788" y="344" on="1"/>
        <pt x="788" y="170" on="0"/>
        <pt x="594" y="-12" on="0"/>
        <pt x="416" y="-12" on="1"/>
        <pt x="238" y="-12" on="0"/>
        <pt x="45" y="169" on="0"/>
        <pt x="45" y="344" on="1"/>
        <pt x="45" y="519" on="0"/>
        <pt x="238" y="700" on="0"/>
        <pt x="416" y="700" on="1"/>
      </contour>
      <contour>
        <pt x="345" y="535" on="0"/>
        <pt x="271" y="449" on="0"/>
        <pt x="271" y="376" on="1"/>
        <pt x="271" y="312" on="1"/>
        <pt x="271" y="239" on="0"/>
        <pt x="345" y="153" on="0"/>
        <pt x="416" y="153" on="1"/>
        <pt x="487" y="153" on="0"/>
        <pt x="562" y="239" on="0"/>
        <pt x="562" y="312" on="1"/>
        <pt x="562" y="376" on="1"/>
        <pt x="562" y="449" on="0"/>
        <pt x="487" y="535" on="0"/>
        <pt x="416" y="535" on="1"/>
      </contour>
    </TTGlyph>
    <TTGlyph name="P" xMin="74" yMin="0" xMax="680" yMax="688">
      <contour>
        <pt x="524" y="688" on="0"/>
        <pt x="624" y="629" on="0"/>
        <pt x="680" y="526" on="0"/>
        <pt x="680" y="462" on="1"/>
        <pt x="680" y="449" on="1"/>
        <pt x="680" y="385" on="0"/>
        <pt x="624" y="281" on="0"/>
        <pt x="524" y="222" on="0"/>
        <pt x="460" y="222" on="1"/>
        <pt x="295" y="222" on="1"/>
        <pt x="295" y="0" on="1"/>
        <pt x="74" y="0" on="1"/>
        <pt x="74" y="688" on="1"/>
        <pt x="460" y="688" on="1"/>
      </contour>
      <contour>
        <pt x="295" y="383" on="1"/>
        <pt x="386" y="383" on="1"/>
        <pt x="421" y="383" on="0"/>
        <pt x="456" y="419" on="0"/>
        <pt x="456" y="450" on="1"/>
        <pt x="456" y="458" on="1"/>
        <pt x="456" y="490" on="0"/>
        <pt x="421" y="525" on="0"/>
        <pt x="386" y="525" on="1"/>
        <pt x="295" y="525" on="1"/>
      </contour>
    </TTGlyph>
    <TTGlyph name="Q" xMin="45" yMin="-131" xMax="788" yMax="700">
      <contour>
        <pt x="45" y="519" on="0"/>
        <pt x="238" y="700" on="0"/>
        <pt x="416" y="700" on="1"/>
        <pt x="594" y="700" on="0"/>
        <pt x="788" y="518" on="0"/>
        <pt x="788" y="344" on="1"/>
        <pt x="788" y="228" on="0"/>
        <pt x="701" y="69" on="0"/>
        <pt x="618" y="28" on="1"/>
        <pt x="775" y="-131" on="1"/>
        <pt x="512" y="-131" on="1"/>
        <pt x="406" y="-12" on="1"/>
        <pt x="232" y="-9" on="0"/>
        <pt x="45" y="172" on="0"/>
        <pt x="45" y="344" on="1"/>
      </contour>
      <contour>
        <pt x="562" y="449" on="0"/>
        <pt x="487" y="535" on="0"/>
        <pt x="416" y="535" on="1"/>
        <pt x="345" y="535" on="0"/>
        <pt x="271" y="449" on="0"/>
        <pt x="271" y="376" on="1"/>
        <pt x="271" y="312" on="1"/>
        <pt x="271" y="239" on="0"/>
        <pt x="345" y="153" on="0"/>
        <pt x="416" y="153" on="1"/>
        <pt x="487" y="153" on="0"/>
        <pt x="562" y="239" on="0"/>
        <pt x="562" y="312" on="1"/>
        <pt x="562" y="376" on="1"/>
      </contour>
    </TTGlyph>
    <TTGlyph name="R" xMin="74" yMin="0" xMax="747" yMax="688">
      <contour>
        <pt x="727" y="414" on="0"/>
        <pt x="659" y="312" on="0"/>
        <pt x="594" y="288" on="1"/>
        <pt x="747" y="0" on="1"/>
        <pt x="499" y="0" on="1"/>
        <pt x="377" y="251" on="1"/>
        <pt x="295" y="251" on="1"/>
        <pt x="295" y="0" on="1"/>
        <pt x="74" y="0" on="1"/>
        <pt x="74" y="688" on="1"/>
        <pt x="495" y="688" on="1"/>
        <pt x="569" y="688" on="0"/>
        <pt x="674" y="631" on="0"/>
        <pt x="727" y="534" on="0"/>
        <pt x="727" y="477" on="1"/>
      </contour>
      <contour>
        <pt x="502" y="495" on="0"/>
        <pt x="466" y="531" on="0"/>
        <pt x="440" y="531" on="1"/>
        <pt x="295" y="531" on="1"/>
        <pt x="295" y="404" on="1"/>
        <pt x="440" y="404" on="1"/>
        <pt x="466" y="404" on="0"/>
        <pt x="502" y="441" on="0"/>
        <pt x="502" y="468" on="1"/>
      </contour>
    </TTGlyph>
    <TTGlyph name="Racute" xMin="74" yMin="0" xMax="747" yMax="885">
      <contour>
        <pt x="282" y="752" on="1"/>
        <pt x="374" y="885" on="1"/>
        <pt x="567" y="885" on="1"/>
        <pt x="569" y="881" on="1"/>
        <pt x="409" y="752" on="1"/>
      </contour>
      <contour>
        <pt x="727" y="414" on="0"/>
        <pt x="659" y="312" on="0"/>
        <pt x="594" y="288" on="1"/>
        <pt x="747" y="0" on="1"/>
        <pt x="499" y="0" on="1"/>
        <pt x="377" y="251" on="1"/>
        <pt x="295" y="251" on="1"/>
        <pt x="295" y="0" on="1"/>
        <pt x="74" y="0" on="1"/>
        <pt x="74" y="688" on="1"/>
        <pt x="495" y="688" on="1"/>
        <pt x="569" y="688" on="0"/>
        <pt x="674" y="631" on="0"/>
        <pt x="727" y="534" on="0"/>
        <pt x="727" y="477" on="1"/>
      </contour>
      <contour>
        <pt x="502" y="495" on="0"/>
        <pt x="466" y="531" on="0"/>
        <pt x="440" y="531" on="1"/>
        <pt x="295" y="531" on="1"/>
        <pt x="295" y="404" on="1"/>
        <pt x="440" y="404" on="1"/>
        <pt x="466" y="404" on="0"/>
        <pt x="502" y="441" on="0"/>
        <pt x="502" y="468" on="1"/>
      </contour>
    </TTGlyph>
    <TTGlyph name="Rcaron" xMin="74" yMin="0" xMax="747" yMax="885">
      <contour>
        <pt x="325" y="740" on="1"/>
        <pt x="186" y="885" on="1"/>
        <pt x="314" y="885" on="1"/>
        <pt x="388" y="808" on="1"/>
        <pt x="462" y="885" on="1"/>
        <pt x="592" y="885" on="1"/>
        <pt x="453" y="740" on="1"/>
      </contour>
      <contour>
        <pt x="727" y="414" on="0"/>
        <pt x="659" y="312" on="0"/>
        <pt x="594" y="288" on="1"/>
        <pt x="747" y="0" on="1"/>
        <pt x="499" y="0" on="1"/>
        <pt x="377" y="251" on="1"/>
        <pt x="295" y="251" on="1"/>
        <pt x="295" y="0" on="1"/>
        <pt x="74" y="0" on="1"/>
        <pt x="74" y="688" on="1"/>
        <pt x="495" y="688" on="1"/>
        <pt x="569" y="688" on="0"/>
        <pt x="674" y="631" on="0"/>
        <pt x="727" y="534" on="0"/>
        <pt x="727" y="477" on="1"/>
      </contour>
      <contour>
        <pt x="502" y="495" on="0"/>
        <pt x="466" y="531" on="0"/>
        <pt x="440" y="531" on="1"/>
        <pt x="295" y="531" on="1"/>
        <pt x="295" y="404" on="1"/>
        <pt x="440" y="404" on="1"/>
        <pt x="466" y="404" on="0"/>
        <pt x="502" y="441" on="0"/>
        <pt x="502" y="468" on="1"/>
      </contour>
    </TTGlyph>
    <TTGlyph name="Rcommaaccent" xMin="74" yMin="-267" xMax="747" yMax="688">
      <contour>
        <pt x="727" y="414" on="0"/>
        <pt x="659" y="312" on="0"/>
        <pt x="594" y="288" on="1"/>
        <pt x="747" y="0" on="1"/>
        <pt x="499" y="0" on="1"/>
        <pt x="377" y="251" on="1"/>
        <pt x="295" y="251" on="1"/>
        <pt x="295" y="0" on="1"/>
        <pt x="74" y="0" on="1"/>
        <pt x="74" y="688" on="1"/>
        <pt x="495" y="688" on="1"/>
        <pt x="569" y="688" on="0"/>
        <pt x="674" y="631" on="0"/>
        <pt x="727" y="534" on="0"/>
        <pt x="727" y="477" on="1"/>
      </contour>
      <contour>
        <pt x="502" y="495" on="0"/>
        <pt x="466" y="531" on="0"/>
        <pt x="440" y="531" on="1"/>
        <pt x="295" y="531" on="1"/>
        <pt x="295" y="404" on="1"/>
        <pt x="440" y="404" on="1"/>
        <pt x="466" y="404" on="0"/>
        <pt x="502" y="441" on="0"/>
        <pt x="502" y="468" on="1"/>
      </contour>
      <contour>
        <pt x="400" y="-267" on="1"/>
        <pt x="333" y="-267" on="1"/>
        <pt x="374" y="-175" on="1"/>
        <pt x="324" y="-175" on="1"/>
        <pt x="324" y="-59" on="1"/>
        <pt x="454" y="-59" on="1"/>
        <pt x="454" y="-168" on="1"/>
      </contour>
    </TTGlyph>
    <TTGlyph name="S" xMin="43" yMin="-12" xMax="686" yMax="700">
      <contour>
        <pt x="495" y="700" on="0"/>
        <pt x="665" y="593" on="0"/>
        <pt x="667" y="488" on="1"/>
        <pt x="667" y="476" on="1"/>
        <pt x="460" y="476" on="1"/>
        <pt x="460" y="480" on="1"/>
        <pt x="460" y="510" on="0"/>
        <pt x="416" y="550" on="0"/>
        <pt x="371" y="550" on="1"/>
        <pt x="327" y="550" on="0"/>
        <pt x="280" y="524" on="0"/>
        <pt x="280" y="505" on="1"/>
        <pt x="280" y="478" on="0"/>
        <pt x="344" y="452" on="0"/>
        <pt x="415" y="438" on="1"/>
        <pt x="498" y="421" on="0"/>
        <pt x="605" y="384" on="0"/>
        <pt x="685" y="300" on="0"/>
        <pt x="686" y="228" on="1"/>
        <pt x="686" y="106" on="0"/>
        <pt x="521" y="-12" on="0"/>
        <pt x="383" y="-12" on="1"/>
        <pt x="222" y="-12" on="0"/>
        <pt x="43" y="96" on="0"/>
        <pt x="43" y="233" on="1"/>
        <pt x="252" y="233" on="1"/>
        <pt x="252" y="181" on="0"/>
        <pt x="306" y="146" on="0"/>
        <pt x="363" y="146" on="1"/>
        <pt x="405" y="146" on="0"/>
        <pt x="460" y="164" on="0"/>
        <pt x="460" y="192" on="1"/>
        <pt x="460" y="217" on="0"/>
        <pt x="399" y="242" on="0"/>
        <pt x="330" y="256" on="1"/>
        <pt x="246" y="274" on="0"/>
        <pt x="136" y="313" on="0"/>
        <pt x="54" y="403" on="0"/>
        <pt x="54" y="480" on="1"/>
        <pt x="54" y="593" on="0"/>
        <pt x="229" y="700" on="0"/>
        <pt x="363" y="700" on="1"/>
      </contour>
    </TTGlyph>
    <TTGlyph name="Sacute" xMin="43" yMin="-12" xMax="686" yMax="885">
      <contour>
        <pt x="265" y="752" on="1"/>
        <pt x="357" y="885" on="1"/>
        <pt x="550" y="885" on="1"/>
        <pt x="552" y="881" on="1"/>
        <pt x="393" y="752" on="1"/>
      </contour>
      <contour>
        <pt x="495" y="700" on="0"/>
        <pt x="665" y="593" on="0"/>
        <pt x="667" y="488" on="1"/>
        <pt x="667" y="476" on="1"/>
        <pt x="460" y="476" on="1"/>
        <pt x="460" y="480" on="1"/>
        <pt x="460" y="510" on="0"/>
        <pt x="416" y="550" on="0"/>
        <pt x="371" y="550" on="1"/>
        <pt x="327" y="550" on="0"/>
        <pt x="280" y="524" on="0"/>
        <pt x="280" y="505" on="1"/>
        <pt x="280" y="478" on="0"/>
        <pt x="344" y="452" on="0"/>
        <pt x="415" y="438" on="1"/>
        <pt x="498" y="421" on="0"/>
        <pt x="605" y="384" on="0"/>
        <pt x="685" y="300" on="0"/>
        <pt x="686" y="228" on="1"/>
        <pt x="686" y="106" on="0"/>
        <pt x="521" y="-12" on="0"/>
        <pt x="383" y="-12" on="1"/>
        <pt x="222" y="-12" on="0"/>
        <pt x="43" y="96" on="0"/>
        <pt x="43" y="233" on="1"/>
        <pt x="252" y="233" on="1"/>
        <pt x="252" y="181" on="0"/>
        <pt x="306" y="146" on="0"/>
        <pt x="363" y="146" on="1"/>
        <pt x="405" y="146" on="0"/>
        <pt x="460" y="164" on="0"/>
        <pt x="460" y="192" on="1"/>
        <pt x="460" y="217" on="0"/>
        <pt x="399" y="242" on="0"/>
        <pt x="330" y="256" on="1"/>
        <pt x="246" y="274" on="0"/>
        <pt x="136" y="313" on="0"/>
        <pt x="54" y="403" on="0"/>
        <pt x="54" y="480" on="1"/>
        <pt x="54" y="593" on="0"/>
        <pt x="229" y="700" on="0"/>
        <pt x="363" y="700" on="1"/>
      </contour>
    </TTGlyph>
    <TTGlyph name="Scaron" xMin="43" yMin="-12" xMax="686" yMax="885">
      <contour>
        <pt x="297" y="740" on="1"/>
        <pt x="158" y="885" on="1"/>
        <pt x="286" y="885" on="1"/>
        <pt x="360" y="808" on="1"/>
        <pt x="435" y="885" on="1"/>
        <pt x="564" y="885" on="1"/>
        <pt x="425" y="740" on="1"/>
      </contour>
      <contour>
        <pt x="495" y="700" on="0"/>
        <pt x="665" y="593" on="0"/>
        <pt x="667" y="488" on="1"/>
        <pt x="667" y="476" on="1"/>
        <pt x="460" y="476" on="1"/>
        <pt x="460" y="480" on="1"/>
        <pt x="460" y="510" on="0"/>
        <pt x="416" y="550" on="0"/>
        <pt x="371" y="550" on="1"/>
        <pt x="327" y="550" on="0"/>
        <pt x="280" y="524" on="0"/>
        <pt x="280" y="505" on="1"/>
        <pt x="280" y="478" on="0"/>
        <pt x="344" y="452" on="0"/>
        <pt x="415" y="438" on="1"/>
        <pt x="498" y="421" on="0"/>
        <pt x="605" y="384" on="0"/>
        <pt x="685" y="300" on="0"/>
        <pt x="686" y="228" on="1"/>
        <pt x="686" y="106" on="0"/>
        <pt x="521" y="-12" on="0"/>
        <pt x="383" y="-12" on="1"/>
        <pt x="222" y="-12" on="0"/>
        <pt x="43" y="96" on="0"/>
        <pt x="43" y="233" on="1"/>
        <pt x="252" y="233" on="1"/>
        <pt x="252" y="181" on="0"/>
        <pt x="306" y="146" on="0"/>
        <pt x="363" y="146" on="1"/>
        <pt x="405" y="146" on="0"/>
        <pt x="460" y="164" on="0"/>
        <pt x="460" y="192" on="1"/>
        <pt x="460" y="217" on="0"/>
        <pt x="399" y="242" on="0"/>
        <pt x="330" y="256" on="1"/>
        <pt x="246" y="274" on="0"/>
        <pt x="136" y="313" on="0"/>
        <pt x="54" y="403" on="0"/>
        <pt x="54" y="480" on="1"/>
        <pt x="54" y="593" on="0"/>
        <pt x="229" y="700" on="0"/>
        <pt x="363" y="700" on="1"/>
      </contour>
    </TTGlyph>
    <TTGlyph name="Scedilla" xMin="43" yMin="-211" xMax="686" yMax="700">
      <contour>
        <pt x="495" y="700" on="0"/>
        <pt x="665" y="593" on="0"/>
        <pt x="667" y="488" on="1"/>
        <pt x="667" y="476" on="1"/>
        <pt x="460" y="476" on="1"/>
        <pt x="460" y="480" on="1"/>
        <pt x="460" y="510" on="0"/>
        <pt x="416" y="550" on="0"/>
        <pt x="371" y="550" on="1"/>
        <pt x="327" y="550" on="0"/>
        <pt x="280" y="524" on="0"/>
        <pt x="280" y="505" on="1"/>
        <pt x="280" y="478" on="0"/>
        <pt x="344" y="452" on="0"/>
        <pt x="415" y="438" on="1"/>
        <pt x="498" y="421" on="0"/>
        <pt x="605" y="384" on="0"/>
        <pt x="685" y="300" on="0"/>
        <pt x="686" y="228" on="1"/>
        <pt x="686" y="108" on="0"/>
        <pt x="527" y="-10" on="0"/>
        <pt x="393" y="-12" on="1"/>
        <pt x="391" y="-29" on="1"/>
        <pt x="432" y="-33" on="0"/>
        <pt x="483" y="-75" on="0"/>
        <pt x="483" y="-118" on="1"/>
        <pt x="483" y="-169" on="0"/>
        <pt x="411" y="-211" on="0"/>
        <pt x="365" y="-211" on="1"/>
        <pt x="330" y="-211" on="0"/>
        <pt x="261" y="-202" on="0"/>
        <pt x="239" y="-195" on="1"/>
        <pt x="239" y="-141" on="1"/>
        <pt x="250" y="-142" on="0"/>
        <pt x="323" y="-149" on="0"/>
        <pt x="356" y="-149" on="1"/>
        <pt x="396" y="-149" on="0"/>
        <pt x="396" y="-118" on="1"/>
        <pt x="396" y="-102" on="0"/>
        <pt x="379" y="-86" on="0"/>
        <pt x="358" y="-86" on="1"/>
        <pt x="320" y="-86" on="1"/>
        <pt x="332" y="-11" on="1"/>
        <pt x="195" y="-4" on="0"/>
        <pt x="43" y="108" on="0"/>
        <pt x="43" y="233" on="1"/>
        <pt x="252" y="233" on="1"/>
        <pt x="252" y="181" on="0"/>
        <pt x="306" y="146" on="0"/>
        <pt x="363" y="146" on="1"/>
        <pt x="405" y="146" on="0"/>
        <pt x="460" y="164" on="0"/>
        <pt x="460" y="192" on="1"/>
        <pt x="460" y="217" on="0"/>
        <pt x="399" y="242" on="0"/>
        <pt x="330" y="256" on="1"/>
        <pt x="246" y="274" on="0"/>
        <pt x="136" y="313" on="0"/>
        <pt x="54" y="403" on="0"/>
        <pt x="54" y="480" on="1"/>
        <pt x="54" y="593" on="0"/>
        <pt x="229" y="700" on="0"/>
        <pt x="363" y="700" on="1"/>
      </contour>
    </TTGlyph>
    <TTGlyph name="Scircumflex" xMin="43" yMin="-12" xMax="686" yMax="885">
      <contour>
        <pt x="435" y="740" on="1"/>
        <pt x="360" y="817" on="1"/>
        <pt x="286" y="740" on="1"/>
        <pt x="158" y="740" on="1"/>
        <pt x="297" y="885" on="1"/>
        <pt x="425" y="885" on="1"/>
        <pt x="564" y="740" on="1"/>
      </contour>
      <contour>
        <pt x="495" y="700" on="0"/>
        <pt x="665" y="593" on="0"/>
        <pt x="667" y="488" on="1"/>
        <pt x="667" y="476" on="1"/>
        <pt x="460" y="476" on="1"/>
        <pt x="460" y="480" on="1"/>
        <pt x="460" y="510" on="0"/>
        <pt x="416" y="550" on="0"/>
        <pt x="371" y="550" on="1"/>
        <pt x="327" y="550" on="0"/>
        <pt x="280" y="524" on="0"/>
        <pt x="280" y="505" on="1"/>
        <pt x="280" y="478" on="0"/>
        <pt x="344" y="452" on="0"/>
        <pt x="415" y="438" on="1"/>
        <pt x="498" y="421" on="0"/>
        <pt x="605" y="384" on="0"/>
        <pt x="685" y="300" on="0"/>
        <pt x="686" y="228" on="1"/>
        <pt x="686" y="106" on="0"/>
        <pt x="521" y="-12" on="0"/>
        <pt x="383" y="-12" on="1"/>
        <pt x="222" y="-12" on="0"/>
        <pt x="43" y="96" on="0"/>
        <pt x="43" y="233" on="1"/>
        <pt x="252" y="233" on="1"/>
        <pt x="252" y="181" on="0"/>
        <pt x="306" y="146" on="0"/>
        <pt x="363" y="146" on="1"/>
        <pt x="405" y="146" on="0"/>
        <pt x="460" y="164" on="0"/>
        <pt x="460" y="192" on="1"/>
        <pt x="460" y="217" on="0"/>
        <pt x="399" y="242" on="0"/>
        <pt x="330" y="256" on="1"/>
        <pt x="246" y="274" on="0"/>
        <pt x="136" y="313" on="0"/>
        <pt x="54" y="403" on="0"/>
        <pt x="54" y="480" on="1"/>
        <pt x="54" y="593" on="0"/>
        <pt x="229" y="700" on="0"/>
        <pt x="363" y="700" on="1"/>
      </contour>
    </TTGlyph>
    <TTGlyph name="Scommaaccent" xMin="43" yMin="-267" xMax="686" yMax="700">
      <component glyphName=".ttfautohint" x="43" y="0" flags="0x0"/>
      <component glyphName="S" x="0" y="0" flags="0x0"/>
      <component glyphName="uni0326" x="528" y="0" flags="0x0"/>
    </TTGlyph>
    <TTGlyph name="T" xMin="23" yMin="0" xMax="695" yMax="688">
      <contour>
        <pt x="470" y="512" on="1"/>
        <pt x="470" y="0" on="1"/>
        <pt x="249" y="0" on="1"/>
        <pt x="249" y="512" on="1"/>
        <pt x="23" y="512" on="1"/>
        <pt x="23" y="688" on="1"/>
        <pt x="695" y="688" on="1"/>
        <pt x="695" y="512" on="1"/>
      </contour>
    </TTGlyph>
    <TTGlyph name="Tbar" xMin="23" yMin="0" xMax="695" yMax="688">
      <contour>
        <pt x="470" y="269" on="1"/>
        <pt x="470" y="0" on="1"/>
        <pt x="249" y="0" on="1"/>
        <pt x="249" y="269" on="1"/>
        <pt x="86" y="269" on="1"/>
        <pt x="86" y="369" on="1"/>
        <pt x="249" y="369" on="1"/>
        <pt x="249" y="512" on="1"/>
        <pt x="23" y="512" on="1"/>
        <pt x="23" y="688" on="1"/>
        <pt x="695" y="688" on="1"/>
        <pt x="695" y="512" on="1"/>
        <pt x="470" y="512" on="1"/>
        <pt x="470" y="369" on="1"/>
        <pt x="632" y="369" on="1"/>
        <pt x="632" y="269" on="1"/>
      </contour>
    </TTGlyph>
    <TTGlyph name="Tcaron" xMin="23" yMin="0" xMax="695" yMax="885">
      <contour>
        <pt x="297" y="740" on="1"/>
        <pt x="158" y="885" on="1"/>
        <pt x="286" y="885" on="1"/>
        <pt x="360" y="808" on="1"/>
        <pt x="435" y="885" on="1"/>
        <pt x="564" y="885" on="1"/>
        <pt x="425" y="740" on="1"/>
      </contour>
      <contour>
        <pt x="470" y="512" on="1"/>
        <pt x="470" y="0" on="1"/>
        <pt x="249" y="0" on="1"/>
        <pt x="249" y="512" on="1"/>
        <pt x="23" y="512" on="1"/>
        <pt x="23" y="688" on="1"/>
        <pt x="695" y="688" on="1"/>
        <pt x="695" y="512" on="1"/>
      </contour>
    </TTGlyph>
    <TTGlyph name="Thorn" xMin="74" yMin="0" xMax="680" yMax="688">
      <contour>
        <pt x="460" y="588" on="1"/>
        <pt x="524" y="588" on="0"/>
        <pt x="624" y="529" on="0"/>
        <pt x="680" y="426" on="0"/>
        <pt x="680" y="362" on="1"/>
        <pt x="680" y="349" on="1"/>
        <pt x="680" y="285" on="0"/>
        <pt x="624" y="181" on="0"/>
        <pt x="524" y="122" on="0"/>
        <pt x="460" y="122" on="1"/>
        <pt x="295" y="122" on="1"/>
        <pt x="295" y="0" on="1"/>
        <pt x="74" y="0" on="1"/>
        <pt x="74" y="688" on="1"/>
        <pt x="295" y="688" on="1"/>
        <pt x="295" y="588" on="1"/>
      </contour>
      <contour>
        <pt x="295" y="283" on="1"/>
        <pt x="386" y="283" on="1"/>
        <pt x="421" y="283" on="0"/>
        <pt x="456" y="319" on="0"/>
        <pt x="456" y="350" on="1"/>
        <pt x="456" y="358" on="1"/>
        <pt x="456" y="390" on="0"/>
        <pt x="421" y="425" on="0"/>
        <pt x="386" y="425" on="1"/>
        <pt x="295" y="425" on="1"/>
      </contour>
    </TTGlyph>
    <TTGlyph name="U" xMin="74" yMin="-12" xMax="759" yMax="688">
      <contour>
        <pt x="759" y="136" on="0"/>
        <pt x="581" y="-12" on="0"/>
        <pt x="417" y="-12" on="1"/>
        <pt x="253" y="-12" on="0"/>
        <pt x="74" y="136" on="0"/>
        <pt x="74" y="277" on="1"/>
        <pt x="74" y="688" on="1"/>
        <pt x="295" y="688" on="1"/>
        <pt x="295" y="280" on="1"/>
        <pt x="295" y="222" on="0"/>
        <pt x="357" y="153" on="0"/>
        <pt x="416" y="153" on="1"/>
        <pt x="475" y="153" on="0"/>
        <pt x="538" y="223" on="0"/>
        <pt x="538" y="280" on="1"/>
        <pt x="538" y="688" on="1"/>
        <pt x="759" y="688" on="1"/>
        <pt x="759" y="277" on="1"/>
      </contour>
    </TTGlyph>
    <TTGlyph name="Uacute" xMin="74" yMin="-12" xMax="759" yMax="885">
      <contour>
        <pt x="320" y="752" on="1"/>
        <pt x="413" y="885" on="1"/>
        <pt x="605" y="885" on="1"/>
        <pt x="607" y="881" on="1"/>
        <pt x="448" y="752" on="1"/>
      </contour>
      <contour>
        <pt x="759" y="136" on="0"/>
        <pt x="581" y="-12" on="0"/>
        <pt x="417" y="-12" on="1"/>
        <pt x="253" y="-12" on="0"/>
        <pt x="74" y="136" on="0"/>
        <pt x="74" y="277" on="1"/>
        <pt x="74" y="688" on="1"/>
        <pt x="295" y="688" on="1"/>
        <pt x="295" y="280" on="1"/>
        <pt x="295" y="222" on="0"/>
        <pt x="357" y="153" on="0"/>
        <pt x="416" y="153" on="1"/>
        <pt x="475" y="153" on="0"/>
        <pt x="538" y="223" on="0"/>
        <pt x="538" y="280" on="1"/>
        <pt x="538" y="688" on="1"/>
        <pt x="759" y="688" on="1"/>
        <pt x="759" y="277" on="1"/>
      </contour>
    </TTGlyph>
    <TTGlyph name="Ubreve" xMin="74" yMin="-12" xMax="759" yMax="885">
      <contour>
        <pt x="601" y="851" on="0"/>
        <pt x="555" y="784" on="0"/>
        <pt x="470" y="741" on="0"/>
        <pt x="416" y="741" on="1"/>
        <pt x="361" y="741" on="0"/>
        <pt x="277" y="784" on="0"/>
        <pt x="232" y="851" on="0"/>
        <pt x="232" y="885" on="1"/>
        <pt x="328" y="885" on="1"/>
        <pt x="331" y="867" on="0"/>
        <pt x="382" y="835" on="0"/>
        <pt x="416" y="835" on="1"/>
        <pt x="451" y="835" on="0"/>
        <pt x="503" y="867" on="0"/>
        <pt x="506" y="885" on="1"/>
        <pt x="601" y="885" on="1"/>
      </contour>
      <contour>
        <pt x="759" y="136" on="0"/>
        <pt x="581" y="-12" on="0"/>
        <pt x="417" y="-12" on="1"/>
        <pt x="253" y="-12" on="0"/>
        <pt x="74" y="136" on="0"/>
        <pt x="74" y="277" on="1"/>
        <pt x="74" y="688" on="1"/>
        <pt x="295" y="688" on="1"/>
        <pt x="295" y="280" on="1"/>
        <pt x="295" y="222" on="0"/>
        <pt x="357" y="153" on="0"/>
        <pt x="416" y="153" on="1"/>
        <pt x="475" y="153" on="0"/>
        <pt x="538" y="223" on="0"/>
        <pt x="538" y="280" on="1"/>
        <pt x="538" y="688" on="1"/>
        <pt x="759" y="688" on="1"/>
        <pt x="759" y="277" on="1"/>
      </contour>
    </TTGlyph>
    <TTGlyph name="Ucircumflex" xMin="74" yMin="-12" xMax="759" yMax="885">
      <contour>
        <pt x="490" y="740" on="1"/>
        <pt x="416" y="817" on="1"/>
        <pt x="341" y="740" on="1"/>
        <pt x="213" y="740" on="1"/>
        <pt x="353" y="885" on="1"/>
        <pt x="480" y="885" on="1"/>
        <pt x="620" y="740" on="1"/>
      </contour>
      <contour>
        <pt x="759" y="136" on="0"/>
        <pt x="581" y="-12" on="0"/>
        <pt x="417" y="-12" on="1"/>
        <pt x="253" y="-12" on="0"/>
        <pt x="74" y="136" on="0"/>
        <pt x="74" y="277" on="1"/>
        <pt x="74" y="688" on="1"/>
        <pt x="295" y="688" on="1"/>
        <pt x="295" y="280" on="1"/>
        <pt x="295" y="222" on="0"/>
        <pt x="357" y="153" on="0"/>
        <pt x="416" y="153" on="1"/>
        <pt x="475" y="153" on="0"/>
        <pt x="538" y="223" on="0"/>
        <pt x="538" y="280" on="1"/>
        <pt x="538" y="688" on="1"/>
        <pt x="759" y="688" on="1"/>
        <pt x="759" y="277" on="1"/>
      </contour>
    </TTGlyph>
    <TTGlyph name="Udieresis" xMin="74" yMin="-12" xMax="759" yMax="885">
      <contour>
        <pt x="230" y="746" on="1"/>
        <pt x="230" y="885" on="1"/>
        <pt x="382" y="885" on="1"/>
        <pt x="382" y="746" on="1"/>
      </contour>
      <contour>
        <pt x="451" y="746" on="1"/>
        <pt x="451" y="885" on="1"/>
        <pt x="603" y="885" on="1"/>
        <pt x="603" y="746" on="1"/>
      </contour>
      <contour>
        <pt x="759" y="136" on="0"/>
        <pt x="581" y="-12" on="0"/>
        <pt x="417" y="-12" on="1"/>
        <pt x="253" y="-12" on="0"/>
        <pt x="74" y="136" on="0"/>
        <pt x="74" y="277" on="1"/>
        <pt x="74" y="688" on="1"/>
        <pt x="295" y="688" on="1"/>
        <pt x="295" y="280" on="1"/>
        <pt x="295" y="222" on="0"/>
        <pt x="357" y="153" on="0"/>
        <pt x="416" y="153" on="1"/>
        <pt x="475" y="153" on="0"/>
        <pt x="538" y="223" on="0"/>
        <pt x="538" y="280" on="1"/>
        <pt x="538" y="688" on="1"/>
        <pt x="759" y="688" on="1"/>
        <pt x="759" y="277" on="1"/>
      </contour>
    </TTGlyph>
    <TTGlyph name="Ugrave" xMin="74" yMin="-12" xMax="759" yMax="885">
      <contour>
        <pt x="226" y="881" on="1"/>
        <pt x="228" y="885" on="1"/>
        <pt x="420" y="885" on="1"/>
        <pt x="513" y="752" on="1"/>
        <pt x="386" y="752" on="1"/>
      </contour>
      <contour>
        <pt x="759" y="136" on="0"/>
        <pt x="581" y="-12" on="0"/>
        <pt x="417" y="-12" on="1"/>
        <pt x="253" y="-12" on="0"/>
        <pt x="74" y="136" on="0"/>
        <pt x="74" y="277" on="1"/>
        <pt x="74" y="688" on="1"/>
        <pt x="295" y="688" on="1"/>
        <pt x="295" y="280" on="1"/>
        <pt x="295" y="222" on="0"/>
        <pt x="357" y="153" on="0"/>
        <pt x="416" y="153" on="1"/>
        <pt x="475" y="153" on="0"/>
        <pt x="538" y="223" on="0"/>
        <pt x="538" y="280" on="1"/>
        <pt x="538" y="688" on="1"/>
        <pt x="759" y="688" on="1"/>
        <pt x="759" y="277" on="1"/>
      </contour>
    </TTGlyph>
    <TTGlyph name="Uhungarumlaut" xMin="74" yMin="-12" xMax="759" yMax="886">
      <contour>
        <pt x="363" y="752" on="1"/>
        <pt x="246" y="752" on="1"/>
        <pt x="322" y="886" on="1"/>
        <pt x="500" y="886" on="1"/>
        <pt x="502" y="882" on="1"/>
      </contour>
      <contour>
        <pt x="574" y="752" on="1"/>
        <pt x="457" y="752" on="1"/>
        <pt x="533" y="886" on="1"/>
        <pt x="711" y="886" on="1"/>
        <pt x="713" y="882" on="1"/>
      </contour>
      <contour>
        <pt x="759" y="136" on="0"/>
        <pt x="581" y="-12" on="0"/>
        <pt x="417" y="-12" on="1"/>
        <pt x="253" y="-12" on="0"/>
        <pt x="74" y="136" on="0"/>
        <pt x="74" y="277" on="1"/>
        <pt x="74" y="688" on="1"/>
        <pt x="295" y="688" on="1"/>
        <pt x="295" y="280" on="1"/>
        <pt x="295" y="222" on="0"/>
        <pt x="357" y="153" on="0"/>
        <pt x="416" y="153" on="1"/>
        <pt x="475" y="153" on="0"/>
        <pt x="538" y="223" on="0"/>
        <pt x="538" y="280" on="1"/>
        <pt x="538" y="688" on="1"/>
        <pt x="759" y="688" on="1"/>
        <pt x="759" y="277" on="1"/>
      </contour>
    </TTGlyph>
    <TTGlyph name="Umacron" xMin="74" yMin="-12" xMax="759" yMax="865">
      <contour>
        <pt x="258" y="765" on="1"/>
        <pt x="258" y="865" on="1"/>
        <pt x="575" y="865" on="1"/>
        <pt x="575" y="765" on="1"/>
      </contour>
      <contour>
        <pt x="759" y="136" on="0"/>
        <pt x="581" y="-12" on="0"/>
        <pt x="417" y="-12" on="1"/>
        <pt x="253" y="-12" on="0"/>
        <pt x="74" y="136" on="0"/>
        <pt x="74" y="277" on="1"/>
        <pt x="74" y="688" on="1"/>
        <pt x="295" y="688" on="1"/>
        <pt x="295" y="280" on="1"/>
        <pt x="295" y="222" on="0"/>
        <pt x="357" y="153" on="0"/>
        <pt x="416" y="153" on="1"/>
        <pt x="475" y="153" on="0"/>
        <pt x="538" y="223" on="0"/>
        <pt x="538" y="280" on="1"/>
        <pt x="538" y="688" on="1"/>
        <pt x="759" y="688" on="1"/>
        <pt x="759" y="277" on="1"/>
      </contour>
    </TTGlyph>
    <TTGlyph name="Uogonek" xMin="74" yMin="-211" xMax="759" yMax="688">
      <contour>
        <pt x="759" y="172" on="0"/>
        <pt x="658" y="35" on="0"/>
        <pt x="563" y="7" on="1"/>
        <pt x="556" y="-7" on="0"/>
        <pt x="544" y="-50" on="0"/>
        <pt x="544" y="-69" on="1"/>
        <pt x="544" y="-91" on="0"/>
        <pt x="573" y="-120" on="0"/>
        <pt x="604" y="-120" on="1"/>
        <pt x="646" y="-120" on="1"/>
        <pt x="646" y="-196" on="1"/>
        <pt x="600" y="-211" on="0"/>
        <pt x="550" y="-211" on="1"/>
        <pt x="497" y="-211" on="0"/>
        <pt x="424" y="-154" on="0"/>
        <pt x="424" y="-97" on="1"/>
        <pt x="424" y="-52" on="0"/>
        <pt x="456" y="-11" on="1"/>
        <pt x="443" y="-12" on="0"/>
        <pt x="417" y="-12" on="1"/>
        <pt x="253" y="-12" on="0"/>
        <pt x="74" y="136" on="0"/>
        <pt x="74" y="277" on="1"/>
        <pt x="74" y="688" on="1"/>
        <pt x="295" y="688" on="1"/>
        <pt x="295" y="280" on="1"/>
        <pt x="295" y="222" on="0"/>
        <pt x="357" y="153" on="0"/>
        <pt x="416" y="153" on="1"/>
        <pt x="475" y="153" on="0"/>
        <pt x="538" y="223" on="0"/>
        <pt x="538" y="280" on="1"/>
        <pt x="538" y="688" on="1"/>
        <pt x="759" y="688" on="1"/>
        <pt x="759" y="277" on="1"/>
      </contour>
    </TTGlyph>
    <TTGlyph name="Uring" xMin="74" yMin="-12" xMax="759" yMax="954">
      <contour>
        <pt x="462" y="954" on="0"/>
        <pt x="525" y="891" on="0"/>
        <pt x="525" y="845" on="1"/>
        <pt x="525" y="801" on="0"/>
        <pt x="462" y="737" on="0"/>
        <pt x="417" y="737" on="1"/>
        <pt x="372" y="737" on="0"/>
        <pt x="308" y="800" on="0"/>
        <pt x="308" y="845" on="1"/>
        <pt x="308" y="890" on="0"/>
        <pt x="371" y="954" on="0"/>
        <pt x="417" y="954" on="1"/>
      </contour>
      <contour>
        <pt x="399" y="885" on="0"/>
        <pt x="376" y="862" on="0"/>
        <pt x="376" y="844" on="1"/>
        <pt x="376" y="827" on="0"/>
        <pt x="400" y="805" on="0"/>
        <pt x="417" y="805" on="1"/>
        <pt x="434" y="805" on="0"/>
        <pt x="457" y="828" on="0"/>
        <pt x="457" y="846" on="1"/>
        <pt x="457" y="863" on="0"/>
        <pt x="434" y="885" on="0"/>
        <pt x="417" y="885" on="1"/>
      </contour>
      <contour>
        <pt x="759" y="136" on="0"/>
        <pt x="581" y="-12" on="0"/>
        <pt x="417" y="-12" on="1"/>
        <pt x="253" y="-12" on="0"/>
        <pt x="74" y="136" on="0"/>
        <pt x="74" y="277" on="1"/>
        <pt x="74" y="688" on="1"/>
        <pt x="295" y="688" on="1"/>
        <pt x="295" y="280" on="1"/>
        <pt x="295" y="222" on="0"/>
        <pt x="357" y="153" on="0"/>
        <pt x="416" y="153" on="1"/>
        <pt x="475" y="153" on="0"/>
        <pt x="538" y="223" on="0"/>
        <pt x="538" y="280" on="1"/>
        <pt x="538" y="688" on="1"/>
        <pt x="759" y="688" on="1"/>
        <pt x="759" y="277" on="1"/>
      </contour>
    </TTGlyph>
    <TTGlyph name="Utilde" xMin="74" yMin="-12" xMax="759" yMax="885">
      <contour>
        <pt x="639" y="849" on="0"/>
        <pt x="603" y="783" on="0"/>
        <pt x="539" y="742" on="0"/>
        <pt x="499" y="742" on="1"/>
        <pt x="477" y="742" on="0"/>
        <pt x="436" y="752" on="0"/>
        <pt x="404" y="763" on="1"/>
        <pt x="379" y="772" on="0"/>
        <pt x="343" y="782" on="0"/>
        <pt x="326" y="782" on="1"/>
        <pt x="307" y="782" on="0"/>
        <pt x="281" y="760" on="0"/>
        <pt x="275" y="742" on="1"/>
        <pt x="194" y="742" on="1"/>
        <pt x="194" y="778" on="0"/>
        <pt x="230" y="844" on="0"/>
        <pt x="294" y="885" on="0"/>
        <pt x="334" y="885" on="1"/>
        <pt x="356" y="885" on="0"/>
        <pt x="397" y="875" on="0"/>
        <pt x="429" y="864" on="1"/>
        <pt x="454" y="855" on="0"/>
        <pt x="490" y="845" on="0"/>
        <pt x="507" y="845" on="1"/>
        <pt x="526" y="845" on="0"/>
        <pt x="552" y="867" on="0"/>
        <pt x="558" y="885" on="1"/>
        <pt x="639" y="885" on="1"/>
      </contour>
      <contour>
        <pt x="759" y="136" on="0"/>
        <pt x="581" y="-12" on="0"/>
        <pt x="417" y="-12" on="1"/>
        <pt x="253" y="-12" on="0"/>
        <pt x="74" y="136" on="0"/>
        <pt x="74" y="277" on="1"/>
        <pt x="74" y="688" on="1"/>
        <pt x="295" y="688" on="1"/>
        <pt x="295" y="280" on="1"/>
        <pt x="295" y="222" on="0"/>
        <pt x="357" y="153" on="0"/>
        <pt x="416" y="153" on="1"/>
        <pt x="475" y="153" on="0"/>
        <pt x="538" y="223" on="0"/>
        <pt x="538" y="280" on="1"/>
        <pt x="538" y="688" on="1"/>
        <pt x="759" y="688" on="1"/>
        <pt x="759" y="277" on="1"/>
      </contour>
    </TTGlyph>
    <TTGlyph name="V" xMin="17" yMin="0" xMax="760" yMax="688">
      <contour>
        <pt x="261" y="0" on="1"/>
        <pt x="17" y="688" on="1"/>
        <pt x="253" y="688" on="1"/>
        <pt x="391" y="228" on="1"/>
        <pt x="395" y="228" on="1"/>
        <pt x="534" y="688" on="1"/>
        <pt x="760" y="688" on="1"/>
        <pt x="517" y="0" on="1"/>
      </contour>
    </TTGlyph>
    <TTGlyph name="W" xMin="5" yMin="0" xMax="995" yMax="688">
      <contour>
        <pt x="591" y="0" on="1"/>
        <pt x="502" y="419" on="1"/>
        <pt x="498" y="419" on="1"/>
        <pt x="409" y="0" on="1"/>
        <pt x="166" y="0" on="1"/>
        <pt x="5" y="688" on="1"/>
        <pt x="235" y="688" on="1"/>
        <pt x="314" y="298" on="1"/>
        <pt x="318" y="298" on="1"/>
        <pt x="396" y="688" on="1"/>
        <pt x="614" y="688" on="1"/>
        <pt x="697" y="298" on="1"/>
        <pt x="701" y="298" on="1"/>
        <pt x="775" y="688" on="1"/>
        <pt x="995" y="688" on="1"/>
        <pt x="834" y="0" on="1"/>
      </contour>
    </TTGlyph>
    <TTGlyph name="Wacute" xMin="5" yMin="0" xMax="995" yMax="885">
      <contour>
        <pt x="404" y="752" on="1"/>
        <pt x="496" y="885" on="1"/>
        <pt x="689" y="885" on="1"/>
        <pt x="691" y="881" on="1"/>
        <pt x="531" y="752" on="1"/>
      </contour>
      <contour>
        <pt x="502" y="419" on="1"/>
        <pt x="498" y="419" on="1"/>
        <pt x="409" y="0" on="1"/>
        <pt x="166" y="0" on="1"/>
        <pt x="5" y="688" on="1"/>
        <pt x="235" y="688" on="1"/>
        <pt x="314" y="298" on="1"/>
        <pt x="318" y="298" on="1"/>
        <pt x="396" y="688" on="1"/>
        <pt x="614" y="688" on="1"/>
        <pt x="697" y="298" on="1"/>
        <pt x="701" y="298" on="1"/>
        <pt x="775" y="688" on="1"/>
        <pt x="995" y="688" on="1"/>
        <pt x="834" y="0" on="1"/>
        <pt x="591" y="0" on="1"/>
      </contour>
    </TTGlyph>
    <TTGlyph name="Wcircumflex" xMin="5" yMin="0" xMax="995" yMax="885">
      <contour>
        <pt x="573" y="740" on="1"/>
        <pt x="499" y="817" on="1"/>
        <pt x="425" y="740" on="1"/>
        <pt x="297" y="740" on="1"/>
        <pt x="436" y="885" on="1"/>
        <pt x="564" y="885" on="1"/>
        <pt x="703" y="740" on="1"/>
      </contour>
      <contour>
        <pt x="591" y="0" on="1"/>
        <pt x="502" y="419" on="1"/>
        <pt x="498" y="419" on="1"/>
        <pt x="409" y="0" on="1"/>
        <pt x="166" y="0" on="1"/>
        <pt x="5" y="688" on="1"/>
        <pt x="235" y="688" on="1"/>
        <pt x="314" y="298" on="1"/>
        <pt x="318" y="298" on="1"/>
        <pt x="396" y="688" on="1"/>
        <pt x="614" y="688" on="1"/>
        <pt x="697" y="298" on="1"/>
        <pt x="701" y="298" on="1"/>
        <pt x="775" y="688" on="1"/>
        <pt x="995" y="688" on="1"/>
        <pt x="834" y="0" on="1"/>
      </contour>
    </TTGlyph>
    <TTGlyph name="Wdieresis" xMin="5" yMin="0" xMax="995" yMax="885">
      <contour>
        <pt x="314" y="746" on="1"/>
        <pt x="314" y="885" on="1"/>
        <pt x="466" y="885" on="1"/>
        <pt x="466" y="746" on="1"/>
      </contour>
      <contour>
        <pt x="534" y="746" on="1"/>
        <pt x="534" y="885" on="1"/>
        <pt x="686" y="885" on="1"/>
        <pt x="686" y="746" on="1"/>
      </contour>
      <contour>
        <pt x="591" y="0" on="1"/>
        <pt x="502" y="419" on="1"/>
        <pt x="498" y="419" on="1"/>
        <pt x="409" y="0" on="1"/>
        <pt x="166" y="0" on="1"/>
        <pt x="5" y="688" on="1"/>
        <pt x="235" y="688" on="1"/>
        <pt x="314" y="298" on="1"/>
        <pt x="318" y="298" on="1"/>
        <pt x="396" y="688" on="1"/>
        <pt x="614" y="688" on="1"/>
        <pt x="697" y="298" on="1"/>
        <pt x="701" y="298" on="1"/>
        <pt x="775" y="688" on="1"/>
        <pt x="995" y="688" on="1"/>
        <pt x="834" y="0" on="1"/>
      </contour>
    </TTGlyph>
    <TTGlyph name="Wgrave" xMin="5" yMin="0" xMax="995" yMax="885">
      <contour>
        <pt x="309" y="881" on="1"/>
        <pt x="311" y="885" on="1"/>
        <pt x="504" y="885" on="1"/>
        <pt x="596" y="752" on="1"/>
        <pt x="469" y="752" on="1"/>
      </contour>
      <contour>
        <pt x="502" y="419" on="1"/>
        <pt x="498" y="419" on="1"/>
        <pt x="409" y="0" on="1"/>
        <pt x="166" y="0" on="1"/>
        <pt x="5" y="688" on="1"/>
        <pt x="235" y="688" on="1"/>
        <pt x="314" y="298" on="1"/>
        <pt x="318" y="298" on="1"/>
        <pt x="396" y="688" on="1"/>
        <pt x="614" y="688" on="1"/>
        <pt x="697" y="298" on="1"/>
        <pt x="701" y="298" on="1"/>
        <pt x="775" y="688" on="1"/>
        <pt x="995" y="688" on="1"/>
        <pt x="834" y="0" on="1"/>
        <pt x="591" y="0" on="1"/>
      </contour>
    </TTGlyph>
    <TTGlyph name="X" xMin="4" yMin="0" xMax="778" yMax="688">
      <contour>
        <pt x="778" y="0" on="1"/>
        <pt x="510" y="0" on="1"/>
        <pt x="383" y="214" on="1"/>
        <pt x="379" y="214" on="1"/>
        <pt x="252" y="0" on="1"/>
        <pt x="4" y="0" on="1"/>
        <pt x="250" y="364" on="1"/>
        <pt x="28" y="688" on="1"/>
        <pt x="295" y="688" on="1"/>
        <pt x="399" y="512" on="1"/>
        <pt x="403" y="512" on="1"/>
        <pt x="508" y="688" on="1"/>
        <pt x="755" y="688" on="1"/>
        <pt x="532" y="363" on="1"/>
      </contour>
    </TTGlyph>
    <TTGlyph name="Y" xMin="7" yMin="0" xMax="770" yMax="688">
      <contour>
        <pt x="501" y="0" on="1"/>
        <pt x="280" y="0" on="1"/>
        <pt x="280" y="267" on="1"/>
        <pt x="7" y="688" on="1"/>
        <pt x="261" y="688" on="1"/>
        <pt x="393" y="459" on="1"/>
        <pt x="397" y="459" on="1"/>
        <pt x="529" y="688" on="1"/>
        <pt x="770" y="688" on="1"/>
        <pt x="501" y="267" on="1"/>
      </contour>
    </TTGlyph>
    <TTGlyph name="Yacute" xMin="7" yMin="0" xMax="770" yMax="885">
      <contour>
        <pt x="293" y="752" on="1"/>
        <pt x="385" y="885" on="1"/>
        <pt x="578" y="885" on="1"/>
        <pt x="580" y="881" on="1"/>
        <pt x="420" y="752" on="1"/>
      </contour>
      <contour>
        <pt x="280" y="0" on="1"/>
        <pt x="280" y="267" on="1"/>
        <pt x="7" y="688" on="1"/>
        <pt x="261" y="688" on="1"/>
        <pt x="393" y="459" on="1"/>
        <pt x="397" y="459" on="1"/>
        <pt x="529" y="688" on="1"/>
        <pt x="770" y="688" on="1"/>
        <pt x="501" y="267" on="1"/>
        <pt x="501" y="0" on="1"/>
      </contour>
    </TTGlyph>
    <TTGlyph name="Ycircumflex" xMin="7" yMin="0" xMax="770" yMax="885">
      <contour>
        <pt x="462" y="740" on="1"/>
        <pt x="388" y="817" on="1"/>
        <pt x="314" y="740" on="1"/>
        <pt x="186" y="740" on="1"/>
        <pt x="325" y="885" on="1"/>
        <pt x="453" y="885" on="1"/>
        <pt x="592" y="740" on="1"/>
      </contour>
      <contour>
        <pt x="501" y="0" on="1"/>
        <pt x="280" y="0" on="1"/>
        <pt x="280" y="267" on="1"/>
        <pt x="7" y="688" on="1"/>
        <pt x="261" y="688" on="1"/>
        <pt x="393" y="459" on="1"/>
        <pt x="397" y="459" on="1"/>
        <pt x="529" y="688" on="1"/>
        <pt x="770" y="688" on="1"/>
        <pt x="501" y="267" on="1"/>
      </contour>
    </TTGlyph>
    <TTGlyph name="Ydieresis" xMin="7" yMin="0" xMax="770" yMax="885">
      <contour>
        <pt x="203" y="746" on="1"/>
        <pt x="203" y="885" on="1"/>
        <pt x="355" y="885" on="1"/>
        <pt x="355" y="746" on="1"/>
      </contour>
      <contour>
        <pt x="423" y="746" on="1"/>
        <pt x="423" y="885" on="1"/>
        <pt x="575" y="885" on="1"/>
        <pt x="575" y="746" on="1"/>
      </contour>
      <contour>
        <pt x="501" y="0" on="1"/>
        <pt x="280" y="0" on="1"/>
        <pt x="280" y="267" on="1"/>
        <pt x="7" y="688" on="1"/>
        <pt x="261" y="688" on="1"/>
        <pt x="393" y="459" on="1"/>
        <pt x="397" y="459" on="1"/>
        <pt x="529" y="688" on="1"/>
        <pt x="770" y="688" on="1"/>
        <pt x="501" y="267" on="1"/>
      </contour>
    </TTGlyph>
    <TTGlyph name="Ygrave" xMin="7" yMin="0" xMax="770" yMax="885">
      <contour>
        <pt x="198" y="881" on="1"/>
        <pt x="200" y="885" on="1"/>
        <pt x="393" y="885" on="1"/>
        <pt x="485" y="752" on="1"/>
        <pt x="358" y="752" on="1"/>
      </contour>
      <contour>
        <pt x="280" y="0" on="1"/>
        <pt x="280" y="267" on="1"/>
        <pt x="7" y="688" on="1"/>
        <pt x="261" y="688" on="1"/>
        <pt x="393" y="459" on="1"/>
        <pt x="397" y="459" on="1"/>
        <pt x="529" y="688" on="1"/>
        <pt x="770" y="688" on="1"/>
        <pt x="501" y="267" on="1"/>
        <pt x="501" y="0" on="1"/>
      </contour>
    </TTGlyph>
    <TTGlyph name="Z" xMin="24" yMin="0" xMax="691" yMax="688">
      <contour>
        <pt x="364" y="165" on="1"/>
        <pt x="691" y="165" on="1"/>
        <pt x="691" y="0" on="1"/>
        <pt x="24" y="0" on="1"/>
        <pt x="24" y="71" on="1"/>
        <pt x="343" y="523" on="1"/>
        <pt x="48" y="523" on="1"/>
        <pt x="48" y="688" on="1"/>
        <pt x="683" y="688" on="1"/>
        <pt x="683" y="617" on="1"/>
      </contour>
    </TTGlyph>
    <TTGlyph name="Zacute" xMin="24" yMin="0" xMax="691" yMax="885">
      <contour>
        <pt x="265" y="752" on="1"/>
        <pt x="357" y="885" on="1"/>
        <pt x="550" y="885" on="1"/>
        <pt x="552" y="881" on="1"/>
        <pt x="393" y="752" on="1"/>
      </contour>
      <contour>
        <pt x="691" y="165" on="1"/>
        <pt x="691" y="0" on="1"/>
        <pt x="24" y="0" on="1"/>
        <pt x="24" y="71" on="1"/>
        <pt x="343" y="523" on="1"/>
        <pt x="48" y="523" on="1"/>
        <pt x="48" y="688" on="1"/>
        <pt x="683" y="688" on="1"/>
        <pt x="683" y="617" on="1"/>
        <pt x="364" y="165" on="1"/>
      </contour>
    </TTGlyph>
    <TTGlyph name="Zcaron" xMin="24" yMin="0" xMax="691" yMax="885">
      <contour>
        <pt x="297" y="740" on="1"/>
        <pt x="158" y="885" on="1"/>
        <pt x="286" y="885" on="1"/>
        <pt x="360" y="808" on="1"/>
        <pt x="435" y="885" on="1"/>
        <pt x="564" y="885" on="1"/>
        <pt x="425" y="740" on="1"/>
      </contour>
      <contour>
        <pt x="364" y="165" on="1"/>
        <pt x="691" y="165" on="1"/>
        <pt x="691" y="0" on="1"/>
        <pt x="24" y="0" on="1"/>
        <pt x="24" y="71" on="1"/>
        <pt x="343" y="523" on="1"/>
        <pt x="48" y="523" on="1"/>
        <pt x="48" y="688" on="1"/>
        <pt x="683" y="688" on="1"/>
        <pt x="683" y="617" on="1"/>
      </contour>
    </TTGlyph>
    <TTGlyph name="Zdotaccent" xMin="24" yMin="0" xMax="691" yMax="885">
      <contour>
        <pt x="285" y="746" on="1"/>
        <pt x="285" y="885" on="1"/>
        <pt x="437" y="885" on="1"/>
        <pt x="437" y="746" on="1"/>
      </contour>
      <contour>
        <pt x="364" y="165" on="1"/>
        <pt x="691" y="165" on="1"/>
        <pt x="691" y="0" on="1"/>
        <pt x="24" y="0" on="1"/>
        <pt x="24" y="71" on="1"/>
        <pt x="343" y="523" on="1"/>
        <pt x="48" y="523" on="1"/>
        <pt x="48" y="688" on="1"/>
        <pt x="683" y="688" on="1"/>
        <pt x="683" y="617" on="1"/>
      </contour>
    </TTGlyph>
    <TTGlyph name="a" xMin="30" yMin="-12" xMax="662" yMax="540">
      <contour>
        <pt x="442" y="540" on="0"/>
        <pt x="594" y="459" on="0"/>
        <pt x="594" y="368" on="1"/>
        <pt x="594" y="162" on="1"/>
        <pt x="594" y="145" on="0"/>
        <pt x="610" y="123" on="0"/>
        <pt x="626" y="123" on="1"/>
        <pt x="662" y="123" on="1"/>
        <pt x="662" y="8" on="1"/>
        <pt x="659" y="6" on="0"/>
        <pt x="634" y="-3" on="0"/>
        <pt x="588" y="-12" on="0"/>
        <pt x="558" y="-12" on="1"/>
        <pt x="500" y="-12" on="0"/>
        <pt x="425" y="23" on="0"/>
        <pt x="411" y="54" on="1"/>
        <pt x="373" y="24" on="0"/>
        <pt x="279" y="-12" on="0"/>
        <pt x="216" y="-12" on="1"/>
        <pt x="30" y="-12" on="0"/>
        <pt x="30" y="136" on="1"/>
        <pt x="30" y="213" on="0"/>
        <pt x="113" y="294" on="0"/>
        <pt x="269" y="324" on="0"/>
        <pt x="395" y="324" on="1"/>
        <pt x="395" y="350" on="1"/>
        <pt x="395" y="381" on="0"/>
        <pt x="352" y="413" on="0"/>
        <pt x="318" y="413" on="1"/>
        <pt x="287" y="413" on="0"/>
        <pt x="242" y="391" on="0"/>
        <pt x="242" y="367" on="1"/>
        <pt x="242" y="363" on="1"/>
        <pt x="46" y="363" on="1"/>
        <pt x="45" y="368" on="0"/>
        <pt x="45" y="377" on="1"/>
        <pt x="45" y="452" on="0"/>
        <pt x="188" y="540" on="0"/>
        <pt x="321" y="540" on="1"/>
      </contour>
      <contour>
        <pt x="310" y="230" on="0"/>
        <pt x="229" y="193" on="0"/>
        <pt x="229" y="162" on="1"/>
        <pt x="229" y="112" on="0"/>
        <pt x="297" y="112" on="1"/>
        <pt x="336" y="112" on="0"/>
        <pt x="395" y="154" on="0"/>
        <pt x="395" y="185" on="1"/>
        <pt x="395" y="230" on="1"/>
      </contour>
    </TTGlyph>
    <TTGlyph name="aacute" xMin="30" yMin="-12" xMax="662" yMax="725">
      <contour>
        <pt x="225" y="592" on="1"/>
        <pt x="317" y="725" on="1"/>
        <pt x="510" y="725" on="1"/>
        <pt x="512" y="721" on="1"/>
        <pt x="353" y="592" on="1"/>
      </contour>
      <contour>
        <pt x="442" y="540" on="0"/>
        <pt x="594" y="459" on="0"/>
        <pt x="594" y="368" on="1"/>
        <pt x="594" y="162" on="1"/>
        <pt x="594" y="145" on="0"/>
        <pt x="610" y="123" on="0"/>
        <pt x="626" y="123" on="1"/>
        <pt x="662" y="123" on="1"/>
        <pt x="662" y="8" on="1"/>
        <pt x="659" y="6" on="0"/>
        <pt x="634" y="-3" on="0"/>
        <pt x="588" y="-12" on="0"/>
        <pt x="558" y="-12" on="1"/>
        <pt x="500" y="-12" on="0"/>
        <pt x="425" y="23" on="0"/>
        <pt x="411" y="54" on="1"/>
        <pt x="373" y="24" on="0"/>
        <pt x="279" y="-12" on="0"/>
        <pt x="216" y="-12" on="1"/>
        <pt x="30" y="-12" on="0"/>
        <pt x="30" y="136" on="1"/>
        <pt x="30" y="213" on="0"/>
        <pt x="113" y="294" on="0"/>
        <pt x="269" y="324" on="0"/>
        <pt x="395" y="324" on="1"/>
        <pt x="395" y="350" on="1"/>
        <pt x="395" y="381" on="0"/>
        <pt x="352" y="413" on="0"/>
        <pt x="318" y="413" on="1"/>
        <pt x="287" y="413" on="0"/>
        <pt x="242" y="391" on="0"/>
        <pt x="242" y="367" on="1"/>
        <pt x="242" y="363" on="1"/>
        <pt x="46" y="363" on="1"/>
        <pt x="45" y="368" on="0"/>
        <pt x="45" y="377" on="1"/>
        <pt x="45" y="452" on="0"/>
        <pt x="188" y="540" on="0"/>
        <pt x="321" y="540" on="1"/>
      </contour>
      <contour>
        <pt x="310" y="230" on="0"/>
        <pt x="229" y="193" on="0"/>
        <pt x="229" y="162" on="1"/>
        <pt x="229" y="112" on="0"/>
        <pt x="297" y="112" on="1"/>
        <pt x="336" y="112" on="0"/>
        <pt x="395" y="154" on="0"/>
        <pt x="395" y="185" on="1"/>
        <pt x="395" y="230" on="1"/>
      </contour>
    </TTGlyph>
    <TTGlyph name="abreve" xMin="30" yMin="-12" xMax="662" yMax="725">
      <contour>
        <pt x="518" y="691" on="0"/>
        <pt x="472" y="624" on="0"/>
        <pt x="387" y="581" on="0"/>
        <pt x="333" y="581" on="1"/>
        <pt x="278" y="581" on="0"/>
        <pt x="194" y="624" on="0"/>
        <pt x="149" y="691" on="0"/>
        <pt x="149" y="725" on="1"/>
        <pt x="245" y="725" on="1"/>
        <pt x="247" y="717" on="0"/>
        <pt x="261" y="699" on="0"/>
        <pt x="272" y="692" on="1"/>
        <pt x="299" y="675" on="0"/>
        <pt x="333" y="675" on="1"/>
        <pt x="368" y="675" on="0"/>
        <pt x="420" y="707" on="0"/>
        <pt x="423" y="725" on="1"/>
        <pt x="518" y="725" on="1"/>
      </contour>
      <contour>
        <pt x="442" y="540" on="0"/>
        <pt x="594" y="459" on="0"/>
        <pt x="594" y="368" on="1"/>
        <pt x="594" y="162" on="1"/>
        <pt x="594" y="145" on="0"/>
        <pt x="610" y="123" on="0"/>
        <pt x="626" y="123" on="1"/>
        <pt x="662" y="123" on="1"/>
        <pt x="662" y="8" on="1"/>
        <pt x="659" y="6" on="0"/>
        <pt x="634" y="-3" on="0"/>
        <pt x="588" y="-12" on="0"/>
        <pt x="558" y="-12" on="1"/>
        <pt x="500" y="-12" on="0"/>
        <pt x="425" y="23" on="0"/>
        <pt x="411" y="54" on="1"/>
        <pt x="373" y="24" on="0"/>
        <pt x="279" y="-12" on="0"/>
        <pt x="216" y="-12" on="1"/>
        <pt x="30" y="-12" on="0"/>
        <pt x="30" y="136" on="1"/>
        <pt x="30" y="213" on="0"/>
        <pt x="113" y="294" on="0"/>
        <pt x="269" y="324" on="0"/>
        <pt x="395" y="324" on="1"/>
        <pt x="395" y="350" on="1"/>
        <pt x="395" y="381" on="0"/>
        <pt x="352" y="413" on="0"/>
        <pt x="318" y="413" on="1"/>
        <pt x="287" y="413" on="0"/>
        <pt x="242" y="391" on="0"/>
        <pt x="242" y="367" on="1"/>
        <pt x="242" y="363" on="1"/>
        <pt x="46" y="363" on="1"/>
        <pt x="45" y="368" on="0"/>
        <pt x="45" y="377" on="1"/>
        <pt x="45" y="452" on="0"/>
        <pt x="188" y="540" on="0"/>
        <pt x="321" y="540" on="1"/>
      </contour>
      <contour>
        <pt x="310" y="230" on="0"/>
        <pt x="229" y="193" on="0"/>
        <pt x="229" y="162" on="1"/>
        <pt x="229" y="112" on="0"/>
        <pt x="297" y="112" on="1"/>
        <pt x="336" y="112" on="0"/>
        <pt x="395" y="154" on="0"/>
        <pt x="395" y="185" on="1"/>
        <pt x="395" y="230" on="1"/>
      </contour>
    </TTGlyph>
    <TTGlyph name="acircumflex" xMin="30" yMin="-12" xMax="662" yMax="725">
      <contour>
        <pt x="407" y="580" on="1"/>
        <pt x="333" y="657" on="1"/>
        <pt x="258" y="580" on="1"/>
        <pt x="130" y="580" on="1"/>
        <pt x="270" y="725" on="1"/>
        <pt x="397" y="725" on="1"/>
        <pt x="537" y="580" on="1"/>
      </contour>
      <contour>
        <pt x="442" y="540" on="0"/>
        <pt x="594" y="459" on="0"/>
        <pt x="594" y="368" on="1"/>
        <pt x="594" y="162" on="1"/>
        <pt x="594" y="145" on="0"/>
        <pt x="610" y="123" on="0"/>
        <pt x="626" y="123" on="1"/>
        <pt x="662" y="123" on="1"/>
        <pt x="662" y="8" on="1"/>
        <pt x="659" y="6" on="0"/>
        <pt x="634" y="-3" on="0"/>
        <pt x="588" y="-12" on="0"/>
        <pt x="558" y="-12" on="1"/>
        <pt x="500" y="-12" on="0"/>
        <pt x="425" y="23" on="0"/>
        <pt x="411" y="54" on="1"/>
        <pt x="373" y="24" on="0"/>
        <pt x="279" y="-12" on="0"/>
        <pt x="216" y="-12" on="1"/>
        <pt x="30" y="-12" on="0"/>
        <pt x="30" y="136" on="1"/>
        <pt x="30" y="213" on="0"/>
        <pt x="113" y="294" on="0"/>
        <pt x="269" y="324" on="0"/>
        <pt x="395" y="324" on="1"/>
        <pt x="395" y="350" on="1"/>
        <pt x="395" y="381" on="0"/>
        <pt x="352" y="413" on="0"/>
        <pt x="318" y="413" on="1"/>
        <pt x="287" y="413" on="0"/>
        <pt x="242" y="391" on="0"/>
        <pt x="242" y="367" on="1"/>
        <pt x="242" y="363" on="1"/>
        <pt x="46" y="363" on="1"/>
        <pt x="45" y="368" on="0"/>
        <pt x="45" y="377" on="1"/>
        <pt x="45" y="452" on="0"/>
        <pt x="188" y="540" on="0"/>
        <pt x="321" y="540" on="1"/>
      </contour>
      <contour>
        <pt x="310" y="230" on="0"/>
        <pt x="229" y="193" on="0"/>
        <pt x="229" y="162" on="1"/>
        <pt x="229" y="112" on="0"/>
        <pt x="297" y="112" on="1"/>
        <pt x="336" y="112" on="0"/>
        <pt x="395" y="154" on="0"/>
        <pt x="395" y="185" on="1"/>
        <pt x="395" y="230" on="1"/>
      </contour>
    </TTGlyph>
    <TTGlyph name="acute" xMin="30" yMin="592" xMax="317" yMax="725">
      <contour>
        <pt x="157" y="592" on="1"/>
        <pt x="30" y="592" on="1"/>
        <pt x="122" y="725" on="1"/>
        <pt x="315" y="725" on="1"/>
        <pt x="317" y="721" on="1"/>
      </contour>
    </TTGlyph>
    <TTGlyph name="adieresis" xMin="30" yMin="-12" xMax="662" yMax="725">
      <contour>
        <pt x="147" y="586" on="1"/>
        <pt x="147" y="725" on="1"/>
        <pt x="299" y="725" on="1"/>
        <pt x="299" y="586" on="1"/>
      </contour>
      <contour>
        <pt x="368" y="586" on="1"/>
        <pt x="368" y="725" on="1"/>
        <pt x="520" y="725" on="1"/>
        <pt x="520" y="586" on="1"/>
      </contour>
      <contour>
        <pt x="442" y="540" on="0"/>
        <pt x="594" y="459" on="0"/>
        <pt x="594" y="368" on="1"/>
        <pt x="594" y="162" on="1"/>
        <pt x="594" y="145" on="0"/>
        <pt x="610" y="123" on="0"/>
        <pt x="626" y="123" on="1"/>
        <pt x="662" y="123" on="1"/>
        <pt x="662" y="8" on="1"/>
        <pt x="659" y="6" on="0"/>
        <pt x="634" y="-3" on="0"/>
        <pt x="588" y="-12" on="0"/>
        <pt x="558" y="-12" on="1"/>
        <pt x="500" y="-12" on="0"/>
        <pt x="425" y="23" on="0"/>
        <pt x="411" y="54" on="1"/>
        <pt x="373" y="24" on="0"/>
        <pt x="279" y="-12" on="0"/>
        <pt x="216" y="-12" on="1"/>
        <pt x="30" y="-12" on="0"/>
        <pt x="30" y="136" on="1"/>
        <pt x="30" y="213" on="0"/>
        <pt x="113" y="294" on="0"/>
        <pt x="269" y="324" on="0"/>
        <pt x="395" y="324" on="1"/>
        <pt x="395" y="350" on="1"/>
        <pt x="395" y="381" on="0"/>
        <pt x="352" y="413" on="0"/>
        <pt x="318" y="413" on="1"/>
        <pt x="287" y="413" on="0"/>
        <pt x="242" y="391" on="0"/>
        <pt x="242" y="367" on="1"/>
        <pt x="242" y="363" on="1"/>
        <pt x="46" y="363" on="1"/>
        <pt x="45" y="368" on="0"/>
        <pt x="45" y="377" on="1"/>
        <pt x="45" y="452" on="0"/>
        <pt x="188" y="540" on="0"/>
        <pt x="321" y="540" on="1"/>
      </contour>
      <contour>
        <pt x="310" y="230" on="0"/>
        <pt x="229" y="193" on="0"/>
        <pt x="229" y="162" on="1"/>
        <pt x="229" y="112" on="0"/>
        <pt x="297" y="112" on="1"/>
        <pt x="336" y="112" on="0"/>
        <pt x="395" y="154" on="0"/>
        <pt x="395" y="185" on="1"/>
        <pt x="395" y="230" on="1"/>
      </contour>
    </TTGlyph>
    <TTGlyph name="ae" xMin="30" yMin="-12" xMax="972" yMax="540">
      <contour>
        <pt x="972" y="540" on="0"/>
        <pt x="972" y="264" on="1"/>
        <pt x="972" y="230" on="1"/>
        <pt x="596" y="230" on="1"/>
        <pt x="596" y="173" on="0"/>
        <pt x="642" y="115" on="0"/>
        <pt x="692" y="115" on="1"/>
        <pt x="737" y="115" on="0"/>
        <pt x="779" y="157" on="0"/>
        <pt x="779" y="192" on="1"/>
        <pt x="972" y="192" on="1"/>
        <pt x="972" y="96" on="0"/>
        <pt x="836" y="-12" on="0"/>
        <pt x="706" y="-12" on="1"/>
        <pt x="549" y="-12" on="0"/>
        <pt x="472" y="61" on="1"/>
        <pt x="374" y="-12" on="0"/>
        <pt x="256" y="-12" on="1"/>
        <pt x="145" y="-12" on="0"/>
        <pt x="30" y="59" on="0"/>
        <pt x="30" y="146" on="1"/>
        <pt x="30" y="218" on="0"/>
        <pt x="113" y="296" on="0"/>
        <pt x="269" y="324" on="0"/>
        <pt x="395" y="324" on="1"/>
        <pt x="395" y="350" on="1"/>
        <pt x="395" y="381" on="0"/>
        <pt x="354" y="413" on="0"/>
        <pt x="322" y="413" on="1"/>
        <pt x="289" y="413" on="0"/>
        <pt x="242" y="391" on="0"/>
        <pt x="242" y="367" on="1"/>
        <pt x="242" y="363" on="1"/>
        <pt x="46" y="363" on="1"/>
        <pt x="45" y="368" on="0"/>
        <pt x="45" y="377" on="1"/>
        <pt x="45" y="452" on="0"/>
        <pt x="188" y="540" on="0"/>
        <pt x="321" y="540" on="1"/>
        <pt x="449" y="540" on="0"/>
        <pt x="518" y="492" on="1"/>
        <pt x="590" y="540" on="0"/>
        <pt x="694" y="540" on="1"/>
      </contour>
      <contour>
        <pt x="607" y="413" on="0"/>
        <pt x="597" y="324" on="1"/>
        <pt x="771" y="324" on="1"/>
        <pt x="771" y="366" on="0"/>
        <pt x="727" y="413" on="0"/>
        <pt x="688" y="413" on="1"/>
      </contour>
      <contour>
        <pt x="310" y="230" on="0"/>
        <pt x="229" y="193" on="0"/>
        <pt x="229" y="162" on="1"/>
        <pt x="229" y="112" on="0"/>
        <pt x="297" y="112" on="1"/>
        <pt x="336" y="112" on="0"/>
        <pt x="395" y="154" on="0"/>
        <pt x="395" y="185" on="1"/>
        <pt x="395" y="230" on="1"/>
      </contour>
    </TTGlyph>
    <TTGlyph name="aeacute" xMin="30" yMin="-12" xMax="972" yMax="725">
      <contour>
        <pt x="416" y="592" on="1"/>
        <pt x="508" y="725" on="1"/>
        <pt x="701" y="725" on="1"/>
        <pt x="703" y="721" on="1"/>
        <pt x="543" y="592" on="1"/>
      </contour>
      <contour>
        <pt x="972" y="540" on="0"/>
        <pt x="972" y="264" on="1"/>
        <pt x="972" y="230" on="1"/>
        <pt x="596" y="230" on="1"/>
        <pt x="596" y="173" on="0"/>
        <pt x="642" y="115" on="0"/>
        <pt x="692" y="115" on="1"/>
        <pt x="737" y="115" on="0"/>
        <pt x="779" y="157" on="0"/>
        <pt x="779" y="192" on="1"/>
        <pt x="972" y="192" on="1"/>
        <pt x="972" y="96" on="0"/>
        <pt x="836" y="-12" on="0"/>
        <pt x="706" y="-12" on="1"/>
        <pt x="549" y="-12" on="0"/>
        <pt x="472" y="61" on="1"/>
        <pt x="374" y="-12" on="0"/>
        <pt x="256" y="-12" on="1"/>
        <pt x="145" y="-12" on="0"/>
        <pt x="30" y="59" on="0"/>
        <pt x="30" y="146" on="1"/>
        <pt x="30" y="218" on="0"/>
        <pt x="113" y="296" on="0"/>
        <pt x="269" y="324" on="0"/>
        <pt x="395" y="324" on="1"/>
        <pt x="395" y="350" on="1"/>
        <pt x="395" y="381" on="0"/>
        <pt x="354" y="413" on="0"/>
        <pt x="322" y="413" on="1"/>
        <pt x="289" y="413" on="0"/>
        <pt x="242" y="391" on="0"/>
        <pt x="242" y="367" on="1"/>
        <pt x="242" y="363" on="1"/>
        <pt x="46" y="363" on="1"/>
        <pt x="45" y="368" on="0"/>
        <pt x="45" y="377" on="1"/>
        <pt x="45" y="452" on="0"/>
        <pt x="188" y="540" on="0"/>
        <pt x="321" y="540" on="1"/>
        <pt x="449" y="540" on="0"/>
        <pt x="518" y="492" on="1"/>
        <pt x="590" y="540" on="0"/>
        <pt x="694" y="540" on="1"/>
      </contour>
      <contour>
        <pt x="607" y="413" on="0"/>
        <pt x="597" y="324" on="1"/>
        <pt x="771" y="324" on="1"/>
        <pt x="771" y="366" on="0"/>
        <pt x="727" y="413" on="0"/>
        <pt x="688" y="413" on="1"/>
      </contour>
      <contour>
        <pt x="310" y="230" on="0"/>
        <pt x="229" y="193" on="0"/>
        <pt x="229" y="162" on="1"/>
        <pt x="229" y="112" on="0"/>
        <pt x="297" y="112" on="1"/>
        <pt x="336" y="112" on="0"/>
        <pt x="395" y="154" on="0"/>
        <pt x="395" y="185" on="1"/>
        <pt x="395" y="230" on="1"/>
      </contour>
    </TTGlyph>
    <TTGlyph name="agrave" xMin="30" yMin="-12" xMax="662" yMax="725">
      <contour>
        <pt x="130" y="721" on="1"/>
        <pt x="132" y="725" on="1"/>
        <pt x="325" y="725" on="1"/>
        <pt x="417" y="592" on="1"/>
        <pt x="291" y="592" on="1"/>
      </contour>
      <contour>
        <pt x="442" y="540" on="0"/>
        <pt x="594" y="459" on="0"/>
        <pt x="594" y="368" on="1"/>
        <pt x="594" y="162" on="1"/>
        <pt x="594" y="145" on="0"/>
        <pt x="610" y="123" on="0"/>
        <pt x="626" y="123" on="1"/>
        <pt x="662" y="123" on="1"/>
        <pt x="662" y="8" on="1"/>
        <pt x="659" y="6" on="0"/>
        <pt x="634" y="-3" on="0"/>
        <pt x="588" y="-12" on="0"/>
        <pt x="558" y="-12" on="1"/>
        <pt x="500" y="-12" on="0"/>
        <pt x="425" y="23" on="0"/>
        <pt x="411" y="54" on="1"/>
        <pt x="373" y="24" on="0"/>
        <pt x="279" y="-12" on="0"/>
        <pt x="216" y="-12" on="1"/>
        <pt x="30" y="-12" on="0"/>
        <pt x="30" y="136" on="1"/>
        <pt x="30" y="213" on="0"/>
        <pt x="113" y="294" on="0"/>
        <pt x="269" y="324" on="0"/>
        <pt x="395" y="324" on="1"/>
        <pt x="395" y="350" on="1"/>
        <pt x="395" y="381" on="0"/>
        <pt x="352" y="413" on="0"/>
        <pt x="318" y="413" on="1"/>
        <pt x="287" y="413" on="0"/>
        <pt x="242" y="391" on="0"/>
        <pt x="242" y="367" on="1"/>
        <pt x="242" y="363" on="1"/>
        <pt x="46" y="363" on="1"/>
        <pt x="45" y="368" on="0"/>
        <pt x="45" y="377" on="1"/>
        <pt x="45" y="452" on="0"/>
        <pt x="188" y="540" on="0"/>
        <pt x="321" y="540" on="1"/>
      </contour>
      <contour>
        <pt x="310" y="230" on="0"/>
        <pt x="229" y="193" on="0"/>
        <pt x="229" y="162" on="1"/>
        <pt x="229" y="112" on="0"/>
        <pt x="297" y="112" on="1"/>
        <pt x="336" y="112" on="0"/>
        <pt x="395" y="154" on="0"/>
        <pt x="395" y="185" on="1"/>
        <pt x="395" y="230" on="1"/>
      </contour>
    </TTGlyph>
    <TTGlyph name="amacron" xMin="30" yMin="-12" xMax="662" yMax="705">
      <contour>
        <pt x="175" y="605" on="1"/>
        <pt x="175" y="705" on="1"/>
        <pt x="492" y="705" on="1"/>
        <pt x="492" y="605" on="1"/>
      </contour>
      <contour>
        <pt x="442" y="540" on="0"/>
        <pt x="594" y="459" on="0"/>
        <pt x="594" y="368" on="1"/>
        <pt x="594" y="162" on="1"/>
        <pt x="594" y="145" on="0"/>
        <pt x="610" y="123" on="0"/>
        <pt x="626" y="123" on="1"/>
        <pt x="662" y="123" on="1"/>
        <pt x="662" y="8" on="1"/>
        <pt x="659" y="6" on="0"/>
        <pt x="634" y="-3" on="0"/>
        <pt x="588" y="-12" on="0"/>
        <pt x="558" y="-12" on="1"/>
        <pt x="500" y="-12" on="0"/>
        <pt x="425" y="23" on="0"/>
        <pt x="411" y="54" on="1"/>
        <pt x="373" y="24" on="0"/>
        <pt x="279" y="-12" on="0"/>
        <pt x="216" y="-12" on="1"/>
        <pt x="30" y="-12" on="0"/>
        <pt x="30" y="136" on="1"/>
        <pt x="30" y="213" on="0"/>
        <pt x="113" y="294" on="0"/>
        <pt x="269" y="324" on="0"/>
        <pt x="395" y="324" on="1"/>
        <pt x="395" y="350" on="1"/>
        <pt x="395" y="381" on="0"/>
        <pt x="352" y="413" on="0"/>
        <pt x="318" y="413" on="1"/>
        <pt x="287" y="413" on="0"/>
        <pt x="242" y="391" on="0"/>
        <pt x="242" y="367" on="1"/>
        <pt x="242" y="363" on="1"/>
        <pt x="46" y="363" on="1"/>
        <pt x="45" y="368" on="0"/>
        <pt x="45" y="377" on="1"/>
        <pt x="45" y="452" on="0"/>
        <pt x="188" y="540" on="0"/>
        <pt x="321" y="540" on="1"/>
      </contour>
      <contour>
        <pt x="310" y="230" on="0"/>
        <pt x="229" y="193" on="0"/>
        <pt x="229" y="162" on="1"/>
        <pt x="229" y="112" on="0"/>
        <pt x="297" y="112" on="1"/>
        <pt x="336" y="112" on="0"/>
        <pt x="395" y="154" on="0"/>
        <pt x="395" y="185" on="1"/>
        <pt x="395" y="230" on="1"/>
      </contour>
    </TTGlyph>
    <TTGlyph name="ampersand" xMin="75" yMin="-12" xMax="888" yMax="700">
      <contour>
        <pt x="519" y="700" on="0"/>
        <pt x="669" y="650" on="0"/>
        <pt x="749" y="564" on="0"/>
        <pt x="749" y="512" on="1"/>
        <pt x="749" y="487" on="1"/>
        <pt x="572" y="487" on="1"/>
        <pt x="572" y="518" on="0"/>
        <pt x="499" y="559" on="0"/>
        <pt x="430" y="559" on="1"/>
        <pt x="366" y="559" on="0"/>
        <pt x="299" y="510" on="0"/>
        <pt x="299" y="475" on="1"/>
        <pt x="299" y="444" on="0"/>
        <pt x="340" y="412" on="0"/>
        <pt x="370" y="412" on="1"/>
        <pt x="474" y="412" on="1"/>
        <pt x="474" y="289" on="1"/>
        <pt x="348" y="289" on="1"/>
        <pt x="317" y="289" on="0"/>
        <pt x="278" y="252" on="0"/>
        <pt x="278" y="217" on="1"/>
        <pt x="278" y="176" on="0"/>
        <pt x="347" y="129" on="0"/>
        <pt x="422" y="129" on="1"/>
        <pt x="572" y="129" on="0"/>
        <pt x="572" y="218" on="1"/>
        <pt x="572" y="412" on="1"/>
        <pt x="888" y="412" on="1"/>
        <pt x="888" y="289" on="1"/>
        <pt x="751" y="289" on="1"/>
        <pt x="751" y="222" on="1"/>
        <pt x="751" y="110" on="0"/>
        <pt x="592" y="-12" on="0"/>
        <pt x="423" y="-12" on="1"/>
        <pt x="249" y="-12" on="0"/>
        <pt x="75" y="100" on="0"/>
        <pt x="75" y="192" on="1"/>
        <pt x="75" y="252" on="0"/>
        <pt x="138" y="339" on="0"/>
        <pt x="195" y="357" on="1"/>
        <pt x="195" y="361" on="1"/>
        <pt x="152" y="377" on="0"/>
        <pt x="95" y="455" on="0"/>
        <pt x="95" y="503" on="1"/>
        <pt x="95" y="557" on="0"/>
        <pt x="168" y="647" on="0"/>
        <pt x="314" y="700" on="0"/>
        <pt x="417" y="700" on="1"/>
      </contour>
    </TTGlyph>
    <TTGlyph name="ampersand.alt" xMin="67" yMin="-12" xMax="856" yMax="700">
      <contour>
        <pt x="603" y="0" on="1"/>
        <pt x="569" y="34" on="1"/>
        <pt x="462" y="-12" on="0"/>
        <pt x="347" y="-12" on="1"/>
        <pt x="269" y="-12" on="0"/>
        <pt x="142" y="33" on="0"/>
        <pt x="67" y="125" on="0"/>
        <pt x="67" y="192" on="1"/>
        <pt x="67" y="265" on="0"/>
        <pt x="146" y="365" on="0"/>
        <pt x="209" y="394" on="1"/>
        <pt x="176" y="447" on="0"/>
        <pt x="176" y="504" on="1"/>
        <pt x="176" y="557" on="0"/>
        <pt x="237" y="647" on="0"/>
        <pt x="350" y="700" on="0"/>
        <pt x="424" y="700" on="1"/>
        <pt x="484" y="700" on="0"/>
        <pt x="584" y="659" on="0"/>
        <pt x="644" y="578" on="0"/>
        <pt x="644" y="523" on="1"/>
        <pt x="644" y="460" on="0"/>
        <pt x="573" y="360" on="0"/>
        <pt x="516" y="326" on="1"/>
        <pt x="602" y="244" on="1"/>
        <pt x="627" y="288" on="0"/>
        <pt x="627" y="344" on="1"/>
        <pt x="819" y="344" on="1"/>
        <pt x="803" y="222" on="0"/>
        <pt x="717" y="134" on="1"/>
        <pt x="856" y="0" on="1"/>
      </contour>
      <contour>
        <pt x="395" y="559" on="0"/>
        <pt x="372" y="533" on="0"/>
        <pt x="372" y="512" on="1"/>
        <pt x="372" y="489" on="0"/>
        <pt x="391" y="442" on="0"/>
        <pt x="411" y="425" on="1"/>
        <pt x="433" y="444" on="0"/>
        <pt x="459" y="494" on="0"/>
        <pt x="459" y="516" on="1"/>
        <pt x="459" y="536" on="0"/>
        <pt x="438" y="559" on="0"/>
        <pt x="416" y="559" on="1"/>
      </contour>
      <contour>
        <pt x="422" y="129" on="0"/>
        <pt x="461" y="140" on="1"/>
        <pt x="312" y="287" on="1"/>
        <pt x="291" y="273" on="0"/>
        <pt x="269" y="230" on="0"/>
        <pt x="269" y="209" on="1"/>
        <pt x="269" y="169" on="0"/>
        <pt x="336" y="129" on="0"/>
        <pt x="387" y="129" on="1"/>
      </contour>
    </TTGlyph>
    <TTGlyph name="aogonek" xMin="30" yMin="-211" xMax="662" yMax="540">
      <contour>
        <pt x="442" y="540" on="0"/>
        <pt x="594" y="459" on="0"/>
        <pt x="594" y="368" on="1"/>
        <pt x="594" y="162" on="1"/>
        <pt x="594" y="145" on="0"/>
        <pt x="610" y="123" on="0"/>
        <pt x="626" y="123" on="1"/>
        <pt x="662" y="123" on="1"/>
        <pt x="662" y="8" on="1"/>
        <pt x="659" y="6" on="0"/>
        <pt x="634" y="-3" on="0"/>
        <pt x="588" y="-12" on="0"/>
        <pt x="558" y="-12" on="1"/>
        <pt x="547" y="-41" on="0"/>
        <pt x="547" y="-69" on="1"/>
        <pt x="547" y="-91" on="0"/>
        <pt x="576" y="-120" on="0"/>
        <pt x="607" y="-120" on="1"/>
        <pt x="649" y="-120" on="1"/>
        <pt x="649" y="-196" on="1"/>
        <pt x="604" y="-211" on="0"/>
        <pt x="554" y="-211" on="1"/>
        <pt x="500" y="-211" on="0"/>
        <pt x="427" y="-155" on="0"/>
        <pt x="427" y="-97" on="1"/>
        <pt x="427" y="-68" on="0"/>
        <pt x="449" y="-23" on="0"/>
        <pt x="469" y="2" on="1"/>
        <pt x="427" y="20" on="0"/>
        <pt x="411" y="54" on="1"/>
        <pt x="373" y="24" on="0"/>
        <pt x="279" y="-12" on="0"/>
        <pt x="216" y="-12" on="1"/>
        <pt x="30" y="-12" on="0"/>
        <pt x="30" y="136" on="1"/>
        <pt x="30" y="213" on="0"/>
        <pt x="113" y="294" on="0"/>
        <pt x="269" y="324" on="0"/>
        <pt x="395" y="324" on="1"/>
        <pt x="395" y="350" on="1"/>
        <pt x="395" y="381" on="0"/>
        <pt x="352" y="413" on="0"/>
        <pt x="318" y="413" on="1"/>
        <pt x="287" y="413" on="0"/>
        <pt x="242" y="391" on="0"/>
        <pt x="242" y="367" on="1"/>
        <pt x="242" y="363" on="1"/>
        <pt x="46" y="363" on="1"/>
        <pt x="45" y="368" on="0"/>
        <pt x="45" y="377" on="1"/>
        <pt x="45" y="452" on="0"/>
        <pt x="188" y="540" on="0"/>
        <pt x="321" y="540" on="1"/>
      </contour>
      <contour>
        <pt x="310" y="230" on="0"/>
        <pt x="229" y="193" on="0"/>
        <pt x="229" y="162" on="1"/>
        <pt x="229" y="112" on="0"/>
        <pt x="297" y="112" on="1"/>
        <pt x="336" y="112" on="0"/>
        <pt x="395" y="154" on="0"/>
        <pt x="395" y="185" on="1"/>
        <pt x="395" y="230" on="1"/>
      </contour>
    </TTGlyph>
    <TTGlyph name="approxequal" xMin="39" yMin="41" xMax="621" yMax="497">
      <contour>
        <pt x="621" y="365" on="0"/>
        <pt x="571" y="323" on="0"/>
        <pt x="497" y="287" on="0"/>
        <pt x="453" y="287" on="1"/>
        <pt x="424" y="287" on="0"/>
        <pt x="370" y="304" on="0"/>
        <pt x="331" y="321" on="1"/>
        <pt x="292" y="338" on="0"/>
        <pt x="238" y="355" on="0"/>
        <pt x="207" y="355" on="1"/>
        <pt x="163" y="355" on="0"/>
        <pt x="89" y="319" on="0"/>
        <pt x="39" y="277" on="0"/>
        <pt x="39" y="275" on="1"/>
        <pt x="39" y="405" on="1"/>
        <pt x="39" y="407" on="0"/>
        <pt x="89" y="449" on="0"/>
        <pt x="163" y="485" on="0"/>
        <pt x="207" y="485" on="1"/>
        <pt x="236" y="485" on="0"/>
        <pt x="290" y="468" on="0"/>
        <pt x="329" y="451" on="1"/>
        <pt x="367" y="434" on="0"/>
        <pt x="423" y="417" on="0"/>
        <pt x="453" y="417" on="1"/>
        <pt x="497" y="417" on="0"/>
        <pt x="571" y="453" on="0"/>
        <pt x="621" y="495" on="0"/>
        <pt x="621" y="497" on="1"/>
        <pt x="621" y="367" on="1"/>
      </contour>
      <contour>
        <pt x="621" y="131" on="0"/>
        <pt x="571" y="89" on="0"/>
        <pt x="497" y="53" on="0"/>
        <pt x="453" y="53" on="1"/>
        <pt x="424" y="53" on="0"/>
        <pt x="370" y="70" on="0"/>
        <pt x="331" y="87" on="1"/>
        <pt x="292" y="104" on="0"/>
        <pt x="238" y="121" on="0"/>
        <pt x="207" y="121" on="1"/>
        <pt x="163" y="121" on="0"/>
        <pt x="89" y="85" on="0"/>
        <pt x="39" y="43" on="0"/>
        <pt x="39" y="41" on="1"/>
        <pt x="39" y="171" on="1"/>
        <pt x="39" y="173" on="0"/>
        <pt x="89" y="215" on="0"/>
        <pt x="163" y="251" on="0"/>
        <pt x="207" y="251" on="1"/>
        <pt x="236" y="251" on="0"/>
        <pt x="290" y="234" on="0"/>
        <pt x="329" y="217" on="1"/>
        <pt x="367" y="200" on="0"/>
        <pt x="423" y="183" on="0"/>
        <pt x="453" y="183" on="1"/>
        <pt x="497" y="183" on="0"/>
        <pt x="571" y="219" on="0"/>
        <pt x="621" y="261" on="0"/>
        <pt x="621" y="263" on="1"/>
        <pt x="621" y="133" on="1"/>
      </contour>
    </TTGlyph>
    <TTGlyph name="aring" xMin="30" yMin="-12" xMax="662" yMax="794">
      <contour>
        <pt x="378" y="794" on="0"/>
        <pt x="442" y="731" on="0"/>
        <pt x="442" y="685" on="1"/>
        <pt x="442" y="641" on="0"/>
        <pt x="379" y="577" on="0"/>
        <pt x="333" y="577" on="1"/>
        <pt x="289" y="577" on="0"/>
        <pt x="225" y="640" on="0"/>
        <pt x="225" y="685" on="1"/>
        <pt x="225" y="730" on="0"/>
        <pt x="288" y="794" on="0"/>
        <pt x="333" y="794" on="1"/>
      </contour>
      <contour>
        <pt x="316" y="725" on="0"/>
        <pt x="293" y="702" on="0"/>
        <pt x="293" y="684" on="1"/>
        <pt x="293" y="667" on="0"/>
        <pt x="316" y="645" on="0"/>
        <pt x="333" y="645" on="1"/>
        <pt x="351" y="645" on="0"/>
        <pt x="374" y="668" on="0"/>
        <pt x="374" y="686" on="1"/>
        <pt x="374" y="703" on="0"/>
        <pt x="350" y="725" on="0"/>
        <pt x="333" y="725" on="1"/>
      </contour>
      <contour>
        <pt x="442" y="540" on="0"/>
        <pt x="594" y="459" on="0"/>
        <pt x="594" y="368" on="1"/>
        <pt x="594" y="162" on="1"/>
        <pt x="594" y="145" on="0"/>
        <pt x="610" y="123" on="0"/>
        <pt x="626" y="123" on="1"/>
        <pt x="662" y="123" on="1"/>
        <pt x="662" y="8" on="1"/>
        <pt x="659" y="6" on="0"/>
        <pt x="634" y="-3" on="0"/>
        <pt x="588" y="-12" on="0"/>
        <pt x="558" y="-12" on="1"/>
        <pt x="500" y="-12" on="0"/>
        <pt x="425" y="23" on="0"/>
        <pt x="411" y="54" on="1"/>
        <pt x="373" y="24" on="0"/>
        <pt x="279" y="-12" on="0"/>
        <pt x="216" y="-12" on="1"/>
        <pt x="30" y="-12" on="0"/>
        <pt x="30" y="136" on="1"/>
        <pt x="30" y="213" on="0"/>
        <pt x="113" y="294" on="0"/>
        <pt x="269" y="324" on="0"/>
        <pt x="395" y="324" on="1"/>
        <pt x="395" y="350" on="1"/>
        <pt x="395" y="381" on="0"/>
        <pt x="352" y="413" on="0"/>
        <pt x="318" y="413" on="1"/>
        <pt x="287" y="413" on="0"/>
        <pt x="242" y="391" on="0"/>
        <pt x="242" y="367" on="1"/>
        <pt x="242" y="363" on="1"/>
        <pt x="46" y="363" on="1"/>
        <pt x="45" y="368" on="0"/>
        <pt x="45" y="377" on="1"/>
        <pt x="45" y="452" on="0"/>
        <pt x="188" y="540" on="0"/>
        <pt x="321" y="540" on="1"/>
      </contour>
      <contour>
        <pt x="310" y="230" on="0"/>
        <pt x="229" y="193" on="0"/>
        <pt x="229" y="162" on="1"/>
        <pt x="229" y="112" on="0"/>
        <pt x="297" y="112" on="1"/>
        <pt x="336" y="112" on="0"/>
        <pt x="395" y="154" on="0"/>
        <pt x="395" y="185" on="1"/>
        <pt x="395" y="230" on="1"/>
      </contour>
    </TTGlyph>
    <TTGlyph name="aringacute" xMin="30" yMin="-12" xMax="662" yMax="887">
      <contour>
        <pt x="392" y="783" on="1"/>
        <pt x="265" y="783" on="1"/>
        <pt x="342" y="887" on="1"/>
        <pt x="523" y="887" on="1"/>
        <pt x="525" y="883" on="1"/>
      </contour>
      <contour>
        <pt x="380" y="758" on="0"/>
        <pt x="442" y="707" on="0"/>
        <pt x="442" y="659" on="1"/>
        <pt x="442" y="613" on="0"/>
        <pt x="381" y="561" on="0"/>
        <pt x="333" y="561" on="1"/>
        <pt x="286" y="561" on="0"/>
        <pt x="225" y="612" on="0"/>
        <pt x="225" y="659" on="1"/>
        <pt x="225" y="706" on="0"/>
        <pt x="286" y="758" on="0"/>
        <pt x="333" y="758" on="1"/>
      </contour>
      <contour>
        <pt x="316" y="699" on="0"/>
        <pt x="293" y="676" on="0"/>
        <pt x="293" y="658" on="1"/>
        <pt x="293" y="641" on="0"/>
        <pt x="316" y="619" on="0"/>
        <pt x="333" y="619" on="1"/>
        <pt x="351" y="619" on="0"/>
        <pt x="374" y="642" on="0"/>
        <pt x="374" y="660" on="1"/>
        <pt x="374" y="677" on="0"/>
        <pt x="350" y="699" on="0"/>
        <pt x="333" y="699" on="1"/>
      </contour>
      <contour>
        <pt x="442" y="540" on="0"/>
        <pt x="594" y="459" on="0"/>
        <pt x="594" y="368" on="1"/>
        <pt x="594" y="162" on="1"/>
        <pt x="594" y="145" on="0"/>
        <pt x="610" y="123" on="0"/>
        <pt x="626" y="123" on="1"/>
        <pt x="662" y="123" on="1"/>
        <pt x="662" y="8" on="1"/>
        <pt x="659" y="6" on="0"/>
        <pt x="634" y="-3" on="0"/>
        <pt x="588" y="-12" on="0"/>
        <pt x="558" y="-12" on="1"/>
        <pt x="500" y="-12" on="0"/>
        <pt x="425" y="23" on="0"/>
        <pt x="411" y="54" on="1"/>
        <pt x="373" y="24" on="0"/>
        <pt x="279" y="-12" on="0"/>
        <pt x="216" y="-12" on="1"/>
        <pt x="30" y="-12" on="0"/>
        <pt x="30" y="136" on="1"/>
        <pt x="30" y="213" on="0"/>
        <pt x="113" y="294" on="0"/>
        <pt x="269" y="324" on="0"/>
        <pt x="395" y="324" on="1"/>
        <pt x="395" y="350" on="1"/>
        <pt x="395" y="381" on="0"/>
        <pt x="352" y="413" on="0"/>
        <pt x="318" y="413" on="1"/>
        <pt x="287" y="413" on="0"/>
        <pt x="242" y="391" on="0"/>
        <pt x="242" y="367" on="1"/>
        <pt x="242" y="363" on="1"/>
        <pt x="46" y="363" on="1"/>
        <pt x="45" y="368" on="0"/>
        <pt x="45" y="377" on="1"/>
        <pt x="45" y="452" on="0"/>
        <pt x="188" y="540" on="0"/>
        <pt x="321" y="540" on="1"/>
      </contour>
      <contour>
        <pt x="310" y="230" on="0"/>
        <pt x="229" y="193" on="0"/>
        <pt x="229" y="162" on="1"/>
        <pt x="229" y="112" on="0"/>
        <pt x="297" y="112" on="1"/>
        <pt x="336" y="112" on="0"/>
        <pt x="395" y="154" on="0"/>
        <pt x="395" y="185" on="1"/>
        <pt x="395" y="230" on="1"/>
      </contour>
    </TTGlyph>
    <TTGlyph name="arrowboth" xMin="42" yMin="50" xMax="959" yMax="455">
      <contour>
        <pt x="959" y="242" on="1"/>
        <pt x="762" y="50" on="1"/>
        <pt x="691" y="50" on="1"/>
        <pt x="734" y="189" on="1"/>
        <pt x="267" y="189" on="1"/>
        <pt x="310" y="50" on="1"/>
        <pt x="239" y="50" on="1"/>
        <pt x="42" y="242" on="1"/>
        <pt x="42" y="263" on="1"/>
        <pt x="239" y="455" on="1"/>
        <pt x="310" y="455" on="1"/>
        <pt x="267" y="316" on="1"/>
        <pt x="734" y="316" on="1"/>
        <pt x="691" y="455" on="1"/>
        <pt x="762" y="455" on="1"/>
        <pt x="959" y="263" on="1"/>
      </contour>
    </TTGlyph>
    <TTGlyph name="arrowdown" xMin="46" yMin="-206" xMax="452" yMax="711">
      <contour>
        <pt x="239" y="-206" on="1"/>
        <pt x="46" y="-9" on="1"/>
        <pt x="46" y="62" on="1"/>
        <pt x="186" y="19" on="1"/>
        <pt x="186" y="711" on="1"/>
        <pt x="312" y="711" on="1"/>
        <pt x="312" y="19" on="1"/>
        <pt x="452" y="62" on="1"/>
        <pt x="452" y="-9" on="1"/>
        <pt x="260" y="-206" on="1"/>
      </contour>
    </TTGlyph>
    <TTGlyph name="arrowleft" xMin="42" yMin="50" xMax="959" yMax="455">
      <contour>
        <pt x="310" y="50" on="1"/>
        <pt x="239" y="50" on="1"/>
        <pt x="42" y="242" on="1"/>
        <pt x="42" y="263" on="1"/>
        <pt x="239" y="455" on="1"/>
        <pt x="310" y="455" on="1"/>
        <pt x="267" y="316" on="1"/>
        <pt x="959" y="316" on="1"/>
        <pt x="959" y="189" on="1"/>
        <pt x="267" y="189" on="1"/>
      </contour>
    </TTGlyph>
    <TTGlyph name="arrowright" xMin="42" yMin="50" xMax="959" yMax="455">
      <contour>
        <pt x="734" y="316" on="1"/>
        <pt x="691" y="455" on="1"/>
        <pt x="762" y="455" on="1"/>
        <pt x="959" y="263" on="1"/>
        <pt x="959" y="242" on="1"/>
        <pt x="762" y="50" on="1"/>
        <pt x="691" y="50" on="1"/>
        <pt x="734" y="189" on="1"/>
        <pt x="42" y="189" on="1"/>
        <pt x="42" y="316" on="1"/>
      </contour>
    </TTGlyph>
    <TTGlyph name="arrowup" xMin="46" yMin="-206" xMax="452" yMax="711">
      <contour>
        <pt x="46" y="443" on="1"/>
        <pt x="46" y="514" on="1"/>
        <pt x="239" y="711" on="1"/>
        <pt x="260" y="711" on="1"/>
        <pt x="452" y="514" on="1"/>
        <pt x="452" y="443" on="1"/>
        <pt x="312" y="486" on="1"/>
        <pt x="312" y="-206" on="1"/>
        <pt x="186" y="-206" on="1"/>
        <pt x="186" y="486" on="1"/>
      </contour>
    </TTGlyph>
    <TTGlyph name="arrowupdn" xMin="46" yMin="-206" xMax="452" yMax="711">
      <contour>
        <pt x="239" y="-206" on="1"/>
        <pt x="46" y="-9" on="1"/>
        <pt x="46" y="62" on="1"/>
        <pt x="186" y="19" on="1"/>
        <pt x="186" y="486" on="1"/>
        <pt x="46" y="443" on="1"/>
        <pt x="46" y="514" on="1"/>
        <pt x="239" y="711" on="1"/>
        <pt x="260" y="711" on="1"/>
        <pt x="452" y="514" on="1"/>
        <pt x="452" y="443" on="1"/>
        <pt x="312" y="486" on="1"/>
        <pt x="312" y="19" on="1"/>
        <pt x="452" y="62" on="1"/>
        <pt x="452" y="-9" on="1"/>
        <pt x="260" y="-206" on="1"/>
      </contour>
    </TTGlyph>
    <TTGlyph name="arrowupdnbse" xMin="46" yMin="-220" xMax="452" yMax="711">
      <contour>
        <pt x="239" y="-123" on="1"/>
        <pt x="46" y="74" on="1"/>
        <pt x="46" y="145" on="1"/>
        <pt x="186" y="102" on="1"/>
        <pt x="186" y="486" on="1"/>
        <pt x="46" y="443" on="1"/>
        <pt x="46" y="514" on="1"/>
        <pt x="239" y="711" on="1"/>
        <pt x="260" y="711" on="1"/>
        <pt x="452" y="514" on="1"/>
        <pt x="452" y="443" on="1"/>
        <pt x="312" y="486" on="1"/>
        <pt x="312" y="102" on="1"/>
        <pt x="452" y="145" on="1"/>
        <pt x="452" y="74" on="1"/>
        <pt x="260" y="-123" on="1"/>
      </contour>
      <contour>
        <pt x="46" y="-220" on="1"/>
        <pt x="46" y="-158" on="1"/>
        <pt x="452" y="-158" on="1"/>
        <pt x="452" y="-220" on="1"/>
      </contour>
    </TTGlyph>
    <TTGlyph name="asciicircum" xMin="55" yMin="337" xMax="604" yMax="688">
      <contour>
        <pt x="462" y="337" on="1"/>
        <pt x="331" y="549" on="1"/>
        <pt x="199" y="337" on="1"/>
        <pt x="55" y="337" on="1"/>
        <pt x="258" y="688" on="1"/>
        <pt x="401" y="688" on="1"/>
        <pt x="604" y="337" on="1"/>
      </contour>
    </TTGlyph>
    <TTGlyph name="asciitilde" xMin="39" yMin="187" xMax="621" yMax="409">
      <contour>
        <pt x="621" y="277" on="0"/>
        <pt x="571" y="235" on="0"/>
        <pt x="497" y="199" on="0"/>
        <pt x="453" y="199" on="1"/>
        <pt x="424" y="199" on="0"/>
        <pt x="370" y="216" on="0"/>
        <pt x="331" y="233" on="1"/>
        <pt x="292" y="250" on="0"/>
        <pt x="238" y="267" on="0"/>
        <pt x="207" y="267" on="1"/>
        <pt x="163" y="267" on="0"/>
        <pt x="89" y="231" on="0"/>
        <pt x="39" y="189" on="0"/>
        <pt x="39" y="187" on="1"/>
        <pt x="39" y="317" on="1"/>
        <pt x="39" y="319" on="0"/>
        <pt x="89" y="361" on="0"/>
        <pt x="163" y="397" on="0"/>
        <pt x="207" y="397" on="1"/>
        <pt x="236" y="397" on="0"/>
        <pt x="290" y="380" on="0"/>
        <pt x="329" y="363" on="1"/>
        <pt x="367" y="346" on="0"/>
        <pt x="423" y="329" on="0"/>
        <pt x="453" y="329" on="1"/>
        <pt x="497" y="329" on="0"/>
        <pt x="571" y="365" on="0"/>
        <pt x="621" y="407" on="0"/>
        <pt x="621" y="409" on="1"/>
        <pt x="621" y="279" on="1"/>
      </contour>
    </TTGlyph>
    <TTGlyph name="asterisk" xMin="95" yMin="322" xMax="460" yMax="688">
      <contour>
        <pt x="413" y="637" on="1"/>
        <pt x="460" y="557" on="1"/>
        <pt x="348" y="505" on="1"/>
        <pt x="460" y="454" on="1"/>
        <pt x="413" y="373" on="1"/>
        <pt x="312" y="444" on="1"/>
        <pt x="324" y="322" on="1"/>
        <pt x="231" y="322" on="1"/>
        <pt x="243" y="444" on="1"/>
        <pt x="142" y="373" on="1"/>
        <pt x="95" y="454" on="1"/>
        <pt x="207" y="505" on="1"/>
        <pt x="95" y="557" on="1"/>
        <pt x="142" y="637" on="1"/>
        <pt x="243" y="566" on="1"/>
        <pt x="231" y="688" on="1"/>
        <pt x="324" y="688" on="1"/>
        <pt x="312" y="567" on="1"/>
      </contour>
    </TTGlyph>
    <TTGlyph name="at" xMin="20" yMin="-149" xMax="720" yMax="700">
      <contour>
        <pt x="536" y="700" on="0"/>
        <pt x="720" y="515" on="0"/>
        <pt x="720" y="323" on="1"/>
        <pt x="720" y="225" on="0"/>
        <pt x="669" y="103" on="0"/>
        <pt x="590" y="51" on="0"/>
        <pt x="546" y="51" on="1"/>
        <pt x="469" y="51" on="0"/>
        <pt x="437" y="104" on="1"/>
        <pt x="411" y="80" on="0"/>
        <pt x="347" y="51" on="0"/>
        <pt x="303" y="51" on="1"/>
        <pt x="161" y="51" on="0"/>
        <pt x="161" y="165" on="1"/>
        <pt x="161" y="224" on="0"/>
        <pt x="219" y="286" on="0"/>
        <pt x="330" y="309" on="0"/>
        <pt x="420" y="309" on="1"/>
        <pt x="420" y="329" on="1"/>
        <pt x="420" y="352" on="0"/>
        <pt x="393" y="378" on="0"/>
        <pt x="372" y="378" on="1"/>
        <pt x="351" y="378" on="0"/>
        <pt x="322" y="360" on="0"/>
        <pt x="322" y="339" on="1"/>
        <pt x="173" y="339" on="1"/>
        <pt x="172" y="343" on="0"/>
        <pt x="172" y="349" on="1"/>
        <pt x="172" y="406" on="0"/>
        <pt x="277" y="474" on="0"/>
        <pt x="374" y="474" on="1"/>
        <pt x="462" y="474" on="0"/>
        <pt x="573" y="412" on="0"/>
        <pt x="573" y="343" on="1"/>
        <pt x="573" y="184" on="1"/>
        <pt x="573" y="154" on="0"/>
        <pt x="602" y="154" on="1"/>
        <pt x="619" y="154" on="0"/>
        <pt x="652" y="225" on="0"/>
        <pt x="652" y="324" on="1"/>
        <pt x="652" y="485" on="0"/>
        <pt x="506" y="639" on="0"/>
        <pt x="380" y="639" on="1"/>
        <pt x="236" y="639" on="0"/>
        <pt x="88" y="452" on="0"/>
        <pt x="88" y="265" on="1"/>
        <pt x="88" y="88" on="0"/>
        <pt x="217" y="-88" on="0"/>
        <pt x="350" y="-88" on="1"/>
        <pt x="382" y="-88" on="0"/>
        <pt x="472" y="-69" on="0"/>
        <pt x="495" y="-56" on="1"/>
        <pt x="495" y="-122" on="1"/>
        <pt x="469" y="-133" on="0"/>
        <pt x="380" y="-149" on="0"/>
        <pt x="350" y="-149" on="1"/>
        <pt x="192" y="-149" on="0"/>
        <pt x="20" y="55" on="0"/>
        <pt x="20" y="266" on="1"/>
        <pt x="20" y="491" on="0"/>
        <pt x="216" y="700" on="0"/>
        <pt x="381" y="700" on="1"/>
      </contour>
      <contour>
        <pt x="365" y="236" on="0"/>
        <pt x="312" y="208" on="0"/>
        <pt x="312" y="184" on="1"/>
        <pt x="312" y="145" on="0"/>
        <pt x="354" y="145" on="1"/>
        <pt x="381" y="145" on="0"/>
        <pt x="420" y="178" on="0"/>
        <pt x="420" y="202" on="1"/>
        <pt x="420" y="236" on="1"/>
      </contour>
    </TTGlyph>
    <TTGlyph name="atilde" xMin="30" yMin="-12" xMax="662" yMax="725">
      <contour>
        <pt x="556" y="689" on="0"/>
        <pt x="520" y="623" on="0"/>
        <pt x="456" y="582" on="0"/>
        <pt x="416" y="582" on="1"/>
        <pt x="394" y="582" on="0"/>
        <pt x="353" y="592" on="0"/>
        <pt x="321" y="603" on="1"/>
        <pt x="296" y="612" on="0"/>
        <pt x="260" y="622" on="0"/>
        <pt x="243" y="622" on="1"/>
        <pt x="224" y="622" on="0"/>
        <pt x="198" y="600" on="0"/>
        <pt x="192" y="582" on="1"/>
        <pt x="111" y="582" on="1"/>
        <pt x="111" y="618" on="0"/>
        <pt x="147" y="684" on="0"/>
        <pt x="211" y="725" on="0"/>
        <pt x="251" y="725" on="1"/>
        <pt x="273" y="725" on="0"/>
        <pt x="314" y="715" on="0"/>
        <pt x="346" y="704" on="1"/>
        <pt x="371" y="695" on="0"/>
        <pt x="407" y="685" on="0"/>
        <pt x="424" y="685" on="1"/>
        <pt x="443" y="685" on="0"/>
        <pt x="469" y="707" on="0"/>
        <pt x="475" y="725" on="1"/>
        <pt x="556" y="725" on="1"/>
      </contour>
      <contour>
        <pt x="442" y="540" on="0"/>
        <pt x="594" y="459" on="0"/>
        <pt x="594" y="368" on="1"/>
        <pt x="594" y="162" on="1"/>
        <pt x="594" y="145" on="0"/>
        <pt x="610" y="123" on="0"/>
        <pt x="626" y="123" on="1"/>
        <pt x="662" y="123" on="1"/>
        <pt x="662" y="8" on="1"/>
        <pt x="659" y="6" on="0"/>
        <pt x="634" y="-3" on="0"/>
        <pt x="588" y="-12" on="0"/>
        <pt x="558" y="-12" on="1"/>
        <pt x="500" y="-12" on="0"/>
        <pt x="425" y="23" on="0"/>
        <pt x="411" y="54" on="1"/>
        <pt x="373" y="24" on="0"/>
        <pt x="279" y="-12" on="0"/>
        <pt x="216" y="-12" on="1"/>
        <pt x="30" y="-12" on="0"/>
        <pt x="30" y="136" on="1"/>
        <pt x="30" y="213" on="0"/>
        <pt x="113" y="294" on="0"/>
        <pt x="269" y="324" on="0"/>
        <pt x="395" y="324" on="1"/>
        <pt x="395" y="350" on="1"/>
        <pt x="395" y="381" on="0"/>
        <pt x="352" y="413" on="0"/>
        <pt x="318" y="413" on="1"/>
        <pt x="287" y="413" on="0"/>
        <pt x="242" y="391" on="0"/>
        <pt x="242" y="367" on="1"/>
        <pt x="242" y="363" on="1"/>
        <pt x="46" y="363" on="1"/>
        <pt x="45" y="368" on="0"/>
        <pt x="45" y="377" on="1"/>
        <pt x="45" y="452" on="0"/>
        <pt x="188" y="540" on="0"/>
        <pt x="321" y="540" on="1"/>
      </contour>
      <contour>
        <pt x="310" y="230" on="0"/>
        <pt x="229" y="193" on="0"/>
        <pt x="229" y="162" on="1"/>
        <pt x="229" y="112" on="0"/>
        <pt x="297" y="112" on="1"/>
        <pt x="336" y="112" on="0"/>
        <pt x="395" y="154" on="0"/>
        <pt x="395" y="185" on="1"/>
        <pt x="395" y="230" on="1"/>
      </contour>
    </TTGlyph>
    <TTGlyph name="b" xMin="61" yMin="-12" xMax="631" yMax="725">
      <contour>
        <pt x="317" y="540" on="0"/>
        <pt x="408" y="540" on="1"/>
        <pt x="515" y="540" on="0"/>
        <pt x="631" y="401" on="0"/>
        <pt x="631" y="265" on="1"/>
        <pt x="631" y="128" on="0"/>
        <pt x="515" y="-12" on="0"/>
        <pt x="408" y="-12" on="1"/>
        <pt x="298" y="-12" on="0"/>
        <pt x="240" y="75" on="1"/>
        <pt x="223" y="0" on="1"/>
        <pt x="61" y="0" on="1"/>
        <pt x="61" y="725" on="1"/>
        <pt x="260" y="725" on="1"/>
        <pt x="260" y="479" on="1"/>
      </contour>
      <contour>
        <pt x="302" y="393" on="0"/>
        <pt x="258" y="330" on="0"/>
        <pt x="258" y="280" on="1"/>
        <pt x="258" y="247" on="1"/>
        <pt x="258" y="197" on="0"/>
        <pt x="302" y="135" on="0"/>
        <pt x="346" y="135" on="1"/>
        <pt x="432" y="135" on="0"/>
        <pt x="432" y="237" on="1"/>
        <pt x="432" y="290" on="1"/>
        <pt x="432" y="393" on="0"/>
        <pt x="346" y="393" on="1"/>
      </contour>
    </TTGlyph>
    <TTGlyph name="backslash" xMin="-2" yMin="-48" xMax="279" yMax="736">
      <contour>
        <pt x="157" y="-48" on="1"/>
        <pt x="-2" y="736" on="1"/>
        <pt x="119" y="736" on="1"/>
        <pt x="279" y="-48" on="1"/>
      </contour>
    </TTGlyph>
    <TTGlyph name="bar" xMin="77" yMin="-211" xMax="201" yMax="726">
      <contour>
        <pt x="77" y="-211" on="1"/>
        <pt x="77" y="726" on="1"/>
        <pt x="201" y="726" on="1"/>
        <pt x="201" y="-211" on="1"/>
      </contour>
    </TTGlyph>
    <TTGlyph name="braceleft" xMin="30" yMin="-160" xMax="349" yMax="737">
      <contour>
        <pt x="275" y="639" on="0"/>
        <pt x="273" y="598" on="1"/>
        <pt x="263" y="397" on="1"/>
        <pt x="258" y="294" on="0"/>
        <pt x="162" y="294" on="1"/>
        <pt x="162" y="285" on="1"/>
        <pt x="258" y="285" on="0"/>
        <pt x="263" y="182" on="1"/>
        <pt x="273" y="-20" on="1"/>
        <pt x="275" y="-62" on="0"/>
        <pt x="349" y="-62" on="1"/>
        <pt x="349" y="-160" on="1"/>
        <pt x="258" y="-160" on="1"/>
        <pt x="201" y="-160" on="0"/>
        <pt x="117" y="-102" on="0"/>
        <pt x="117" y="-48" on="1"/>
        <pt x="117" y="195" on="1"/>
        <pt x="117" y="223" on="0"/>
        <pt x="67" y="250" on="0"/>
        <pt x="30" y="250" on="1"/>
        <pt x="30" y="329" on="1"/>
        <pt x="64" y="329" on="0"/>
        <pt x="117" y="358" on="0"/>
        <pt x="117" y="386" on="1"/>
        <pt x="117" y="625" on="1"/>
        <pt x="117" y="679" on="0"/>
        <pt x="201" y="737" on="0"/>
        <pt x="258" y="737" on="1"/>
        <pt x="349" y="737" on="1"/>
        <pt x="349" y="639" on="1"/>
      </contour>
    </TTGlyph>
    <TTGlyph name="braceright" xMin="40" yMin="-160" xMax="359" yMax="737">
      <contour>
        <pt x="188" y="737" on="0"/>
        <pt x="272" y="679" on="0"/>
        <pt x="272" y="625" on="1"/>
        <pt x="272" y="386" on="1"/>
        <pt x="272" y="358" on="0"/>
        <pt x="325" y="329" on="0"/>
        <pt x="359" y="329" on="1"/>
        <pt x="359" y="250" on="1"/>
        <pt x="322" y="250" on="0"/>
        <pt x="272" y="223" on="0"/>
        <pt x="272" y="195" on="1"/>
        <pt x="272" y="-48" on="1"/>
        <pt x="272" y="-102" on="0"/>
        <pt x="188" y="-160" on="0"/>
        <pt x="131" y="-160" on="1"/>
        <pt x="40" y="-160" on="1"/>
        <pt x="40" y="-62" on="1"/>
        <pt x="114" y="-62" on="0"/>
        <pt x="116" y="-20" on="1"/>
        <pt x="126" y="182" on="1"/>
        <pt x="131" y="285" on="0"/>
        <pt x="227" y="285" on="1"/>
        <pt x="227" y="294" on="1"/>
        <pt x="131" y="294" on="0"/>
        <pt x="126" y="397" on="1"/>
        <pt x="116" y="598" on="1"/>
        <pt x="114" y="639" on="0"/>
        <pt x="40" y="639" on="1"/>
        <pt x="40" y="737" on="1"/>
        <pt x="131" y="737" on="1"/>
      </contour>
    </TTGlyph>
    <TTGlyph name="bracketleft" xMin="66" yMin="-160" xMax="339" yMax="737">
      <contour>
        <pt x="225" y="634" on="1"/>
        <pt x="225" y="-57" on="1"/>
        <pt x="339" y="-57" on="1"/>
        <pt x="339" y="-160" on="1"/>
        <pt x="66" y="-160" on="1"/>
        <pt x="66" y="737" on="1"/>
        <pt x="339" y="737" on="1"/>
        <pt x="339" y="634" on="1"/>
      </contour>
    </TTGlyph>
    <TTGlyph name="bracketright" xMin="66" yMin="-160" xMax="339" yMax="737">
      <contour>
        <pt x="66" y="-160" on="1"/>
        <pt x="66" y="-57" on="1"/>
        <pt x="180" y="-57" on="1"/>
        <pt x="180" y="634" on="1"/>
        <pt x="66" y="634" on="1"/>
        <pt x="66" y="737" on="1"/>
        <pt x="339" y="737" on="1"/>
        <pt x="339" y="-160" on="1"/>
      </contour>
    </TTGlyph>
    <TTGlyph name="breve" xMin="-18" yMin="581" xMax="351" yMax="725">
      <contour>
        <pt x="351" y="691" on="0"/>
        <pt x="305" y="624" on="0"/>
        <pt x="220" y="581" on="0"/>
        <pt x="166" y="581" on="1"/>
        <pt x="111" y="581" on="0"/>
        <pt x="27" y="624" on="0"/>
        <pt x="-18" y="691" on="0"/>
        <pt x="-18" y="725" on="1"/>
        <pt x="78" y="725" on="1"/>
        <pt x="80" y="717" on="0"/>
        <pt x="94" y="699" on="0"/>
        <pt x="105" y="692" on="1"/>
        <pt x="132" y="675" on="0"/>
        <pt x="166" y="675" on="1"/>
        <pt x="201" y="675" on="0"/>
        <pt x="253" y="707" on="0"/>
        <pt x="256" y="725" on="1"/>
        <pt x="351" y="725" on="1"/>
      </contour>
    </TTGlyph>
    <TTGlyph name="brokenbar" xMin="78" yMin="-210" xMax="202" yMax="726">
      <contour>
        <pt x="78" y="336" on="1"/>
        <pt x="78" y="726" on="1"/>
        <pt x="202" y="726" on="1"/>
        <pt x="202" y="336" on="1"/>
      </contour>
      <contour>
        <pt x="78" y="-210" on="1"/>
        <pt x="78" y="180" on="1"/>
        <pt x="202" y="180" on="1"/>
        <pt x="202" y="-210" on="1"/>
      </contour>
    </TTGlyph>
    <TTGlyph name="bullet" xMin="88" yMin="183" xMax="412" yMax="507">
      <contour>
        <pt x="294" y="507" on="0"/>
        <pt x="368" y="463" on="0"/>
        <pt x="412" y="389" on="0"/>
        <pt x="412" y="345" on="1"/>
        <pt x="412" y="301" on="0"/>
        <pt x="368" y="227" on="0"/>
        <pt x="294" y="183" on="0"/>
        <pt x="250" y="183" on="1"/>
        <pt x="206" y="183" on="0"/>
        <pt x="132" y="227" on="0"/>
        <pt x="88" y="301" on="0"/>
        <pt x="88" y="345" on="1"/>
        <pt x="88" y="389" on="0"/>
        <pt x="132" y="463" on="0"/>
        <pt x="206" y="507" on="0"/>
        <pt x="250" y="507" on="1"/>
      </contour>
    </TTGlyph>
    <TTGlyph name="c" xMin="36" yMin="-12" xMax="624" yMax="540">
      <contour>
        <pt x="463" y="540" on="0"/>
        <pt x="624" y="429" on="0"/>
        <pt x="624" y="315" on="1"/>
        <pt x="431" y="315" on="1"/>
        <pt x="431" y="405" on="0"/>
        <pt x="333" y="405" on="1"/>
        <pt x="235" y="405" on="0"/>
        <pt x="235" y="292" on="1"/>
        <pt x="235" y="235" on="1"/>
        <pt x="235" y="123" on="0"/>
        <pt x="337" y="123" on="1"/>
        <pt x="439" y="123" on="0"/>
        <pt x="439" y="215" on="1"/>
        <pt x="624" y="215" on="1"/>
        <pt x="624" y="100" on="0"/>
        <pt x="463" y="-12" on="0"/>
        <pt x="333" y="-12" on="1"/>
        <pt x="194" y="-12" on="0"/>
        <pt x="36" y="128" on="0"/>
        <pt x="36" y="264" on="1"/>
        <pt x="36" y="400" on="0"/>
        <pt x="194" y="540" on="0"/>
        <pt x="333" y="540" on="1"/>
      </contour>
    </TTGlyph>
    <TTGlyph name="cacute" xMin="36" yMin="-12" xMax="624" yMax="725">
      <contour>
        <pt x="237" y="592" on="1"/>
        <pt x="330" y="725" on="1"/>
        <pt x="522" y="725" on="1"/>
        <pt x="524" y="721" on="1"/>
        <pt x="365" y="592" on="1"/>
      </contour>
      <contour>
        <pt x="463" y="540" on="0"/>
        <pt x="624" y="429" on="0"/>
        <pt x="624" y="315" on="1"/>
        <pt x="431" y="315" on="1"/>
        <pt x="431" y="405" on="0"/>
        <pt x="333" y="405" on="1"/>
        <pt x="235" y="405" on="0"/>
        <pt x="235" y="292" on="1"/>
        <pt x="235" y="235" on="1"/>
        <pt x="235" y="123" on="0"/>
        <pt x="337" y="123" on="1"/>
        <pt x="439" y="123" on="0"/>
        <pt x="439" y="215" on="1"/>
        <pt x="624" y="215" on="1"/>
        <pt x="624" y="100" on="0"/>
        <pt x="463" y="-12" on="0"/>
        <pt x="333" y="-12" on="1"/>
        <pt x="194" y="-12" on="0"/>
        <pt x="36" y="128" on="0"/>
        <pt x="36" y="264" on="1"/>
        <pt x="36" y="400" on="0"/>
        <pt x="194" y="540" on="0"/>
        <pt x="333" y="540" on="1"/>
      </contour>
    </TTGlyph>
    <TTGlyph name="caron" xMin="-35" yMin="580" xMax="371" yMax="725">
      <contour>
        <pt x="104" y="580" on="1"/>
        <pt x="-35" y="725" on="1"/>
        <pt x="93" y="725" on="1"/>
        <pt x="167" y="648" on="1"/>
        <pt x="241" y="725" on="1"/>
        <pt x="371" y="725" on="1"/>
        <pt x="232" y="580" on="1"/>
      </contour>
    </TTGlyph>
    <TTGlyph name="ccaron" xMin="36" yMin="-12" xMax="624" yMax="725">
      <contour>
        <pt x="270" y="580" on="1"/>
        <pt x="130" y="725" on="1"/>
        <pt x="258" y="725" on="1"/>
        <pt x="333" y="648" on="1"/>
        <pt x="407" y="725" on="1"/>
        <pt x="537" y="725" on="1"/>
        <pt x="397" y="580" on="1"/>
      </contour>
      <contour>
        <pt x="463" y="540" on="0"/>
        <pt x="624" y="429" on="0"/>
        <pt x="624" y="315" on="1"/>
        <pt x="431" y="315" on="1"/>
        <pt x="431" y="405" on="0"/>
        <pt x="333" y="405" on="1"/>
        <pt x="235" y="405" on="0"/>
        <pt x="235" y="292" on="1"/>
        <pt x="235" y="235" on="1"/>
        <pt x="235" y="123" on="0"/>
        <pt x="337" y="123" on="1"/>
        <pt x="439" y="123" on="0"/>
        <pt x="439" y="215" on="1"/>
        <pt x="624" y="215" on="1"/>
        <pt x="624" y="100" on="0"/>
        <pt x="463" y="-12" on="0"/>
        <pt x="333" y="-12" on="1"/>
        <pt x="194" y="-12" on="0"/>
        <pt x="36" y="128" on="0"/>
        <pt x="36" y="264" on="1"/>
        <pt x="36" y="400" on="0"/>
        <pt x="194" y="540" on="0"/>
        <pt x="333" y="540" on="1"/>
      </contour>
    </TTGlyph>
    <TTGlyph name="ccedilla" xMin="36" yMin="-211" xMax="624" yMax="540">
      <contour>
        <pt x="463" y="540" on="0"/>
        <pt x="624" y="429" on="0"/>
        <pt x="624" y="315" on="1"/>
        <pt x="431" y="315" on="1"/>
        <pt x="431" y="405" on="0"/>
        <pt x="333" y="405" on="1"/>
        <pt x="235" y="405" on="0"/>
        <pt x="235" y="292" on="1"/>
        <pt x="235" y="235" on="1"/>
        <pt x="235" y="123" on="0"/>
        <pt x="337" y="123" on="1"/>
        <pt x="439" y="123" on="0"/>
        <pt x="439" y="215" on="1"/>
        <pt x="624" y="215" on="1"/>
        <pt x="624" y="108" on="0"/>
        <pt x="482" y="-4" on="0"/>
        <pt x="365" y="-11" on="1"/>
        <pt x="363" y="-29" on="1"/>
        <pt x="456" y="-38" on="0"/>
        <pt x="456" y="-118" on="1"/>
        <pt x="456" y="-169" on="0"/>
        <pt x="383" y="-211" on="0"/>
        <pt x="337" y="-211" on="1"/>
        <pt x="303" y="-211" on="0"/>
        <pt x="233" y="-202" on="0"/>
        <pt x="211" y="-195" on="1"/>
        <pt x="211" y="-141" on="1"/>
        <pt x="222" y="-142" on="0"/>
        <pt x="296" y="-149" on="0"/>
        <pt x="329" y="-149" on="1"/>
        <pt x="369" y="-149" on="0"/>
        <pt x="369" y="-118" on="1"/>
        <pt x="369" y="-86" on="0"/>
        <pt x="331" y="-86" on="1"/>
        <pt x="292" y="-86" on="1"/>
        <pt x="304" y="-11" on="1"/>
        <pt x="178" y="-3" on="0"/>
        <pt x="36" y="136" on="0"/>
        <pt x="36" y="264" on="1"/>
        <pt x="36" y="400" on="0"/>
        <pt x="194" y="540" on="0"/>
        <pt x="333" y="540" on="1"/>
      </contour>
    </TTGlyph>
    <TTGlyph name="ccircumflex" xMin="36" yMin="-12" xMax="624" yMax="725">
      <contour>
        <pt x="407" y="580" on="1"/>
        <pt x="333" y="657" on="1"/>
        <pt x="258" y="580" on="1"/>
        <pt x="130" y="580" on="1"/>
        <pt x="270" y="725" on="1"/>
        <pt x="397" y="725" on="1"/>
        <pt x="537" y="580" on="1"/>
      </contour>
      <contour>
        <pt x="463" y="540" on="0"/>
        <pt x="624" y="429" on="0"/>
        <pt x="624" y="315" on="1"/>
        <pt x="431" y="315" on="1"/>
        <pt x="431" y="405" on="0"/>
        <pt x="333" y="405" on="1"/>
        <pt x="235" y="405" on="0"/>
        <pt x="235" y="292" on="1"/>
        <pt x="235" y="235" on="1"/>
        <pt x="235" y="123" on="0"/>
        <pt x="337" y="123" on="1"/>
        <pt x="439" y="123" on="0"/>
        <pt x="439" y="215" on="1"/>
        <pt x="624" y="215" on="1"/>
        <pt x="624" y="100" on="0"/>
        <pt x="463" y="-12" on="0"/>
        <pt x="333" y="-12" on="1"/>
        <pt x="194" y="-12" on="0"/>
        <pt x="36" y="128" on="0"/>
        <pt x="36" y="264" on="1"/>
        <pt x="36" y="400" on="0"/>
        <pt x="194" y="540" on="0"/>
        <pt x="333" y="540" on="1"/>
      </contour>
    </TTGlyph>
    <TTGlyph name="cdotaccent" xMin="36" yMin="-12" xMax="624" yMax="725">
      <contour>
        <pt x="257" y="586" on="1"/>
        <pt x="257" y="725" on="1"/>
        <pt x="410" y="725" on="1"/>
        <pt x="410" y="586" on="1"/>
      </contour>
      <contour>
        <pt x="463" y="540" on="0"/>
        <pt x="624" y="429" on="0"/>
        <pt x="624" y="315" on="1"/>
        <pt x="431" y="315" on="1"/>
        <pt x="431" y="405" on="0"/>
        <pt x="333" y="405" on="1"/>
        <pt x="235" y="405" on="0"/>
        <pt x="235" y="292" on="1"/>
        <pt x="235" y="235" on="1"/>
        <pt x="235" y="123" on="0"/>
        <pt x="337" y="123" on="1"/>
        <pt x="439" y="123" on="0"/>
        <pt x="439" y="215" on="1"/>
        <pt x="624" y="215" on="1"/>
        <pt x="624" y="100" on="0"/>
        <pt x="463" y="-12" on="0"/>
        <pt x="333" y="-12" on="1"/>
        <pt x="194" y="-12" on="0"/>
        <pt x="36" y="128" on="0"/>
        <pt x="36" y="264" on="1"/>
        <pt x="36" y="400" on="0"/>
        <pt x="194" y="540" on="0"/>
        <pt x="333" y="540" on="1"/>
      </contour>
    </TTGlyph>
    <TTGlyph name="cedilla" xMin="47" yMin="-211" xMax="291" yMax="39">
      <contour>
        <pt x="291" y="-38" on="0"/>
        <pt x="291" y="-118" on="1"/>
        <pt x="291" y="-169" on="0"/>
        <pt x="218" y="-211" on="0"/>
        <pt x="173" y="-211" on="1"/>
        <pt x="138" y="-211" on="0"/>
        <pt x="68" y="-202" on="0"/>
        <pt x="47" y="-195" on="1"/>
        <pt x="47" y="-141" on="1"/>
        <pt x="58" y="-142" on="0"/>
        <pt x="132" y="-149" on="0"/>
        <pt x="164" y="-149" on="1"/>
        <pt x="204" y="-149" on="0"/>
        <pt x="204" y="-118" on="1"/>
        <pt x="204" y="-102" on="0"/>
        <pt x="187" y="-86" on="0"/>
        <pt x="166" y="-86" on="1"/>
        <pt x="128" y="-86" on="1"/>
        <pt x="147" y="39" on="1"/>
        <pt x="209" y="39" on="1"/>
        <pt x="198" y="-29" on="1"/>
      </contour>
    </TTGlyph>
    <TTGlyph name="cent" xMin="36" yMin="-67" xMax="624" yMax="756">
      <contour>
        <pt x="494" y="608" on="0"/>
        <pt x="624" y="498" on="0"/>
        <pt x="624" y="396" on="1"/>
        <pt x="431" y="396" on="1"/>
        <pt x="431" y="486" on="0"/>
        <pt x="333" y="486" on="1"/>
        <pt x="235" y="486" on="0"/>
        <pt x="235" y="373" on="1"/>
        <pt x="235" y="316" on="1"/>
        <pt x="235" y="204" on="0"/>
        <pt x="337" y="204" on="1"/>
        <pt x="439" y="204" on="0"/>
        <pt x="439" y="296" on="1"/>
        <pt x="624" y="296" on="1"/>
        <pt x="624" y="193" on="0"/>
        <pt x="493" y="81" on="0"/>
        <pt x="384" y="71" on="1"/>
        <pt x="392" y="-67" on="1"/>
        <pt x="279" y="-67" on="1"/>
        <pt x="286" y="71" on="1"/>
        <pt x="168" y="83" on="0"/>
        <pt x="36" y="221" on="0"/>
        <pt x="36" y="345" on="1"/>
        <pt x="36" y="468" on="0"/>
        <pt x="168" y="607" on="0"/>
        <pt x="286" y="619" on="1"/>
        <pt x="279" y="756" on="1"/>
        <pt x="392" y="756" on="1"/>
        <pt x="384" y="618" on="1"/>
      </contour>
    </TTGlyph>
    <TTGlyph name="circumflex" xMin="-35" yMin="580" xMax="371" yMax="725">
      <contour>
        <pt x="241" y="580" on="1"/>
        <pt x="167" y="657" on="1"/>
        <pt x="93" y="580" on="1"/>
        <pt x="-35" y="580" on="1"/>
        <pt x="104" y="725" on="1"/>
        <pt x="232" y="725" on="1"/>
        <pt x="371" y="580" on="1"/>
      </contour>
    </TTGlyph>
    <TTGlyph name="colon" xMin="61" yMin="0" xMax="273" yMax="528">
      <contour>
        <pt x="61" y="328" on="1"/>
        <pt x="61" y="528" on="1"/>
        <pt x="273" y="528" on="1"/>
        <pt x="273" y="328" on="1"/>
      </contour>
      <contour>
        <pt x="61" y="0" on="1"/>
        <pt x="61" y="199" on="1"/>
        <pt x="273" y="199" on="1"/>
        <pt x="273" y="0" on="1"/>
      </contour>
    </TTGlyph>
    <TTGlyph name="comma" xMin="60" yMin="-183" xMax="273" yMax="199">
      <contour>
        <pt x="168" y="-183" on="1"/>
        <pt x="60" y="-183" on="1"/>
        <pt x="142" y="0" on="1"/>
        <pt x="61" y="0" on="1"/>
        <pt x="61" y="199" on="1"/>
        <pt x="273" y="199" on="1"/>
        <pt x="273" y="11" on="1"/>
      </contour>
    </TTGlyph>
</ttFont>
